<svg id="Group_1928" data-name="Group 1928" xmlns="http://www.w3.org/2000/svg" xmlns:xlink="http://www.w3.org/1999/xlink" width="196.563" height="169.128" viewBox="0 0 196.563 169.128">
  <defs>
    <clipPath id="clip-path">
      <rect id="Rectangle_1482" data-name="Rectangle 1482" width="196.563" height="169.128" fill="none"/>
    </clipPath>
    <clipPath id="clip-path-3">
      <rect id="Rectangle_1449" data-name="Rectangle 1449" width="183.223" height="45.18" transform="translate(12.719 9.465)" fill="none"/>
    </clipPath>
    <clipPath id="clip-path-4">
      <rect id="Rectangle_1450" data-name="Rectangle 1450" width="183.836" height="73.597" transform="translate(12.727 19.475)" fill="none"/>
    </clipPath>
    <clipPath id="clip-path-5">
      <rect id="Rectangle_1451" data-name="Rectangle 1451" width="183.843" height="79.901" transform="translate(12.72 13.171)" fill="none"/>
    </clipPath>
    <clipPath id="clip-path-6">
      <rect id="Rectangle_1452" data-name="Rectangle 1452" width="176.756" height="53.854" transform="translate(14.957 9.466)" fill="none"/>
    </clipPath>
    <clipPath id="clip-path-7">
      <rect id="Rectangle_1453" data-name="Rectangle 1453" width="98.256" height="94.226" transform="translate(90.046 47.149)" fill="none"/>
    </clipPath>
    <clipPath id="clip-path-8">
      <rect id="Rectangle_1454" data-name="Rectangle 1454" width="94.694" height="75.116" transform="translate(90.046 66.259)" fill="none"/>
    </clipPath>
    <clipPath id="clip-path-9">
      <rect id="Rectangle_1455" data-name="Rectangle 1455" width="60.201" height="38.091" transform="translate(123.638 42.778)" fill="none"/>
    </clipPath>
    <clipPath id="clip-path-10">
      <rect id="Rectangle_1456" data-name="Rectangle 1456" width="97.37" height="88.63" transform="translate(90.046 52.745)" fill="none"/>
    </clipPath>
    <clipPath id="clip-path-11">
      <rect id="Rectangle_1457" data-name="Rectangle 1457" width="16.596" height="10.448" transform="translate(144 53.756)" fill="none"/>
    </clipPath>
    <clipPath id="clip-path-12">
      <rect id="Rectangle_1458" data-name="Rectangle 1458" width="4.754" height="1.999" transform="translate(126.299 123.14)" fill="none"/>
    </clipPath>
    <clipPath id="clip-path-13">
      <rect id="Rectangle_1459" data-name="Rectangle 1459" width="4.754" height="1.999" transform="translate(96.803 106.312)" fill="none"/>
    </clipPath>
    <clipPath id="clip-path-14">
      <rect id="Rectangle_1460" data-name="Rectangle 1460" width="4.754" height="1.999" transform="translate(109.658 78.87)" fill="none"/>
    </clipPath>
    <clipPath id="clip-path-15">
      <rect id="Rectangle_1461" data-name="Rectangle 1461" width="4.754" height="1.999" transform="translate(153.635 105.312)" fill="none"/>
    </clipPath>
    <clipPath id="clip-path-16">
      <rect id="Rectangle_1462" data-name="Rectangle 1462" width="4.754" height="1.999" transform="translate(144.149 79.87)" fill="none"/>
    </clipPath>
    <clipPath id="clip-path-17">
      <rect id="Rectangle_1463" data-name="Rectangle 1463" width="4.754" height="1.999" transform="translate(170.49 84.081)" fill="none"/>
    </clipPath>
    <clipPath id="clip-path-18">
      <rect id="Rectangle_1464" data-name="Rectangle 1464" width="4.754" height="1.999" transform="translate(121.262 90.078)" fill="none"/>
    </clipPath>
    <clipPath id="clip-path-19">
      <rect id="Rectangle_1465" data-name="Rectangle 1465" width="4.754" height="1.999" transform="translate(162.278 123.88)" fill="none"/>
    </clipPath>
    <clipPath id="clip-path-20">
      <rect id="Rectangle_1466" data-name="Rectangle 1466" width="4.754" height="1.998" transform="translate(121.262 54.612)" fill="none"/>
    </clipPath>
    <clipPath id="clip-path-21">
      <rect id="Rectangle_1467" data-name="Rectangle 1467" width="99.933" height="75.626" transform="translate(13.69 73.191)" fill="none"/>
    </clipPath>
    <clipPath id="clip-path-22">
      <rect id="Rectangle_1468" data-name="Rectangle 1468" width="103.263" height="60.778" transform="translate(10.356 73.191)" fill="none"/>
    </clipPath>
    <clipPath id="clip-path-23">
      <rect id="Rectangle_1469" data-name="Rectangle 1469" width="89.859" height="88.271" transform="translate(9.206 80.857)" fill="none"/>
    </clipPath>
    <clipPath id="clip-path-24">
      <rect id="Rectangle_1470" data-name="Rectangle 1470" width="96.001" height="77.627" transform="translate(9.206 91.501)" fill="none"/>
    </clipPath>
    <clipPath id="clip-path-25">
      <rect id="Rectangle_1471" data-name="Rectangle 1471" width="31.442" height="68.363" transform="translate(79.677 74.956)" fill="none"/>
    </clipPath>
    <clipPath id="clip-path-26">
      <rect id="Rectangle_1472" data-name="Rectangle 1472" width="82.887" height="93.223" transform="translate(9.206 75.905)" fill="none"/>
    </clipPath>
    <clipPath id="clip-path-27">
      <rect id="Rectangle_1473" data-name="Rectangle 1473" width="65.59" height="66.058" transform="translate(15.78 101.598)" fill="none"/>
    </clipPath>
    <clipPath id="clip-path-28">
      <rect id="Rectangle_1474" data-name="Rectangle 1474" width="29.958" height="59.951" transform="translate(28.534 76.5)" fill="none"/>
    </clipPath>
    <clipPath id="clip-path-29">
      <rect id="Rectangle_1475" data-name="Rectangle 1475" width="29.957" height="49.348" transform="translate(28.528 81.186)" fill="none"/>
    </clipPath>
    <clipPath id="clip-path-30">
      <rect id="Rectangle_1476" data-name="Rectangle 1476" width="27.136" height="65.434" transform="translate(28.512 64.793)" fill="none"/>
    </clipPath>
    <clipPath id="clip-path-31">
      <rect id="Rectangle_1477" data-name="Rectangle 1477" width="31.74" height="37.316" transform="translate(79.836 77.3)" fill="none"/>
    </clipPath>
    <clipPath id="clip-path-32">
      <rect id="Rectangle_1478" data-name="Rectangle 1478" width="53.092" height="95.338" transform="translate(60.531 73.188)" fill="none"/>
    </clipPath>
    <clipPath id="clip-path-33">
      <rect id="Rectangle_1479" data-name="Rectangle 1479" width="88.509" height="36.708" transform="translate(17.063 132.421)" fill="none"/>
    </clipPath>
    <clipPath id="clip-path-34">
      <rect id="Rectangle_1480" data-name="Rectangle 1480" width="25.414" height="23.66" transform="translate(84.049 76.069)" fill="none"/>
    </clipPath>
  </defs>
  <g id="Group_1927" data-name="Group 1927" clip-path="url(#clip-path)">
    <g id="Group_1926" data-name="Group 1926">
      <g id="Group_1925" data-name="Group 1925" clip-path="url(#clip-path)">
        <path id="Path_1336" data-name="Path 1336" d="M22.342,47.85C19.643,37.941,14.6,20.433,4.761,10.6S1.832-4.472,11.877,4.946s13.152,22.234,17.145,35.6-6.68,7.3-6.68,7.3" fill="#fdbe41"/>
        <path id="Path_1337" data-name="Path 1337" d="M13.674,31.864S29.882,97.027,99.386,92.882c76.254-4.549,97.477-62.105,97.174-72.977S189.663,6.44,185,13.07c-2.336,3.322-26.064,28.4-69.13,35.308s-74.006-6.81-84.423-17.4c-11.614-11.8-21.981-26.749-17.775.885" fill="#fdc940"/>
        <g id="Group_1831" data-name="Group 1831" opacity="0.3">
          <g id="Group_1830" data-name="Group 1830">
            <g id="Group_1829" data-name="Group 1829" clip-path="url(#clip-path-3)">
              <path id="Path_1338" data-name="Path 1338" d="M15.912,36.264c-4.2-27.634,6.164-12.692,17.778-.885,10.414,10.589,41.356,24.309,84.422,17.4s66.795-31.983,69.131-35.305c2.8-3.982,6.287-4.614,8.7-2.145-1.777-6.86-7.031-7.809-10.94-2.252-2.336,3.324-26.064,28.4-69.13,35.308s-74.006-6.807-84.423-17.4C19.835,19.177,9.468,4.236,13.674,31.869A85.466,85.466,0,0,0,21.143,49.9a81.035,81.035,0,0,1-5.231-13.633" fill="#fde8bd"/>
            </g>
          </g>
        </g>
        <g id="Group_1834" data-name="Group 1834" opacity="0.3">
          <g id="Group_1833" data-name="Group 1833">
            <g id="Group_1832" data-name="Group 1832" clip-path="url(#clip-path-4)">
              <path id="Path_1339" data-name="Path 1339" d="M99.386,91.521C29.882,95.668,13.674,30.5,13.674,30.5a73.823,73.823,0,0,1-.938-9.244,63.281,63.281,0,0,0,.938,10.606S29.882,97.028,99.386,92.883c76.254-4.549,97.477-62.105,97.174-72.978-.005-.151-.022-.283-.028-.429-.783,12.827-22.809,67.611-97.146,72.045" fill="#fff8ee"/>
            </g>
          </g>
        </g>
        <path id="Path_1340" data-name="Path 1340" d="M185,13.07a33.511,33.511,0,0,1-3.1,3.434,46.812,46.812,0,0,1,14.573,4.97,13.774,13.774,0,0,0,.082-1.569C196.254,9.032,189.663,6.44,185,13.07" fill="#752727"/>
        <g id="Group_1837" data-name="Group 1837" opacity="0.2" style="mix-blend-mode: multiply;isolation: isolate">
          <g id="Group_1836" data-name="Group 1836">
            <g id="Group_1835" data-name="Group 1835" clip-path="url(#clip-path-5)">
              <path id="Path_1341" data-name="Path 1341" d="M99.386,92.882c76.254-4.549,97.477-62.105,97.174-72.977a17.425,17.425,0,0,0-1.356-6.734C186.718,40.906,156.813,79.21,94.969,78.4c-73.946-.966-80.382-53.678-80.938-61.844-1.514,1.216-1.825,5.664-.357,15.307,0,0,16.208,65.163,85.712,61.018" fill="#fdc554"/>
            </g>
          </g>
        </g>
        <g id="Group_1840" data-name="Group 1840" opacity="0.2">
          <g id="Group_1839" data-name="Group 1839">
            <g id="Group_1838" data-name="Group 1838" clip-path="url(#clip-path-6)">
              <path id="Path_1342" data-name="Path 1342" d="M185,13.07c-2.336,3.322-26.064,28.4-69.13,35.308s-74.006-6.809-84.423-17.4C24.614,24.032,18.214,16,14.957,16.2c4.187,11.465,23.534,51.561,88.382,46.711,49.4-3.695,75.926-33.247,88.374-53.262-2.128-.666-4.613.435-6.711,3.417" fill="#fde4b1"/>
            </g>
          </g>
        </g>
        <path id="Path_1343" data-name="Path 1343" d="M188.641,92.077a49.3,49.3,0,1,1-49.3-49.3,49.3,49.3,0,0,1,49.3,49.3" fill="#fd8424"/>
        <g id="Group_1843" data-name="Group 1843" opacity="0.3">
          <g id="Group_1842" data-name="Group 1842">
            <g id="Group_1841" data-name="Group 1841" clip-path="url(#clip-path-7)">
              <path id="Path_1344" data-name="Path 1344" d="M168.084,102.044a49.131,49.131,0,0,1-48.959-54.9A49.281,49.281,0,1,0,188.3,97.675a49.074,49.074,0,0,1-20.218,4.369" fill="#fc7201"/>
            </g>
          </g>
        </g>
        <g id="Group_1846" data-name="Group 1846" opacity="0.2">
          <g id="Group_1845" data-name="Group 1845">
            <g id="Group_1844" data-name="Group 1844" clip-path="url(#clip-path-8)">
              <path id="Path_1345" data-name="Path 1345" d="M142.8,134.8A49.319,49.319,0,0,1,97.4,66.259a49.279,49.279,0,1,0,87.335,45.066A49.22,49.22,0,0,1,142.8,134.8" fill="#fdbe38"/>
            </g>
          </g>
        </g>
        <g id="Group_1849" data-name="Group 1849" opacity="0.1">
          <g id="Group_1848" data-name="Group 1848">
            <g id="Group_1847" data-name="Group 1847" clip-path="url(#clip-path-9)">
              <path id="Path_1346" data-name="Path 1346" d="M128.561,43.859a6.29,6.29,0,0,0-4.3,8.875,49.281,49.281,0,0,0,44.519,28.135,48.283,48.283,0,0,0,10.137-1.08,6.292,6.292,0,0,0,4.3-8.877A49.285,49.285,0,0,0,138.7,42.778a48.167,48.167,0,0,0-10.138,1.081" fill="#fdf625"/>
            </g>
          </g>
        </g>
        <g id="Group_1852" data-name="Group 1852" opacity="0.2">
          <g id="Group_1851" data-name="Group 1851">
            <g id="Group_1850" data-name="Group 1850" clip-path="url(#clip-path-10)">
              <path id="Path_1347" data-name="Path 1347" d="M157.782,112.852A49.192,49.192,0,0,1,109.71,52.746a49.268,49.268,0,1,0,77.707,50.137,49.023,49.023,0,0,1-29.635,9.969" fill="#fc7201"/>
            </g>
          </g>
        </g>
        <g id="Group_1855" data-name="Group 1855" opacity="0.3">
          <g id="Group_1854" data-name="Group 1854">
            <g id="Group_1853" data-name="Group 1853" clip-path="url(#clip-path-11)">
              <path id="Path_1348" data-name="Path 1348" d="M160.5,61.144c-.692,2.624-4.926,3.784-9.455,2.59s-7.64-4.291-6.948-6.917,4.926-3.785,9.455-2.591,7.64,4.292,6.948,6.918" fill="#fc7201"/>
            </g>
          </g>
        </g>
        <path id="Path_1349" data-name="Path 1349" d="M160.824,59.909c-.692,2.626-4.924,3.786-9.454,2.59s-7.641-4.289-6.947-6.916,4.924-3.784,9.454-2.59,7.641,4.292,6.947,6.916" fill="#806d4a"/>
        <g id="Group_1858" data-name="Group 1858" opacity="0.2">
          <g id="Group_1857" data-name="Group 1857">
            <g id="Group_1856" data-name="Group 1856" clip-path="url(#clip-path-12)">
              <path id="Path_1350" data-name="Path 1350" d="M131.053,124.138c0,.552-1.065,1-2.377,1s-2.377-.448-2.377-1,1.065-1,2.377-1,2.377.449,2.377,1" fill="#ab1a00"/>
            </g>
          </g>
        </g>
        <g id="Group_1861" data-name="Group 1861" opacity="0.2">
          <g id="Group_1860" data-name="Group 1860">
            <g id="Group_1859" data-name="Group 1859" clip-path="url(#clip-path-13)">
              <path id="Path_1351" data-name="Path 1351" d="M101.557,107.311c0,.552-1.065,1-2.377,1s-2.377-.448-2.377-1,1.065-1,2.377-1,2.377.447,2.377,1" fill="#ab1a00"/>
            </g>
          </g>
        </g>
        <g id="Group_1864" data-name="Group 1864" opacity="0.2">
          <g id="Group_1863" data-name="Group 1863">
            <g id="Group_1862" data-name="Group 1862" clip-path="url(#clip-path-14)">
              <path id="Path_1352" data-name="Path 1352" d="M114.412,79.87c0,.552-1.065,1-2.377,1s-2.377-.447-2.377-1,1.065-1,2.377-1,2.377.448,2.377,1" fill="#ab1a00"/>
            </g>
          </g>
        </g>
        <g id="Group_1867" data-name="Group 1867" opacity="0.2">
          <g id="Group_1866" data-name="Group 1866">
            <g id="Group_1865" data-name="Group 1865" clip-path="url(#clip-path-15)">
              <path id="Path_1353" data-name="Path 1353" d="M158.389,106.312c0,.552-1.065,1-2.377,1s-2.377-.447-2.377-1,1.063-1,2.377-1,2.377.448,2.377,1" fill="#ab1a00"/>
            </g>
          </g>
        </g>
        <g id="Group_1870" data-name="Group 1870" opacity="0.2">
          <g id="Group_1869" data-name="Group 1869">
            <g id="Group_1868" data-name="Group 1868" clip-path="url(#clip-path-16)">
              <path id="Path_1354" data-name="Path 1354" d="M148.9,80.869c0,.552-1.065,1-2.377,1s-2.377-.448-2.377-1,1.063-1,2.377-1,2.377.447,2.377,1" fill="#ab1a00"/>
            </g>
          </g>
        </g>
        <g id="Group_1873" data-name="Group 1873" opacity="0.2">
          <g id="Group_1872" data-name="Group 1872">
            <g id="Group_1871" data-name="Group 1871" clip-path="url(#clip-path-17)">
              <path id="Path_1355" data-name="Path 1355" d="M175.244,85.08c0,.552-1.065,1-2.377,1s-2.377-.448-2.377-1,1.065-1,2.377-1,2.377.449,2.377,1" fill="#ab1a00"/>
            </g>
          </g>
        </g>
        <g id="Group_1876" data-name="Group 1876" opacity="0.2">
          <g id="Group_1875" data-name="Group 1875">
            <g id="Group_1874" data-name="Group 1874" clip-path="url(#clip-path-18)">
              <path id="Path_1356" data-name="Path 1356" d="M126.016,91.078c0,.552-1.065,1-2.377,1s-2.377-.447-2.377-1,1.065-1,2.377-1,2.377.448,2.377,1" fill="#ab1a00"/>
            </g>
          </g>
        </g>
        <g id="Group_1879" data-name="Group 1879" opacity="0.2">
          <g id="Group_1878" data-name="Group 1878">
            <g id="Group_1877" data-name="Group 1877" clip-path="url(#clip-path-19)">
              <path id="Path_1357" data-name="Path 1357" d="M167.032,124.879c0,.552-1.063,1-2.377,1s-2.377-.448-2.377-1,1.065-1,2.377-1,2.377.447,2.377,1" fill="#ab1a00"/>
            </g>
          </g>
        </g>
        <g id="Group_1882" data-name="Group 1882" opacity="0.2">
          <g id="Group_1881" data-name="Group 1881">
            <g id="Group_1880" data-name="Group 1880" clip-path="url(#clip-path-20)">
              <path id="Path_1358" data-name="Path 1358" d="M126.016,55.61c0,.552-1.065,1-2.377,1s-2.377-.448-2.377-1,1.065-1,2.377-1,2.377.449,2.377,1" fill="#ab1a00"/>
            </g>
          </g>
        </g>
        <path id="Path_1359" data-name="Path 1359" d="M53.244,92.455a32.094,32.094,0,0,0-1.869-29.482c-3.019-5.2,4.075-7.569,8.333,0s2.526,28.441-.946,30.585-8.04,4.573-5.518-1.1" fill="#815757"/>
        <path id="Path_1360" data-name="Path 1360" d="M50.159,79.63C26.621,67.9,12.833,85.636,9.539,102.342,6.4,118.261,26.189,153.073,39.1,163.166c13.513,10.567,20.119,3.666,31.9,4.628,11.746.958,14.237,2.732,21.091-8.062,4.26-6.71,44.3-66.331,3.021-85.076-14.539-6.6-31.559,11.651-44.955,4.974" fill="#f33030"/>
        <g id="Group_1885" data-name="Group 1885" opacity="0.4">
          <g id="Group_1884" data-name="Group 1884">
            <g id="Group_1883" data-name="Group 1883" clip-path="url(#clip-path-21)">
              <path id="Path_1361" data-name="Path 1361" d="M49.569,80.695c13.393,6.675,30.415-11.578,44.952-4.977,31.746,14.417,15.4,52.993,4.217,73.1,11.177-19.784,28.681-59.492-3.623-74.162-14.539-6.6-31.56,11.651-44.957,4.975-17.929-8.937-30.182-.762-36.469,11.018,6.449-11.2,18.494-18.616,35.88-9.953" fill="#fdd4d4"/>
            </g>
          </g>
        </g>
        <g id="Group_1888" data-name="Group 1888" opacity="0.2">
          <g id="Group_1887" data-name="Group 1887">
            <g id="Group_1886" data-name="Group 1886" clip-path="url(#clip-path-22)">
              <path id="Path_1362" data-name="Path 1362" d="M47.149,87.3c13.4,6.675,30.416-11.578,44.955-4.974,22.406,10.175,20.841,32.385,14.055,51.647,8.934-20.654,14.411-47.754-11.045-59.314-14.539-6.6-31.559,11.651-44.955,4.974-21.953-10.941-35.415,3.751-39.8,19.331C16.535,86.84,28.9,78.2,47.149,87.3" fill="#fd8140"/>
            </g>
          </g>
        </g>
        <g id="Group_1891" data-name="Group 1891" opacity="0.2" style="mix-blend-mode: multiply;isolation: isolate">
          <g id="Group_1890" data-name="Group 1890">
            <g id="Group_1889" data-name="Group 1889" clip-path="url(#clip-path-23)">
              <path id="Path_1363" data-name="Path 1363" d="M39.1,163.165c13.513,10.568,20.119,3.667,31.9,4.628,11.747.959,14.237,2.732,21.092-8.062.956-1.509,3.727-5.707,6.972-11.5-10.035,8.426-21.979,8.353-25.342,5.549-5.676-4.73-16.082-.945-24.324-2.6-6.945-1.4-38.309-37.384-27.775-70.324-6.421,5.112-10.492,13.4-12.086,21.484C6.4,118.261,26.188,153.072,39.1,163.165" fill="#dd3838"/>
            </g>
          </g>
        </g>
        <g id="Group_1894" data-name="Group 1894" opacity="0.3">
          <g id="Group_1893" data-name="Group 1893">
            <g id="Group_1892" data-name="Group 1892" clip-path="url(#clip-path-24)">
              <path id="Path_1364" data-name="Path 1364" d="M93.243,157.248c-6.854,10.8-9.345,9.023-21.089,8.064-11.782-.963-18.388,5.938-31.9-4.628-12.909-10.1-32.7-44.9-29.561-60.826A43.278,43.278,0,0,1,13.263,91.5a42.809,42.809,0,0,0-3.724,10.841C6.4,118.261,26.189,153.073,39.1,163.166c13.513,10.568,20.119,3.667,31.9,4.628,11.746.959,14.237,2.732,21.091-8.062a182.93,182.93,0,0,0,13.114-23.615,186.632,186.632,0,0,1-11.964,21.131" fill="#fd4040"/>
            </g>
          </g>
        </g>
        <g id="Group_1897" data-name="Group 1897" opacity="0.2">
          <g id="Group_1896" data-name="Group 1896">
            <g id="Group_1895" data-name="Group 1895" clip-path="url(#clip-path-25)">
              <path id="Path_1365" data-name="Path 1365" d="M89.469,74.962c-16.248.382-9.205,15.6-.848,26.636s4.457,19.786,3.432,35.473,17.7-.238,18.954-24.752-8.138-37.672-21.538-37.357" fill="#fd7575"/>
            </g>
          </g>
        </g>
        <g id="Group_1900" data-name="Group 1900" opacity="0.2" style="mix-blend-mode: multiply;isolation: isolate">
          <g id="Group_1899" data-name="Group 1899">
            <g id="Group_1898" data-name="Group 1898" clip-path="url(#clip-path-26)">
              <path id="Path_1366" data-name="Path 1366" d="M69.388,163.556c-10.879,1.736-12.93,1.578-20.141-8.985-6.4-9.372-29.436-52.336-13.356-78.666C21.017,75.832,12.1,89.365,9.539,102.342,6.4,118.261,26.189,153.072,39.1,163.165c13.514,10.568,20.12,3.667,31.9,4.628,11.746.959,14.237,2.733,21.091-8.062-5.986,8-11.829,2.091-22.705,3.825" fill="#c03030"/>
            </g>
          </g>
        </g>
        <g id="Group_1903" data-name="Group 1903" opacity="0.2">
          <g id="Group_1902" data-name="Group 1902">
            <g id="Group_1901" data-name="Group 1901" clip-path="url(#clip-path-27)">
              <path id="Path_1367" data-name="Path 1367" d="M15.785,101.6c-.473,40.045,30.112,68.737,38.94,65.585s26.645.473,26.645.473-7.376-8.047-20.794-6.231-22.721-8.273-33.124-22.936S15.785,101.6,15.785,101.6" fill="#fda9a9"/>
            </g>
          </g>
        </g>
        <g id="Group_1906" data-name="Group 1906" opacity="0.2">
          <g id="Group_1905" data-name="Group 1905">
            <g id="Group_1904" data-name="Group 1904" clip-path="url(#clip-path-28)">
              <path id="Path_1368" data-name="Path 1368" d="M57.994,81.084a15.109,15.109,0,0,1-7.835-1.454,37.392,37.392,0,0,0-8.695-3.13c-24.643,17.183-6.488,59.952-6.488,59.952s8.119-.626,18.286-23.112a59.789,59.789,0,0,0,4.732-32.256" fill="#0a0a05"/>
            </g>
          </g>
        </g>
        <path id="Path_1369" data-name="Path 1369" d="M55.648,64.793c-44.72,9.143-20.672,65.74-20.672,65.74s8.12-.626,18.286-23.111a59.439,59.439,0,0,0,2.386-42.629" fill="#9bc031"/>
        <g id="Group_1909" data-name="Group 1909" opacity="0.4">
          <g id="Group_1908" data-name="Group 1908">
            <g id="Group_1907" data-name="Group 1907" clip-path="url(#clip-path-29)">
              <path id="Path_1370" data-name="Path 1370" d="M53.262,103.993C43.1,126.478,34.976,127.1,34.976,127.1S29.01,113.052,28.55,97.82c-.461,16.483,6.426,32.714,6.426,32.714s8.12-.626,18.286-23.112a59.169,59.169,0,0,0,5.2-26.236,58.887,58.887,0,0,1-5.2,22.807" fill="#cbff3f"/>
            </g>
          </g>
        </g>
        <g id="Group_1912" data-name="Group 1912" opacity="0.2">
          <g id="Group_1911" data-name="Group 1911">
            <g id="Group_1910" data-name="Group 1910" clip-path="url(#clip-path-30)">
              <path id="Path_1371" data-name="Path 1371" d="M55.648,64.793c-42.9,8.77-22.532,61.17-20.8,65.434,2.066-13.713,7.336-37.164,20.8-65.434" fill="#60751e"/>
            </g>
          </g>
        </g>
        <g id="Group_1915" data-name="Group 1915" opacity="0.2">
          <g id="Group_1914" data-name="Group 1914">
            <g id="Group_1913" data-name="Group 1913" clip-path="url(#clip-path-31)">
              <path id="Path_1372" data-name="Path 1372" d="M84.992,77.355c-10.1.986-4.089,11.358,7.1,15.229s13.384,17.114,13.114,20.661,9.484.562,5.342-13.029S94.135,76.463,84.992,77.355" fill="#fd7373"/>
            </g>
          </g>
        </g>
        <g id="Group_1918" data-name="Group 1918" opacity="0.1">
          <g id="Group_1917" data-name="Group 1917">
            <g id="Group_1916" data-name="Group 1916" clip-path="url(#clip-path-32)">
              <path id="Path_1373" data-name="Path 1373" d="M95.114,74.656c-10.661-4.841-22.652,3.656-33.575,5.915-3.354,6.173,1.885,9.914,12.419,29.227,13.121,24.05,8.118,47.015,4.5,58.667,5.856.365,8.546-.716,13.638-8.734,4.26-6.71,44.3-66.33,3.021-85.075" fill="#fd6b6b"/>
            </g>
          </g>
        </g>
        <g id="Group_1921" data-name="Group 1921" opacity="0.1" style="mix-blend-mode: multiply;isolation: isolate">
          <g id="Group_1920" data-name="Group 1920">
            <g id="Group_1919" data-name="Group 1919" clip-path="url(#clip-path-33)">
              <path id="Path_1374" data-name="Path 1374" d="M17.063,132.421c6.282,12.87,15.129,25.347,22.037,30.745,13.513,10.568,20.119,3.667,31.9,4.628,11.747.959,14.238,2.732,21.092-8.062a181.289,181.289,0,0,0,13.481-24.419c-34.14,15.46-66.456,16.734-88.511-2.892" fill="#ab1111"/>
            </g>
          </g>
        </g>
        <g id="Group_1924" data-name="Group 1924" opacity="0.1">
          <g id="Group_1923" data-name="Group 1923">
            <g id="Group_1922" data-name="Group 1922" clip-path="url(#clip-path-34)">
              <path id="Path_1375" data-name="Path 1375" d="M87.991,76.105c-8.277.619-2.209,5.787,6.149,7.835s12.139,13.876,12.3,15.452,4.885-2.522,2.206-8.988-11.886-14.956-20.652-14.3" fill="#fdc2be"/>
            </g>
          </g>
        </g>
      </g>
    </g>
  </g>
</svg>
