<svg id="Group_2052" data-name="Group 2052" xmlns="http://www.w3.org/2000/svg" xmlns:xlink="http://www.w3.org/1999/xlink" width="199.772" height="108.799" viewBox="0 0 199.772 108.799">
  <defs>
    <clipPath id="clip-path">
      <rect id="Rectangle_1524" data-name="Rectangle 1524" width="199.772" height="108.799" fill="none"/>
    </clipPath>
    <clipPath id="clip-path-2">
      <rect id="Rectangle_1523" data-name="Rectangle 1523" width="199.772" height="108.799" transform="translate(0 0)" fill="none"/>
    </clipPath>
    <clipPath id="clip-path-3">
      <rect id="Rectangle_1483" data-name="Rectangle 1483" width="152.195" height="91.858" transform="translate(0 16.938)" fill="none"/>
    </clipPath>
    <clipPath id="clip-path-4">
      <rect id="Rectangle_1484" data-name="Rectangle 1484" width="103.993" height="92.255" transform="translate(95.78 16.541)" fill="none"/>
    </clipPath>
    <clipPath id="clip-path-5">
      <rect id="Rectangle_1485" data-name="Rectangle 1485" width="167.172" height="84.615" transform="translate(0 24.184)" fill="none"/>
    </clipPath>
    <clipPath id="clip-path-6">
      <rect id="Rectangle_1486" data-name="Rectangle 1486" width="116.71" height="92.253" transform="translate(83.063 16.544)" fill="none"/>
    </clipPath>
    <clipPath id="clip-path-7">
      <rect id="Rectangle_1487" data-name="Rectangle 1487" width="166.122" height="88.959" transform="translate(0 19.838)" fill="none"/>
    </clipPath>
    <clipPath id="clip-path-8">
      <rect id="Rectangle_1488" data-name="Rectangle 1488" width="195.894" height="37.757" transform="translate(0 18.713)" fill="none"/>
    </clipPath>
    <clipPath id="clip-path-9">
      <rect id="Rectangle_1489" data-name="Rectangle 1489" width="185.734" height="43.573" transform="translate(14.038 0)" fill="none"/>
    </clipPath>
    <clipPath id="clip-path-10">
      <rect id="Rectangle_1490" data-name="Rectangle 1490" width="185.583" height="48.191" transform="translate(6.815 3.054)" fill="none"/>
    </clipPath>
    <clipPath id="clip-path-11">
      <rect id="Rectangle_1491" data-name="Rectangle 1491" width="185.05" height="43.745" transform="translate(7.628 2.403)" fill="none"/>
    </clipPath>
    <clipPath id="clip-path-12">
      <rect id="Rectangle_1492" data-name="Rectangle 1492" width="184.855" height="34.31" transform="translate(7.823 2.403)" fill="none"/>
    </clipPath>
    <clipPath id="clip-path-13">
      <rect id="Rectangle_1493" data-name="Rectangle 1493" width="192.018" height="39.806" transform="translate(0 16.664)" fill="none"/>
    </clipPath>
    <clipPath id="clip-path-14">
      <rect id="Rectangle_1494" data-name="Rectangle 1494" width="197.112" height="35.597" transform="translate(2.66 0)" fill="none"/>
    </clipPath>
    <clipPath id="clip-path-15">
      <rect id="Rectangle_1495" data-name="Rectangle 1495" width="63.986" height="8.31" transform="translate(22.06 13.998)" fill="none"/>
    </clipPath>
    <clipPath id="clip-path-16">
      <rect id="Rectangle_1496" data-name="Rectangle 1496" width="67.14" height="14.724" transform="translate(82.183 14.31)" fill="none"/>
    </clipPath>
    <clipPath id="clip-path-17">
      <rect id="Rectangle_1497" data-name="Rectangle 1497" width="60.851" height="15.927" transform="translate(78.772 24.565)" fill="none"/>
    </clipPath>
    <clipPath id="clip-path-18">
      <rect id="Rectangle_1498" data-name="Rectangle 1498" width="60.144" height="15.854" transform="translate(79.126 22.403)" fill="none"/>
    </clipPath>
    <clipPath id="clip-path-19">
      <rect id="Rectangle_1499" data-name="Rectangle 1499" width="56.17" height="6.778" transform="translate(70.833 15.457)" fill="none"/>
    </clipPath>
    <clipPath id="clip-path-20">
      <rect id="Rectangle_1500" data-name="Rectangle 1500" width="48.699" height="12.237" transform="translate(35.501 18.265)" fill="none"/>
    </clipPath>
    <clipPath id="clip-path-21">
      <rect id="Rectangle_1501" data-name="Rectangle 1501" width="50.99" height="7.198" transform="translate(12.57 28.048)" fill="none"/>
    </clipPath>
    <clipPath id="clip-path-22">
      <rect id="Rectangle_1502" data-name="Rectangle 1502" width="26.657" height="15.764" transform="translate(11.144 17.969)" fill="none"/>
    </clipPath>
    <clipPath id="clip-path-23">
      <rect id="Rectangle_1503" data-name="Rectangle 1503" width="46.005" height="10.932" transform="translate(47.831 22.728)" fill="none"/>
    </clipPath>
    <clipPath id="clip-path-24">
      <rect id="Rectangle_1504" data-name="Rectangle 1504" width="56.66" height="16.097" transform="translate(13.614 29.541)" fill="none"/>
    </clipPath>
    <clipPath id="clip-path-25">
      <rect id="Rectangle_1505" data-name="Rectangle 1505" width="45.897" height="9.895" transform="translate(49.105 20.385)" fill="none"/>
    </clipPath>
    <clipPath id="clip-path-26">
      <rect id="Rectangle_1506" data-name="Rectangle 1506" width="56.563" height="15.825" transform="translate(16.433 30.808)" fill="none"/>
    </clipPath>
    <clipPath id="clip-path-27">
      <rect id="Rectangle_1507" data-name="Rectangle 1507" width="63.195" height="18.012" transform="translate(37.373 32.528)" fill="none"/>
    </clipPath>
    <clipPath id="clip-path-28">
      <rect id="Rectangle_1508" data-name="Rectangle 1508" width="68.017" height="7.256" transform="translate(72.341 43.353)" fill="none"/>
    </clipPath>
    <clipPath id="clip-path-29">
      <rect id="Rectangle_1509" data-name="Rectangle 1509" width="44.802" height="13.081" transform="translate(118.358 11.87)" fill="none"/>
    </clipPath>
    <clipPath id="clip-path-30">
      <rect id="Rectangle_1510" data-name="Rectangle 1510" width="44.783" height="12.065" transform="translate(119.739 11.413)" fill="none"/>
    </clipPath>
    <clipPath id="clip-path-31">
      <rect id="Rectangle_1511" data-name="Rectangle 1511" width="41.698" height="9.78" transform="translate(132.712 19.295)" fill="none"/>
    </clipPath>
    <clipPath id="clip-path-32">
      <rect id="Rectangle_1512" data-name="Rectangle 1512" width="41.692" height="9.59" transform="translate(132.715 17.629)" fill="none"/>
    </clipPath>
    <clipPath id="clip-path-33">
      <rect id="Rectangle_1513" data-name="Rectangle 1513" width="37.853" height="6.808" transform="translate(96.826 25.63)" fill="none"/>
    </clipPath>
    <clipPath id="clip-path-34">
      <rect id="Rectangle_1514" data-name="Rectangle 1514" width="25.94" height="2.965" transform="translate(123.579 34.05)" fill="none"/>
    </clipPath>
    <clipPath id="clip-path-35">
      <rect id="Rectangle_1515" data-name="Rectangle 1515" width="40.833" height="3.169" transform="translate(91.076 42.913)" fill="none"/>
    </clipPath>
    <clipPath id="clip-path-36">
      <rect id="Rectangle_1516" data-name="Rectangle 1516" width="30.601" height="2.734" transform="translate(57.236 43.708)" fill="none"/>
    </clipPath>
    <clipPath id="clip-path-37">
      <rect id="Rectangle_1517" data-name="Rectangle 1517" width="27.417" height="6.203" transform="translate(47.945 33.657)" fill="none"/>
    </clipPath>
    <clipPath id="clip-path-38">
      <rect id="Rectangle_1518" data-name="Rectangle 1518" width="26.096" height="8.178" transform="translate(19.692 32.313)" fill="none"/>
    </clipPath>
    <clipPath id="clip-path-39">
      <rect id="Rectangle_1519" data-name="Rectangle 1519" width="30.486" height="4.126" transform="translate(61.05 22.729)" fill="none"/>
    </clipPath>
    <clipPath id="clip-path-40">
      <rect id="Rectangle_1520" data-name="Rectangle 1520" width="26.301" height="4.903" transform="translate(52.701 12.417)" fill="none"/>
    </clipPath>
    <clipPath id="clip-path-41">
      <rect id="Rectangle_1521" data-name="Rectangle 1521" width="32.602" height="2.959" transform="translate(85.686 12.554)" fill="none"/>
    </clipPath>
    <clipPath id="clip-path-42">
      <rect id="Rectangle_1522" data-name="Rectangle 1522" width="27.462" height="3.664" transform="translate(121.152 11.322)" fill="none"/>
    </clipPath>
  </defs>
  <g id="Group_2051" data-name="Group 2051" clip-path="url(#clip-path)">
    <g id="Group_2050" data-name="Group 2050">
      <g id="Group_2049" data-name="Group 2049" clip-path="url(#clip-path-2)">
        <path id="Path_1376" data-name="Path 1376" d="M199.772,28.237c0,15.591-6.35,80.563-99.886,80.563C11.2,108.8,0,43.828,0,28.237s199.772-15.594,199.772,0" fill="#5b656e"/>
        <g id="Group_1931" data-name="Group 1931" opacity="0.1" style="mix-blend-mode: multiply;isolation: isolate">
          <g id="Group_1930" data-name="Group 1930">
            <g id="Group_1929" data-name="Group 1929" clip-path="url(#clip-path-3)">
              <path id="Path_1377" data-name="Path 1377" d="M69.826,19.957c0-1.082,1-2.086,2.788-3.019C33.248,18.108,0,21.875,0,28.236,0,43.827,11.2,108.8,99.886,108.8c21.878,0,38.936-3.582,52.309-9.227C79.549,91.61,69.826,34.458,69.826,19.957" fill="#5b656e"/>
            </g>
          </g>
        </g>
        <g id="Group_1934" data-name="Group 1934" opacity="0.3">
          <g id="Group_1933" data-name="Group 1933">
            <g id="Group_1932" data-name="Group 1932" clip-path="url(#clip-path-4)">
              <path id="Path_1378" data-name="Path 1378" d="M95.78,16.55c48.535.208,95.777,4.1,95.777,11.687,0,15.351-6.217,78.519-95.675,80.468,1.335.031,2.631.091,4,.091,93.537,0,99.886-64.969,99.886-80.559,0-8.011-52.72-11.907-103.992-11.687" fill="#d1e8fd"/>
            </g>
          </g>
        </g>
        <g id="Group_1937" data-name="Group 1937" opacity="0.2">
          <g id="Group_1936" data-name="Group 1936">
            <g id="Group_1935" data-name="Group 1935" clip-path="url(#clip-path-5)">
              <path id="Path_1379" data-name="Path 1379" d="M104.741,105.728c-88.685,0-99.886-64.972-99.886-80.563a2.025,2.025,0,0,1,.3-.981C1.844,25.391,0,26.741,0,28.236,0,43.827,11.2,108.8,99.887,108.8c31.081,0,52.494-7.192,67.286-17.346-14.524,8.5-34.592,14.275-62.432,14.275" fill="#d1e8fd"/>
            </g>
          </g>
        </g>
        <g id="Group_1940" data-name="Group 1940" opacity="0.1">
          <g id="Group_1939" data-name="Group 1939">
            <g id="Group_1938" data-name="Group 1938" clip-path="url(#clip-path-6)">
              <path id="Path_1380" data-name="Path 1380" d="M83.063,16.693c43.743.779,83.059,4.626,83.059,11.544,0,14.572-5.565,72.258-82.646,79.746a162.31,162.31,0,0,0,16.41.814c93.537,0,99.886-64.969,99.886-80.56,0-8.679-61.841-12.523-116.709-11.544" fill="#d1e8fd"/>
            </g>
          </g>
        </g>
        <g id="Group_1943" data-name="Group 1943" opacity="0.1" style="mix-blend-mode: multiply;isolation: isolate">
          <g id="Group_1942" data-name="Group 1942">
            <g id="Group_1941" data-name="Group 1941" clip-path="url(#clip-path-7)">
              <path id="Path_1381" data-name="Path 1381" d="M127.518,96.724c-82.877,0-98.083-56.73-99.718-76.887C10.982,21.781,0,24.578,0,28.236,0,43.827,11.2,108.8,99.887,108.8c30.354,0,51.484-6.861,66.236-16.635a150.593,150.593,0,0,1-38.605,4.563" fill="#5b656e"/>
            </g>
          </g>
        </g>
        <path id="Path_1382" data-name="Path 1382" d="M199.772,28.237c0,15.591-44.72,28.234-99.886,28.234S0,43.828,0,28.237,44.72,0,99.886,0s99.886,12.642,99.886,28.236" fill="#6c7880"/>
        <g id="Group_1946" data-name="Group 1946" opacity="0.1">
          <g id="Group_1945" data-name="Group 1945">
            <g id="Group_1944" data-name="Group 1944" clip-path="url(#clip-path-8)">
              <path id="Path_1383" data-name="Path 1383" d="M101.847,54.732c-55.166,0-99.886-12.64-99.886-28.234,0-2.7,1.37-5.311,3.878-7.785C2.066,21.687,0,24.892,0,28.236,0,43.827,44.721,56.47,99.886,56.47c45.606,0,84.045-8.644,96.008-20.448-13.827,10.907-50.708,18.71-94.047,18.71" fill="#222629"/>
            </g>
          </g>
        </g>
        <g id="Group_1949" data-name="Group 1949" opacity="0.2">
          <g id="Group_1948" data-name="Group 1948">
            <g id="Group_1947" data-name="Group 1947" clip-path="url(#clip-path-9)">
              <path id="Path_1384" data-name="Path 1384" d="M99.886,0c-36.5,0-68.422,5.539-85.848,13.8C31.841,6.042,62.728.9,97.883.9c55.165,0,99.886,12.642,99.886,28.233,0,5.277-5.132,10.211-14.041,14.435,10.134-4.418,16.044-9.683,16.044-15.337C199.772,12.643,155.052,0,99.886,0" fill="#d2e9fd"/>
            </g>
          </g>
        </g>
        <g id="Group_1952" data-name="Group 1952" opacity="0.4">
          <g id="Group_1951" data-name="Group 1951">
            <g id="Group_1950" data-name="Group 1950" clip-path="url(#clip-path-10)">
              <path id="Path_1385" data-name="Path 1385" d="M192.4,27.149c0,13.308-41.544,24.095-92.791,24.095S6.815,40.457,6.815,27.149s41.544-24.1,92.792-24.1S192.4,13.841,192.4,27.149" fill="#d2e9fd"/>
            </g>
          </g>
        </g>
        <path id="Path_1386" data-name="Path 1386" d="M192.678,26.5c0,13.308-41.544,24.1-92.791,24.1S7.095,39.807,7.095,26.5,48.639,2.4,99.887,2.4s92.791,10.787,92.791,24.1" fill="#464e55"/>
        <g id="Group_1955" data-name="Group 1955" opacity="0.1">
          <g id="Group_1954" data-name="Group 1954">
            <g id="Group_1953" data-name="Group 1953" clip-path="url(#clip-path-11)">
              <path id="Path_1387" data-name="Path 1387" d="M99.886,2.4c-47.894,0-87.3,9.424-92.258,21.521A302.611,302.611,0,0,1,61.3,19.478c51.25,0,92.794,10.788,92.794,24.1a6.721,6.721,0,0,1-.537,2.574c23.665-4.363,39.121-11.535,39.121-19.649,0-13.307-41.544-24.095-92.791-24.095" fill="#121314"/>
            </g>
          </g>
        </g>
        <g id="Group_1958" data-name="Group 1958" opacity="0.1">
          <g id="Group_1957" data-name="Group 1957">
            <g id="Group_1956" data-name="Group 1956" clip-path="url(#clip-path-12)">
              <path id="Path_1388" data-name="Path 1388" d="M99.886,2.4C52.52,2.4,13.473,11.621,7.822,23.525c14.8-8.2,46.864-13.885,84.05-13.885,51.248,0,92.792,10.788,92.792,24.1a6.9,6.9,0,0,1-.731,2.976c5.6-3.1,8.744-6.561,8.744-10.214,0-13.307-41.544-24.095-92.791-24.095"/>
            </g>
          </g>
        </g>
        <g id="Group_1961" data-name="Group 1961" opacity="0.1">
          <g id="Group_1960" data-name="Group 1960">
            <g id="Group_1959" data-name="Group 1959" clip-path="url(#clip-path-13)">
              <path id="Path_1389" data-name="Path 1389" d="M100.914,55.817c-55.166,0-99.886-12.64-99.886-28.234,0-3.869,2.762-7.56,7.751-10.919C3.157,20.195,0,24.11,0,28.237,0,43.828,44.721,56.471,99.887,56.471c41.467,0,77.026-7.144,92.132-17.315-15.637,9.82-50.534,16.661-91.1,16.661" fill="#d2e9fd"/>
            </g>
          </g>
        </g>
        <g id="Group_1964" data-name="Group 1964" opacity="0.6">
          <g id="Group_1963" data-name="Group 1963">
            <g id="Group_1962" data-name="Group 1962" clip-path="url(#clip-path-14)">
              <path id="Path_1390" data-name="Path 1390" d="M99.886,0C52.588,0,13,9.3,2.66,21.772,14.121,9.752,52.939.9,99.093.9c55.165,0,99.886,12.64,99.886,28.233a10.153,10.153,0,0,1-2.66,6.462c2.237-2.346,3.453-4.815,3.453-7.361C199.772,12.643,155.052,0,99.886,0" fill="#d2e9fd"/>
            </g>
          </g>
        </g>
        <path id="Path_1391" data-name="Path 1391" d="M24.121,16.541c15.308-15.248,46.861-6.815,56.87-4.084s4.711,11.536-11.83,9.329-28.056-2.043-38.67,0-9.252-2.377-6.37-5.245" fill="#f8e08a"/>
        <g id="Group_1967" data-name="Group 1967" opacity="0.4" style="mix-blend-mode: multiply;isolation: isolate">
          <g id="Group_1966" data-name="Group 1966">
            <g id="Group_1965" data-name="Group 1965" clip-path="url(#clip-path-15)">
              <path id="Path_1392" data-name="Path 1392" d="M85.68,15.365a27.635,27.635,0,0,1-11.513.562c-16.541-2.206-28.056-2.043-38.673,0-6.8,1.31-8.658-.04-8.376-1.929a25.174,25.174,0,0,0-3,2.543c-2.883,2.868-4.247,7.289,6.369,5.245s22.13-2.206,38.671,0c12.42,1.656,18.5-2.9,16.518-6.421" fill="#f8e08a"/>
            </g>
          </g>
        </g>
        <path id="Path_1393" data-name="Path 1393" d="M65.563,27.914c-11.108,6.944,26.634,20.211,49.5,17.814s15.5-11.864,4.284-9.315-33.06-.876-37.512-5.671-10.106-6.681-16.272-2.828" fill="#f77b18"/>
        <path id="Path_1394" data-name="Path 1394" d="M144.33,14.3c-15.87,2.708-27.6,7.32-43.114,5.537s-22.194.69-17.628,3.6,22.631,8.533,42.329,3.71S156.234,12.269,144.33,14.3" fill="#89c515"/>
        <g id="Group_1970" data-name="Group 1970" opacity="0.3" style="mix-blend-mode: multiply;isolation: isolate">
          <g id="Group_1969" data-name="Group 1969">
            <g id="Group_1968" data-name="Group 1968" clip-path="url(#clip-path-16)">
              <path id="Path_1395" data-name="Path 1395" d="M148.7,14.31c-3.473,2.9-11.19,6.781-21.376,9.275-19.694,4.823-37.765-.8-42.329-3.71-.008-.006-.008-.008-.017-.014-3.119.756-3.7,2.109-1.392,3.579,4.563,2.913,22.631,8.533,42.329,3.71,16.05-3.93,26.064-11.33,22.785-12.84" fill="#89c515"/>
            </g>
          </g>
        </g>
        <path id="Path_1396" data-name="Path 1396" d="M172.783,24.829c-10.694,3.507-37.629-1.824-48.117-2.466s-7.794,8.345,16.8,10.742,38.12.06,39.709-4.632.394-6.524-8.393-3.644" fill="#fdfa59"/>
        <g id="Group_1973" data-name="Group 1973" opacity="0.3" style="mix-blend-mode: multiply;isolation: isolate">
          <g id="Group_1972" data-name="Group 1972">
            <g id="Group_1971" data-name="Group 1971" clip-path="url(#clip-path-17)">
              <path id="Path_1397" data-name="Path 1397" d="M126.37,27.82c-21.239,8.279-33.619.194-41.473-2.7S75.328,31.305,88.262,37.3,131,39.952,137.075,34.644s.788-11.305-10.7-6.824" fill="#d62929"/>
            </g>
          </g>
        </g>
        <path id="Path_1398" data-name="Path 1398" d="M126.69,25.585c-21.241,8.279-33.622.194-41.475-2.7s-9.567,6.182,3.364,12.178,42.734,2.654,48.813-2.654.788-11.305-10.7-6.824" fill="#d62929"/>
        <g id="Group_1976" data-name="Group 1976" opacity="0.2">
          <g id="Group_1975" data-name="Group 1975">
            <g id="Group_1974" data-name="Group 1974" clip-path="url(#clip-path-18)">
              <path id="Path_1399" data-name="Path 1399" d="M91.664,31.918c-6.55-3.037-9.321-6.852-9.458-9.515-4.977.28-4.64,7.554,6.373,12.66,12.931,5.993,42.734,2.654,48.813-2.654A8.391,8.391,0,0,0,139.27,30.1c-8.054,4.8-35.369,7.492-47.606,1.818" fill="#490e0e"/>
            </g>
          </g>
        </g>
        <path id="Path_1400" data-name="Path 1400" d="M117.483,12.035c-28.61-1.2-38.225.428-43.79,3.682s-3.585,4.914,11.1,4.386,29.07,2.771,37.891,2.021,2.965-9.747-5.2-10.089" fill="#f77b18"/>
        <g id="Group_1979" data-name="Group 1979" opacity="0.2" style="mix-blend-mode: multiply;isolation: isolate">
          <g id="Group_1978" data-name="Group 1978">
            <g id="Group_1977" data-name="Group 1977" clip-path="url(#clip-path-19)">
              <path id="Path_1401" data-name="Path 1401" d="M125.614,18.6c-8.821.751-23.211-2.554-37.891-2.023-8.322.3-12.449-.123-13.548-1.122-.159.088-.328.171-.482.26-5.568,3.256-3.584,4.914,11.1,4.383s29.07,2.774,37.891,2.024c3.559-.306,4.652-1.961,4.241-3.839a7.453,7.453,0,0,1-1.307.317" fill="#d62929"/>
            </g>
          </g>
        </g>
        <path id="Path_1402" data-name="Path 1402" d="M83.588,18.645c-23.131-21.53-42.2,3.813-46.736,8.373s3,4.763,13.1-.091a36.137,36.137,0,0,1,26.141-2.4c6.4,2,9.607-3.913,7.492-5.882" fill="#89c515"/>
        <g id="Group_1982" data-name="Group 1982" opacity="0.3" style="mix-blend-mode: multiply;isolation: isolate">
          <g id="Group_1981" data-name="Group 1981">
            <g id="Group_1980" data-name="Group 1980" clip-path="url(#clip-path-20)">
              <path id="Path_1403" data-name="Path 1403" d="M78.662,19.689a36.137,36.137,0,0,0-26.142,2.4c-6.84,3.288-12.4,4.2-13.938,3.071-.691.756-1.3,1.424-1.73,1.861-4.54,4.557,3,4.763,13.1-.092a36.137,36.137,0,0,1,26.141-2.4c5.748,1.793,8.882-2.768,7.937-5.148a6.858,6.858,0,0,1-5.371.311" fill="#89c515"/>
            </g>
          </g>
        </g>
        <path id="Path_1404" data-name="Path 1404" d="M63.827,24.78c-14.558-7.94-30.745-5.243-38.793-2.223s-8.136,7.731,1.284,6.016,19.013-2.914,29.29,1.284,14.3-1.761,8.219-5.077" fill="#f77b18"/>
        <path id="Path_1405" data-name="Path 1405" d="M56.892,27.029c-20.485-1.418-42.323,1.39-43.5,2.834S9.874,33.288,27,34.572s34.94.773,35.454-1.884,4.2-4.985-5.565-5.659" fill="#f8e08a"/>
        <g id="Group_1985" data-name="Group 1985" opacity="0.3" style="mix-blend-mode: multiply;isolation: isolate">
          <g id="Group_1984" data-name="Group 1984">
            <g id="Group_1983" data-name="Group 1983" clip-path="url(#clip-path-21)">
              <path id="Path_1406" data-name="Path 1406" d="M30.128,28.961c-3.687-.274-6.427-.585-8.516-.913-4.706.608-7.8,1.3-8.224,1.815C12.206,31.3,9.875,33.287,27,34.572s34.941.773,35.454-1.884c.322-1.655,1.872-3.185.625-4.264-5.45,1.422-19.346,1.559-32.954.537" fill="#f8e08a"/>
            </g>
          </g>
        </g>
        <g id="Group_1988" data-name="Group 1988" opacity="0.2" style="mix-blend-mode: multiply;isolation: isolate">
          <g id="Group_1987" data-name="Group 1987">
            <g id="Group_1986" data-name="Group 1986" clip-path="url(#clip-path-22)">
              <path id="Path_1407" data-name="Path 1407" d="M27.8,18.3c-13.627,2.931-17.443,8.819-16.527,11.912s4.786,5.628,9.732.911,9.4-6.2,14.769-8.208S34.923,16.769,27.8,18.3" fill="#d62929"/>
            </g>
          </g>
        </g>
        <path id="Path_1408" data-name="Path 1408" d="M25.34,16.781C11.71,19.715,7.9,25.6,8.81,28.7s4.786,5.628,9.732.91,9.4-6.2,14.772-8.207-.851-6.148-7.974-4.618" fill="#89c515"/>
        <g id="Group_1991" data-name="Group 1991" opacity="0.3" style="mix-blend-mode: multiply;isolation: isolate">
          <g id="Group_1990" data-name="Group 1990">
            <g id="Group_1989" data-name="Group 1989" clip-path="url(#clip-path-23)">
              <path id="Path_1409" data-name="Path 1409" d="M50.2,26.53c10.337-4.281,27.183-4.609,35.714-2.651s13.5,10.182-2.86,9.766-16.589-3.553-24.78-3.065S44.4,28.93,50.2,26.53" fill="#d62929"/>
            </g>
          </g>
        </g>
        <path id="Path_1410" data-name="Path 1410" d="M51.382,24.184c10.336-4.278,27.183-4.606,35.713-2.648s13.5,10.182-2.86,9.766-16.589-3.553-24.78-3.065-13.876-1.65-8.073-4.053" fill="#fdfa59"/>
        <g id="Group_1994" data-name="Group 1994" opacity="0.1">
          <g id="Group_1993" data-name="Group 1993">
            <g id="Group_1992" data-name="Group 1992" clip-path="url(#clip-path-24)">
              <path id="Path_1411" data-name="Path 1411" d="M20.876,29.595c-19.1-1.073,2.657,14.275,28.516,15.819s25.166-5.342,11.65-7.494-15.991.257-24.966-3.519-11-4.569-15.2-4.806" fill="#2c4005"/>
            </g>
          </g>
        </g>
        <g id="Group_1997" data-name="Group 1997" opacity="0.2">
          <g id="Group_1996" data-name="Group 1996">
            <g id="Group_1995" data-name="Group 1995" clip-path="url(#clip-path-25)">
              <path id="Path_1412" data-name="Path 1412" d="M87.1,21.536c-8.53-1.958-25.377-1.63-35.714,2.648-1.7.7-2.32,1.373-2.274,1.972.02-.008.026-.017.046-.025,10.339-4.281,27.183-4.609,35.716-2.652,4.934,1.131,8.65,4.358,7.757,6.8,5.322-2.2.925-7.266-5.531-8.744" fill="#fffffa"/>
            </g>
          </g>
        </g>
        <path id="Path_1413" data-name="Path 1413" d="M23.619,30.591C4.512,29.515,26.273,44.863,52.132,46.41s25.166-5.345,11.65-7.5S47.791,39.17,38.816,35.4s-11-4.572-15.2-4.806" fill="#89c515"/>
        <g id="Group_2000" data-name="Group 2000" opacity="0.4" style="mix-blend-mode: multiply;isolation: isolate">
          <g id="Group_1999" data-name="Group 1999">
            <g id="Group_1998" data-name="Group 1998" clip-path="url(#clip-path-26)">
              <path id="Path_1414" data-name="Path 1414" d="M54.481,43.756C36.687,42.694,20.836,35.094,18.9,30.808,9.341,32.7,29.061,45.032,52.132,46.41c16.028.956,21.838-1.327,20.734-3.713-3.017,1.053-8.9,1.627-18.385,1.059" fill="#89c515"/>
            </g>
          </g>
        </g>
        <g id="Group_2003" data-name="Group 2003" opacity="0.2" style="mix-blend-mode: multiply;isolation: isolate">
          <g id="Group_2002" data-name="Group 2002">
            <g id="Group_2001" data-name="Group 2001" clip-path="url(#clip-path-27)">
              <path id="Path_1415" data-name="Path 1415" d="M44.923,32.617c-15.031-1.2-5.713,10.18,11.261,10.177s14.9,7.394,33.1,7.734S101,43.878,88.6,41.573s-11.487-3.117-21.5-5.84-14.332-2.488-22.18-3.116" fill="#d62929"/>
            </g>
          </g>
        </g>
        <path id="Path_1416" data-name="Path 1416" d="M45.351,30.942c-15.031-1.2-5.713,10.18,11.261,10.177s14.9,7.394,33.1,7.734,11.718-6.65-.682-8.955-11.487-3.117-21.5-5.84S53.2,31.573,45.351,30.942" fill="#d62929"/>
        <path id="Path_1417" data-name="Path 1417" d="M169.6,33.491c-21.455.979-24.041,6.493-40.648,5.7s-11.6,8.845,2.617,8.006,30.936-1.436,38.559-6.824,11.681-7.435-.528-6.878" fill="#89c515"/>
        <path id="Path_1418" data-name="Path 1418" d="M155.226,26.878c-16.587,8.9-21.156,7.743-30.482,7.18s-12.506,5.292,2.9,5.891,28.83-.385,34.061-5.919,3.528-12.52-6.481-7.152" fill="#f77b18"/>
        <path id="Path_1419" data-name="Path 1419" d="M123.833,42.029c-35.146,2.16-49.358.873-50.882,1.544-1.19.522-2.3,4.737,13.873,6.381.239.026.485.049.733.072a168.887,168.887,0,0,0,17.4.568c34.917-.374,36.649-3.22,34.988-5.152s-16.107-3.413-16.107-3.413" fill="#fdfa59"/>
        <g id="Group_2006" data-name="Group 2006" opacity="0.3" style="mix-blend-mode: multiply;isolation: isolate">
          <g id="Group_2005" data-name="Group 2005">
            <g id="Group_2004" data-name="Group 2004" clip-path="url(#clip-path-28)">
              <path id="Path_1420" data-name="Path 1420" d="M137.612,44.375c-4.683.967-13.793,1.747-30.879,1.929a170.038,170.038,0,0,1-17.4-.568c-.248-.023-.494-.048-.733-.071a40.2,40.2,0,0,1-11.022-2.312,20.793,20.793,0,0,0-4.632.22c-1.19.522-2.3,4.738,13.873,6.381.24.026.485.049.733.072a168.613,168.613,0,0,0,17.4.568c34.917-.374,36.65-3.22,34.989-5.152a5.846,5.846,0,0,0-2.329-1.067" fill="#fdfa59"/>
            </g>
          </g>
        </g>
        <path id="Path_1421" data-name="Path 1421" d="M52.132,46.41C44.4,43.422,68.125,42.386,79.09,43.573s15.679,6.362,7.734,6.382-26.887-.531-34.692-3.545" fill="#d62929"/>
        <path id="Path_1422" data-name="Path 1422" d="M177.444,29.569c-16.5,6.515-23.876,13.833-7.54,11.558s20.428-11.664,20.277-14.4-1.516-1.593-12.737,2.842" fill="#d62929"/>
        <g id="Group_2009" data-name="Group 2009" opacity="0.3" style="mix-blend-mode: multiply;isolation: isolate">
          <g id="Group_2008" data-name="Group 2008">
            <g id="Group_2007" data-name="Group 2007" clip-path="url(#clip-path-29)">
              <path id="Path_1423" data-name="Path 1423" d="M118.434,15.725c2.029-4.963,10-5.154,28.125-.454s23.447,11.413,5.622,9.27-35.114-5.48-33.747-8.816" fill="#d62929"/>
            </g>
          </g>
        </g>
        <path id="Path_1424" data-name="Path 1424" d="M119.815,14.252c2.029-4.963,10-5.157,28.125-.457s23.448,11.416,5.622,9.273-35.114-5.48-33.747-8.816" fill="#d62929"/>
        <g id="Group_2012" data-name="Group 2012" opacity="0.2">
          <g id="Group_2011" data-name="Group 2011">
            <g id="Group_2010" data-name="Group 2010" clip-path="url(#clip-path-30)">
              <path id="Path_1425" data-name="Path 1425" d="M155.917,20.842c-17.825-2.143-35.111-5.479-33.747-8.816a5.146,5.146,0,0,1,.391-.613,5.3,5.3,0,0,0-2.746,2.839c-1.367,3.337,15.922,6.673,33.748,8.816,8.784,1.056,11.926-.043,10.707-1.986a34.349,34.349,0,0,1-8.353-.24" fill="#490e0e"/>
            </g>
          </g>
        </g>
        <g id="Group_2015" data-name="Group 2015" opacity="0.3" style="mix-blend-mode: multiply;isolation: isolate">
          <g id="Group_2014" data-name="Group 2014">
            <g id="Group_2013" data-name="Group 2013" clip-path="url(#clip-path-31)">
              <path id="Path_1426" data-name="Path 1426" d="M162.272,21.456c-21.025-2.965-25.822-3.142-28.773,1.136s2.472,6.224,15.169,5.217,22.494,2.349,25.16.9-4.281-6.222-11.556-7.249" fill="#d62929"/>
            </g>
          </g>
        </g>
        <path id="Path_1427" data-name="Path 1427" d="M162.272,19.6c-21.022-2.965-25.819-3.142-28.77,1.136s2.471,6.224,15.168,5.214,22.495,2.349,25.16.9-4.281-6.222-11.558-7.249" fill="#f77b18"/>
        <g id="Group_2018" data-name="Group 2018" opacity="0.2" style="mix-blend-mode: multiply;isolation: isolate">
          <g id="Group_2017" data-name="Group 2017">
            <g id="Group_2016" data-name="Group 2016" clip-path="url(#clip-path-32)">
              <path id="Path_1428" data-name="Path 1428" d="M173.18,24.124c-4.629-.548-11.284-1.561-19.05-.945-12.7,1.008-18.122-.939-15.171-5.217.091-.125.2-.214.294-.333-2.9.359-4.526,1.329-5.75,3.107-2.954,4.278,2.471,6.222,15.168,5.214s22.494,2.349,25.16.9c1.016-.553.619-1.6-.651-2.725" fill="#d62929"/>
            </g>
          </g>
        </g>
        <g id="Group_2021" data-name="Group 2021" opacity="0.3">
          <g id="Group_2020" data-name="Group 2020">
            <g id="Group_2019" data-name="Group 2019" clip-path="url(#clip-path-33)">
              <path id="Path_1429" data-name="Path 1429" d="M96.95,29.975c-2.086,3.231,22.92,3.088,31.6.7s8.048-6.553-1.258-4.5-12.446,4.609-19.467,3.7-10.873.088-10.873.088" fill="#fccaca"/>
            </g>
          </g>
        </g>
        <g id="Group_2024" data-name="Group 2024" opacity="0.4">
          <g id="Group_2023" data-name="Group 2023">
            <g id="Group_2022" data-name="Group 2022" clip-path="url(#clip-path-34)">
              <path id="Path_1430" data-name="Path 1430" d="M127,35.246c-4.03-.08-6.881,2.223,5.708,1.689s20.5-3.047,15.063-2.876-9.213,1.233-14.407,1.187-4.109.046-6.364,0" fill="#fdc37a"/>
            </g>
          </g>
        </g>
        <g id="Group_2027" data-name="Group 2027" opacity="0.3">
          <g id="Group_2026" data-name="Group 2026">
            <g id="Group_2025" data-name="Group 2025" clip-path="url(#clip-path-35)">
              <path id="Path_1431" data-name="Path 1431" d="M126.63,43.573a121.98,121.98,0,0,0-33.742,1.219c-2.739.459-4.68,1.715,12.161,1.144s28.262-1.2,26.721-1.487-5.14-.876-5.14-.876" fill="#ffffe9"/>
            </g>
          </g>
        </g>
        <g id="Group_2030" data-name="Group 2030" opacity="0.2">
          <g id="Group_2029" data-name="Group 2029">
            <g id="Group_2028" data-name="Group 2028" clip-path="url(#clip-path-36)">
              <path id="Path_1432" data-name="Path 1432" d="M57.549,43.936c-2.511,1.027,10.619,1.912,20.953,2.383s12.963-.477,3.425-1.821-24.378-.562-24.378-.562" fill="#ffffe9"/>
            </g>
          </g>
        </g>
        <g id="Group_2033" data-name="Group 2033" opacity="0.1">
          <g id="Group_2032" data-name="Group 2032">
            <g id="Group_2031" data-name="Group 2031" clip-path="url(#clip-path-37)">
              <path id="Path_1433" data-name="Path 1433" d="M48.813,33.659c-2.169.856-.514,2.9,7.708,2.908s17.127,3.328,18.5,3.294-1.315-2.914-9.249-4.615a88.814,88.814,0,0,0-16.958-1.587" fill="#ffffe9"/>
            </g>
          </g>
        </g>
        <g id="Group_2036" data-name="Group 2036" opacity="0.2">
          <g id="Group_2035" data-name="Group 2035">
            <g id="Group_2034" data-name="Group 2034" clip-path="url(#clip-path-38)">
              <path id="Path_1434" data-name="Path 1434" d="M27.061,32.8c-5.482-.742-13.4-1.107,0,2.443s18.727,5.245,18.727,5.245-10.562-5.4-12.389-5.919S27.061,32.8,27.061,32.8" fill="#ffffe9"/>
            </g>
          </g>
        </g>
        <g id="Group_2039" data-name="Group 2039" opacity="0.4">
          <g id="Group_2038" data-name="Group 2038">
            <g id="Group_2037" data-name="Group 2037" clip-path="url(#clip-path-39)">
              <path id="Path_1435" data-name="Path 1435" d="M63.314,23.3c-5.177,1.064-1.062,1.6,8.162,1.507a84.11,84.11,0,0,1,18.088,2.046s5.654-.6-2.183-2.483S67.9,22.36,63.314,23.3" fill="#ffffe9"/>
            </g>
          </g>
        </g>
        <g id="Group_2042" data-name="Group 2042" opacity="0.3">
          <g id="Group_2041" data-name="Group 2041">
            <g id="Group_2040" data-name="Group 2040" clip-path="url(#clip-path-40)">
              <path id="Path_1436" data-name="Path 1436" d="M57.663,13.162c-5.979,1.3-7.922,5.856,2.012,3.379s17.985.348,18.37.733,3.853-1.755-5.353-3.641-11.69-1.2-15.029-.471" fill="#ffffe9"/>
            </g>
          </g>
        </g>
        <g id="Group_2045" data-name="Group 2045" opacity="0.4">
          <g id="Group_2044" data-name="Group 2044">
            <g id="Group_2043" data-name="Group 2043" clip-path="url(#clip-path-41)">
              <path id="Path_1437" data-name="Path 1437" d="M86.513,12.574c-2.611,2.055.822,2.483,12.337,2.783s26.159.325,16.051-1.379-28.388-1.4-28.388-1.4" fill="#fdc37a"/>
            </g>
          </g>
        </g>
        <g id="Group_2048" data-name="Group 2048" opacity="0.3">
          <g id="Group_2047" data-name="Group 2047">
            <g id="Group_2046" data-name="Group 2046" clip-path="url(#clip-path-42)">
              <path id="Path_1438" data-name="Path 1438" d="M126.259,11.322c-7.551.83-6.592,2.957,1.972,2.269s20.383,1.4,20.383,1.4-2.415-1.113-9.344-2.431a65.721,65.721,0,0,0-12.754-1.147Z" fill="#fdc37a"/>
            </g>
          </g>
        </g>
      </g>
    </g>
  </g>
</svg>
