<svg id="Group_2113" data-name="Group 2113" xmlns="http://www.w3.org/2000/svg" xmlns:xlink="http://www.w3.org/1999/xlink" width="217.112" height="157.298" viewBox="0 0 217.112 157.298">
  <defs>
    <clipPath id="clip-path">
      <rect id="Rectangle_1548" data-name="Rectangle 1548" width="217.112" height="157.298" fill="none"/>
    </clipPath>
    <clipPath id="clip-path-3">
      <rect id="Rectangle_1528" data-name="Rectangle 1528" width="69.854" height="39.629" transform="translate(36.67 56.993)" fill="none"/>
    </clipPath>
    <clipPath id="clip-path-4">
      <rect id="Rectangle_1529" data-name="Rectangle 1529" width="98.94" height="85.941" transform="translate(70.504 71.357)" fill="none"/>
    </clipPath>
    <clipPath id="clip-path-5">
      <rect id="Rectangle_1530" data-name="Rectangle 1530" width="94.83" height="86.734" transform="translate(70.504 70.562)" fill="none"/>
    </clipPath>
    <clipPath id="clip-path-6">
      <rect id="Rectangle_1531" data-name="Rectangle 1531" width="116.196" height="59.171" transform="translate(71.062 98.111)" fill="none"/>
    </clipPath>
    <clipPath id="clip-path-7">
      <rect id="Rectangle_1532" data-name="Rectangle 1532" width="106.901" height="86.906" transform="translate(70.514 70.378)" fill="none"/>
    </clipPath>
    <clipPath id="clip-path-8">
      <rect id="Rectangle_1533" data-name="Rectangle 1533" width="111.177" height="68.835" transform="translate(72.951 70.817)" fill="none"/>
    </clipPath>
    <clipPath id="clip-path-9">
      <rect id="Rectangle_1534" data-name="Rectangle 1534" width="108.889" height="69.134" transform="translate(78.376 70.37)" fill="none"/>
    </clipPath>
    <clipPath id="clip-path-10">
      <rect id="Rectangle_1535" data-name="Rectangle 1535" width="66.128" height="15.981" transform="translate(111.572 140.117)" fill="none"/>
    </clipPath>
    <clipPath id="clip-path-11">
      <rect id="Rectangle_1536" data-name="Rectangle 1536" width="48.584" height="30.817" transform="translate(0 32.214)" fill="none"/>
    </clipPath>
    <clipPath id="clip-path-12">
      <rect id="Rectangle_1537" data-name="Rectangle 1537" width="48.972" height="30.835" transform="translate(1.177 31.984)" fill="none"/>
    </clipPath>
    <clipPath id="clip-path-13">
      <rect id="Rectangle_1538" data-name="Rectangle 1538" width="50.11" height="30.922" transform="translate(0.007 32.112)" fill="none"/>
    </clipPath>
    <clipPath id="clip-path-14">
      <rect id="Rectangle_1539" data-name="Rectangle 1539" width="49.896" height="28.988" transform="translate(0.007 34.046)" fill="none"/>
    </clipPath>
    <clipPath id="clip-path-15">
      <rect id="Rectangle_1540" data-name="Rectangle 1540" width="4.856" height="18.262" transform="translate(209.152 48.291)" fill="none"/>
    </clipPath>
    <clipPath id="clip-path-16">
      <rect id="Rectangle_1541" data-name="Rectangle 1541" width="2.994" height="10.153" transform="translate(210.919 50.878)" fill="none"/>
    </clipPath>
    <clipPath id="clip-path-17">
      <rect id="Rectangle_1542" data-name="Rectangle 1542" width="9.035" height="5.905" transform="translate(125.705 36.696)" fill="none"/>
    </clipPath>
    <clipPath id="clip-path-18">
      <rect id="Rectangle_1543" data-name="Rectangle 1543" width="4.801" height="3.665" transform="translate(126.64 37.423)" fill="none"/>
    </clipPath>
    <clipPath id="clip-path-19">
      <rect id="Rectangle_1544" data-name="Rectangle 1544" width="18.447" height="18.68" transform="translate(141.792 94.93)" fill="none"/>
    </clipPath>
    <clipPath id="clip-path-20">
      <rect id="Rectangle_1545" data-name="Rectangle 1545" width="9.424" height="11.283" transform="translate(149.496 99.059)" fill="none"/>
    </clipPath>
    <clipPath id="clip-path-21">
      <rect id="Rectangle_1546" data-name="Rectangle 1546" width="39.736" height="25.284" transform="translate(9.072 34.469)" fill="none"/>
    </clipPath>
  </defs>
  <g id="Group_2112" data-name="Group 2112" clip-path="url(#clip-path)">
    <rect id="Rectangle_1525" data-name="Rectangle 1525" width="5.502" height="79.455" transform="matrix(0.488, -0.873, 0.873, 0.488, 36.67, 57.87)" fill="#29313d"/>
    <rect id="Rectangle_1526" data-name="Rectangle 1526" width="2.084" height="79.452" transform="matrix(0.488, -0.873, 0.873, 0.488, 38.339, 54.889)" fill="#586d85"/>
    <rect id="Rectangle_1527" data-name="Rectangle 1527" width="1.954" height="79.451" transform="matrix(0.488, -0.873, 0.873, 0.488, 37.06, 57.176)" fill="#161b21"/>
    <g id="Group_2111" data-name="Group 2111">
      <g id="Group_2110" data-name="Group 2110" clip-path="url(#clip-path)">
        <g id="Group_2055" data-name="Group 2055" opacity="0.3">
          <g id="Group_2054" data-name="Group 2054">
            <g id="Group_2053" data-name="Group 2053" clip-path="url(#clip-path-3)">
              <path id="Path_1439" data-name="Path 1439" d="M106.035,96.622,36.67,57.869l.493-.877,69.361,38.75Z" fill="#a4cbfd"/>
            </g>
          </g>
        </g>
        <path id="Path_1440" data-name="Path 1440" d="M186.711,136.636c-4.361,7.8-36.088,35.231-80.187,10.6C63.278,123.07,69.144,81.194,73.506,73.393s33.235.027,64.5,17.492,53.066,37.947,48.708,45.751" fill="#29313d"/>
        <g id="Group_2058" data-name="Group 2058" opacity="0.8">
          <g id="Group_2057" data-name="Group 2057">
            <g id="Group_2056" data-name="Group 2056" clip-path="url(#clip-path-4)">
              <path id="Path_1441" data-name="Path 1441" d="M107.221,146.888C63.978,122.728,69.845,80.851,74.2,73.047a4.655,4.655,0,0,1,1.709-1.689A4.982,4.982,0,0,0,73.5,73.411c-4.361,7.8-10.228,49.68,33.018,73.837,26.56,14.841,48.624,10.786,62.93,3.515-14.323,7.043-36.1,10.717-62.223-3.875" fill="#a4cbfd"/>
            </g>
          </g>
        </g>
        <g id="Group_2061" data-name="Group 2061" opacity="0.2">
          <g id="Group_2060" data-name="Group 2060">
            <g id="Group_2059" data-name="Group 2059" clip-path="url(#clip-path-5)">
              <path id="Path_1442" data-name="Path 1442" d="M110.912,145.606C67.669,121.445,73.536,79.572,77.9,71.768a4.336,4.336,0,0,1,1.02-1.206c-2.672.356-4.548,1.281-5.422,2.848-4.361,7.8-10.228,49.681,33.019,73.838,24.136,13.487,44.554,11.363,58.82,5.408-13.932,4.578-32.668,5.1-54.422-7.05" fill="#98bae9"/>
            </g>
          </g>
        </g>
        <g id="Group_2064" data-name="Group 2064" opacity="0.2">
          <g id="Group_2063" data-name="Group 2063">
            <g id="Group_2062" data-name="Group 2062" clip-path="url(#clip-path-6)">
              <path id="Path_1443" data-name="Path 1443" d="M186.789,131.792a4.507,4.507,0,0,1-.53,1.954c-4.358,7.8-36.085,35.232-80.187,10.592C82.849,131.364,73.8,113.284,71.061,98.111c2.081,15.714,10.741,35.309,35.459,49.12,44.1,24.636,75.83-2.791,80.191-10.6a5.954,5.954,0,0,0,.078-4.844" fill="#a4cbfd"/>
            </g>
          </g>
        </g>
        <g id="Group_2067" data-name="Group 2067" opacity="0.2">
          <g id="Group_2066" data-name="Group 2066">
            <g id="Group_2065" data-name="Group 2065" clip-path="url(#clip-path-7)">
              <path id="Path_1444" data-name="Path 1444" d="M123.424,138.7C87.115,118.41,85.433,85.644,88.407,71.034c-7.8-1.335-13.209-.673-14.9,2.359-4.362,7.8-10.228,49.678,33.014,73.838,32.149,17.961,57.707,8.253,70.895-1.349-13.886,4.449-32.458,4.843-53.991-7.186"/>
            </g>
          </g>
        </g>
        <path id="Path_1445" data-name="Path 1445" d="M186.711,136.636c-4.361,7.8-33.236-.027-64.5-17.492s-53.07-37.95-48.708-45.751,33.235.027,64.5,17.492,53.066,37.947,48.708,45.751" fill="#4c5c73"/>
        <g id="Group_2070" data-name="Group 2070" opacity="0.3">
          <g id="Group_2069" data-name="Group 2069">
            <g id="Group_2068" data-name="Group 2068" clip-path="url(#clip-path-8)">
              <path id="Path_1446" data-name="Path 1446" d="M123.58,118.7C92.319,101.232,70.514,80.749,74.872,72.945a5.04,5.04,0,0,1,2.583-2.128,5.851,5.851,0,0,0-3.95,2.576c-4.361,7.8,17.447,28.287,48.709,45.752,27.529,15.377,53.2,23.28,61.913,19.622-9.813,2.438-34.337-5.428-60.547-20.071" fill="#060608"/>
            </g>
          </g>
        </g>
        <g id="Group_2073" data-name="Group 2073" opacity="0.5">
          <g id="Group_2072" data-name="Group 2072">
            <g id="Group_2071" data-name="Group 2071" clip-path="url(#clip-path-9)">
              <path id="Path_1447" data-name="Path 1447" d="M138,90.885c-25.418-14.2-49.259-22.033-59.626-20.269C89.084,69.3,112.428,77.085,137.3,90.977c31.258,17.464,53.066,37.947,48.708,45.751-.815,1.458-2.488,2.369-4.87,2.777,2.753-.34,4.684-1.271,5.577-2.869,4.358-7.8-17.45-28.287-48.708-45.751" fill="#a6cafd"/>
            </g>
          </g>
        </g>
        <path id="Path_1448" data-name="Path 1448" d="M184.39,134.556c-3.8,6.808-31.04-1.166-60.836-17.811S72.69,81.085,76.494,74.277s31.043,1.163,60.839,17.808,50.861,35.659,47.057,42.471" fill="#161b21"/>
        <g id="Group_2076" data-name="Group 2076" opacity="0.2">
          <g id="Group_2075" data-name="Group 2075">
            <g id="Group_2074" data-name="Group 2074" clip-path="url(#clip-path-10)">
              <path id="Path_1449" data-name="Path 1449" d="M164.383,140.117c-19.949,17.543-52.811,8.25-52.811,8.25s13.239,10.091,35.238,7.216,30.891-12.91,30.891-12.91Z" fill="#98bae9"/>
            </g>
          </g>
        </g>
        <path id="Path_1450" data-name="Path 1450" d="M49.868,61.653c-1.723,3.083-10.469,1.472-30.333-9.626S-1.113,37.214.605,34.134s5.3-4.361,25.16,6.737,25.823,17.7,24.1,20.782" fill="#904723"/>
        <g id="Group_2079" data-name="Group 2079" opacity="0.8">
          <g id="Group_2078" data-name="Group 2078">
            <g id="Group_2077" data-name="Group 2077" clip-path="url(#clip-path-11)">
              <path id="Path_1451" data-name="Path 1451" d="M20.021,51.864C.157,40.766-.628,37.051,1.092,33.968a3.9,3.9,0,0,1,1.774-1.754A3.768,3.768,0,0,0,.6,34.145c-1.72,3.083-.935,6.8,18.929,17.892,16.9,9.443,25.728,12,29.055,10.663-3.674.915-12.467-1.845-28.562-10.836" fill="#fd7f3e"/>
            </g>
          </g>
        </g>
        <g id="Group_2082" data-name="Group 2082" opacity="0.3">
          <g id="Group_2081" data-name="Group 2081">
            <g id="Group_2080" data-name="Group 2080" clip-path="url(#clip-path-12)">
              <path id="Path_1452" data-name="Path 1452" d="M24.216,41.938c19.864,11.1,25.819,17.7,24.1,20.785-.02.034-.054.061-.074.1a2.564,2.564,0,0,0,1.628-1.165c1.72-3.08-4.239-9.684-24.1-20.782C7.809,30.837,3.172,30.928,1.177,33.315c2.764-.962,8.576.543,23.039,8.623" fill="#fd7f3e"/>
            </g>
          </g>
        </g>
        <g id="Group_2085" data-name="Group 2085" opacity="0.3">
          <g id="Group_2084" data-name="Group 2084">
            <g id="Group_2083" data-name="Group 2083" clip-path="url(#clip-path-13)">
              <path id="Path_1453" data-name="Path 1453" d="M22.193,49.783C2.8,38.947,1.6,35.15,3.155,32.111A3.732,3.732,0,0,0,.606,34.134c-1.72,3.079-.935,6.794,18.929,17.892s28.61,12.709,30.333,9.627a2.293,2.293,0,0,0,.248-.932c-4,.493-12.675-2.42-27.923-10.938" fill="#170b06"/>
            </g>
          </g>
        </g>
        <g id="Group_2088" data-name="Group 2088" opacity="0.3">
          <g id="Group_2087" data-name="Group 2087">
            <g id="Group_2086" data-name="Group 2086" clip-path="url(#clip-path-14)">
              <path id="Path_1454" data-name="Path 1454" d="M.606,34.134c-1.72,3.08-.935,6.8,18.929,17.893s28.61,12.709,30.334,9.626c.017-.031.02-.068.034-.1L.664,34.046c-.017.03-.041.057-.058.088" fill="#170b06"/>
            </g>
          </g>
        </g>
        <path id="Path_1455" data-name="Path 1455" d="M196.31,115.5a25.747,25.747,0,0,0,3.913-10.034c.921-.779,1.815-1.577,2.671-2.414A45.918,45.918,0,0,0,216.9,65.311c-1.72-18.495-4.929-52.917-21.649-62.614-5.727-3.318-12.62-3.569-20.527-.779-6.706-2.155-14.147-2.06-21.981.435-15.259,4.861-24.317,15.524-27.9,27.033a23.542,23.542,0,0,0-4.018,1.173c-8.858,3.542-13.946,12.009-13.957,23.236-.006,7.886,3.855,13.548,10.874,15.948,5.938,2.033,13.321,1.387,19.058-1.162,6.024,4.3,14.178,6.859,24.674,6.135-.013.758-.027,1.512-.074,2.277a36.875,36.875,0,0,1-2.332,11.255,18.341,18.341,0,0,1-6.408-1.268c-14.87-5.83-28.49-5.918-36.519-.452-8.066.659-15.5,3.178-19.976,7.124a32.538,32.538,0,0,0-4.606,1.727q1.77,1.458,3.708,2.954a9.878,9.878,0,0,1,.867-1.3,12.969,12.969,0,0,1,1.132-1.217c.177-.048.347-.1.523-.143.021,1.329.993,3.273,3.134,6.367.252.363.554.707.823,1.063,3.1,2.183,6.407,4.389,9.9,6.588.017,0,.034.017.051.017a1.15,1.15,0,0,0,.377-.065,1.174,1.174,0,0,0,.738-1.489,25.167,25.167,0,0,1-1.408-7.494c.442.214.884.431,1.316.645l2.376,1.163c-.388,7.274,5.207,12.58,15.085,14.221a36.688,36.688,0,0,0,5.972.47,43.822,43.822,0,0,0,11.768-1.646c1.6.408,3.212.758,4.813,1.064a20.924,20.924,0,0,0,.822,2.284,136.639,136.639,0,0,1-22.005-.907,1.191,1.191,0,0,0-1.306,1.03.826.826,0,0,0,.014.18,56.5,56.5,0,0,1-6.9-2.522l.186.105c3.746,2.094,7.451,4.049,11.075,5.857a50.934,50.934,0,0,0,9.378.9,44,44,0,0,0,4.694-.248A42.272,42.272,0,0,0,155.284,122a16.225,16.225,0,0,0,6.23,5.421,40.081,40.081,0,0,1-11.852,2.019c1.692.69,3.348,1.343,4.959,1.944a45.226,45.226,0,0,0,10.238-2.668c.139.038.262.1.4.133a22.246,22.246,0,0,0,5.462.656c9.538,0,19.99-5.5,25.588-14.011m1.7-11.261a56.3,56.3,0,0,1-12.406,7.6,30.066,30.066,0,0,0,1.635-3.172,34.142,34.142,0,0,0,5.143-6.907,85.1,85.1,0,0,0,4.225-8.62,24.244,24.244,0,0,1,1.4,11.1m-28.881,10.724c5.19-4.181,10.034-10.313,13.705-19.225,1.043-2.533,2-4.966,2.913-7.356.03.085.061.163.091.252A25.3,25.3,0,0,1,185.495,107a27.515,27.515,0,0,1-16.37,7.957m13.14-2.182c-.149.207-.285.424-.438.628-.585.225-1.169.449-1.768.656.748-.394,1.486-.819,2.206-1.284M163.843,74.5c.411-.044.836-.108,1.257-.166a37.126,37.126,0,0,1,1.846,12.213,18.108,18.108,0,0,1-5.35,1.57,39.515,39.515,0,0,0,2.158-10.979c.055-.884.075-1.761.089-2.638m-.045-3.355c.147.31.3.616.435.935-.136.017-.275.038-.411.055-.01-.33-.01-.663-.024-.99m2.832.612a29.922,29.922,0,0,0-1.965-3.98,18.2,18.2,0,0,0,4-7.4,54.619,54.619,0,0,1,2.525,10.418c-1.342.34-2.715.656-4.17.911-.133.024-.259.031-.391.051M144.4,52.255c-.146-.1-.268-.231-.411-.337a15.41,15.41,0,0,0-4.476-4.615,21.8,21.8,0,0,1-3.991-12.149,22.7,22.7,0,0,1,9.072,3.168,29.618,29.618,0,0,1,7.155,6.159,14.176,14.176,0,0,0-3.069,4.79,18.106,18.106,0,0,0-1.115,4.694,17.747,17.747,0,0,1-3.165-1.71m2.852,4.1c-.5-.051-.989-.1-1.492-.126-.027-.173-.082-.346-.119-.52.523.259,1.071.439,1.611.646m-12.107,2.631a1.182,1.182,0,0,0,1.465.792c.544-.16,1.07-.258,1.6-.391a14.985,14.985,0,0,1-4.633,3.148A30.847,30.847,0,0,1,127.2,51.789a11.9,11.9,0,0,1,4.425-3.137,7.064,7.064,0,0,1,6.306.486,22.243,22.243,0,0,0,4.255,4.337,8.692,8.692,0,0,1,1.176,2.76c-.187.01-.367,0-.557.017a1.094,1.094,0,0,0-.262-.282,1.173,1.173,0,0,0-1.642.286c-.064.091-.136.166-.2.258a32.789,32.789,0,0,0-4.755,1.006,1.183,1.183,0,0,0-.795,1.465m52.913,28.878c-.343-.992-.694-1.906-1.04-2.865q.918-2.5,1.733-4.884c.714.982,1.418,1.961,2.206,2.987a40.43,40.43,0,0,1,4.375,7.06,83.657,83.657,0,0,1-5,10.425c-.354.619-.745,1.163-1.119,1.737a27.991,27.991,0,0,0-1.152-14.46m-9.079-31.907c.881.208,1.754.419,2.665.609.33.068.629.109.945.17a25.6,25.6,0,0,1-.252,8.4,43.939,43.939,0,0,1-3.358-9.175m2.152,13.661c-.068.194-.133.391-.2.585-.062-.129-.123-.252-.184-.381.133-.064.255-.136.388-.2M172.109,54.08c1.38.432,2.808.847,4.286,1.234a45.564,45.564,0,0,0,4.283,11.829c-.326.177-.619.377-.955.547a135.746,135.746,0,0,0-7.614-13.61m7.58,19.049a32,32,0,0,1-5.67,8.256,67.9,67.9,0,0,0-.363-8.814,44.547,44.547,0,0,0,4.962-1.757c.357.758.711,1.523,1.071,2.315M159.723,40.423c-.636.119-1.234.268-1.805.435-1.183-1.033-2.376-2.016-3.593-2.92-.843-2.519.024-6.2,5.024-9.769l.017-.01a11.576,11.576,0,0,0,3.562,7.543c3.729,3.378,9.378,3.827,14.769,1.549a12.957,12.957,0,0,1-2.206,5.425,21.563,21.563,0,0,0-5.34-1.9,1.135,1.135,0,0,0-.146-.534,1.167,1.167,0,0,0-1.608-.421c-.333.193-.649.319-.975.486a27.345,27.345,0,0,0-6.316-.082,1.166,1.166,0,0,0-1.383.194m.727,6.1a37.827,37.827,0,0,1-3.932-2.624c.17-.082.336-.17.516-.248.248.1.5.183.769.262.89.832,1.77,1.692,2.634,2.6a.036.036,0,0,0,.013.01m-5.836-4.256c-.017.011-.031.017-.048.028a23.172,23.172,0,0,1-3.358-3.7c.4.269.785.558,1.176.843a7.212,7.212,0,0,0,.507.942,8,8,0,0,0,1.723,1.889m30.4,14.831a23.659,23.659,0,0,0,5.714.017,21.8,21.8,0,0,1-5.9,7.24,27.771,27.771,0,0,0,.187-7.257m7.043,2.607A137.939,137.939,0,0,1,188.02,74.93c-1.57-2.356-2.91-4.562-4.041-6.628.037-.139.078-.279.115-.422a25.349,25.349,0,0,0,7.961-8.174m-.2-5.221a19.338,19.338,0,0,1-7.244.183c-.122-.554-.258-1.1-.425-1.635a17.274,17.274,0,0,0-5.03-7.848,11.664,11.664,0,0,1,1.088-2.267c2.369-3.76,6.665-5.544,10.669-5.734,2.281,5.9,2.7,12.029.942,17.3m-9.786-.238q-1.815-.383-3.556-.809a19.729,19.729,0,0,1-.013-5.687,15.186,15.186,0,0,1,3.436,5.983c.055.166.085.343.133.513M179.437,40.12a12.551,12.551,0,0,0,.684-4.109,22.106,22.106,0,0,0,2.964-2.06,1.177,1.177,0,0,0-1.51-1.805,18.649,18.649,0,0,1-1.73,1.248,12.048,12.048,0,0,0-4.724-6.931c5.394.245,9.524,1.652,12.495,4.269a35.039,35.039,0,0,1,2.294,4.174,15.516,15.516,0,0,0-10.473,5.214m-6.526-16.047a1.175,1.175,0,0,0-1.023.616,14.791,14.791,0,0,0-10.071-.344,28.788,28.788,0,0,1,3.351-9.13,33.753,33.753,0,0,1,18.573,10.544,29.007,29.007,0,0,0-10.83-1.686m-1.057,3.172a10.051,10.051,0,0,1,5.836,7.379c-4.82,2.332-10,2.22-13.181-.666a9.223,9.223,0,0,1-2.883-7.029,12.4,12.4,0,0,1,10.228.316m4.256,18.514c.1.072.214.14.316.214a19.9,19.9,0,0,0-.4,6.8q-2.9-.8-5.524-1.727a32.926,32.926,0,0,0,5.609-5.289m6.873,25.626c1.179,2,2.563,4.143,4.1,6.37-.421,1.251-.86,2.518-1.322,3.817-1.156-3.012-2.328-5.792-3.508-8.437q.389-.867.728-1.75M192.83,81.67c-1.132-1.478-2.179-2.909-3.155-4.293a130.189,130.189,0,0,0,5.371-21.5,10.923,10.923,0,0,0,5.574-6.431,15.644,15.644,0,0,0,.67-2.777,91.436,91.436,0,0,1-4.851,40.472,45.79,45.79,0,0,0-3.609-5.469m5.567-33a8.722,8.722,0,0,1-2.991,4.17c.626-6.135.289-11.258-.992-15.4.01,0,.023,0,.034.006a1.177,1.177,0,1,0,.482-2.3c-.462-.1-.961-.15-1.454-.2a18.059,18.059,0,0,0-1.506-2.78,16.43,16.43,0,0,0-2.488-2.893,40.714,40.714,0,0,0-3.58-4.619A36.4,36.4,0,0,0,166.429,13.03c.4-.653.83-1.312,1.282-1.978,2.845-4.2,6.641-5.13,11.278-2.8,11,5.54,23.545,28.586,19.408,40.415M165.76,9.729q-1,1.479-1.822,2.866a31.82,31.82,0,0,0-3.9-.252,62.592,62.592,0,0,1,7.189-4.449,14.66,14.66,0,0,0-1.465,1.835M162.7,14.845A27.24,27.24,0,0,0,159.356,25.4a13.778,13.778,0,0,0-1.377.853C153.55,29.42,151.755,33,151.7,36.089q-1.31-.867-2.638-1.635a13.793,13.793,0,0,1-.693-2.92c-.625-5.659,2.369-11.4,8.47-16.682a29.154,29.154,0,0,1,2.978-.167c.962,0,1.924.065,2.879.16M146.031,31.793c.045.387.136.768.2,1.148a40.446,40.446,0,0,0-9.952-3.46c1.992-6.839,7.723-11.72,16.4-13.878-4.912,5.136-7.267,10.666-6.656,16.19m1.081,4.262c.215.544.466,1.081.738,1.611-.663-.479-1.336-.938-2.033-1.356a25.076,25.076,0,0,0-10.183-3.515c.037-.35.064-.7.122-1.05a39.237,39.237,0,0,1,11.356,4.31m3.763,14.069a11.942,11.942,0,0,1,2.342-3.794,38.9,38.9,0,0,1,4.738,8.512,17.06,17.06,0,0,1-8.055-.075,15.66,15.66,0,0,1,.975-4.643m7.917,6.907a47.657,47.657,0,0,1,1.478,5.193,21.774,21.774,0,0,0-7.576-4.67,20.433,20.433,0,0,0,6.1-.523m.01,7.029a22.115,22.115,0,0,1,2.226,2.512c.065.479.136.955.187,1.441-.078.075-.146.15-.224.224-1.934,1.805-3.892,2.06-5.809.755-2.427-1.642-4.381-5.5-5.065-9.772a19.489,19.489,0,0,1,8.685,4.84m1.424-9.851a42.53,42.53,0,0,0-3.834-7.413c.887.612,1.842,1.2,2.835,1.778-.082.058-.17.092-.252.153a1.178,1.178,0,1,0,1.4,1.9,2.787,2.787,0,0,1,1.594-.574c.677.34,1.356.676,2.074,1,.234.35.469.7.693,1.061a25.138,25.138,0,0,1-4.507,2.1m1.917-9.32c-.167-.177-.343-.336-.513-.51.1,0,.2-.017.3-.02,1.03,1.142,2.376,2.746,3.96,4.854a6.8,6.8,0,0,0-.547-.408,34.822,34.822,0,0,0-3.2-3.916m2.515-.975a18.04,18.04,0,0,0,3.246-1.183c.045.007.085.01.133.017a20.459,20.459,0,0,1,6.023,1.822,31.4,31.4,0,0,1-5.17,4.755c-1.628-2.26-3.052-4.035-4.232-5.411M168.5,52.85a128.291,128.291,0,0,1,9.075,15.785,41.644,41.644,0,0,1-4.218,1.526A53.744,53.744,0,0,0,168.9,54.92a11.4,11.4,0,0,0-.585-2.135c.058.021.119.041.177.065m2.988,20.306a64.874,64.874,0,0,1,.244,10.326,23.411,23.411,0,0,1-2.437,1.778,39.161,39.161,0,0,0-1.842-11.244c1.424-.248,2.753-.541,4.035-.86m2.372,11.618c.2-.177.411-.32.612-.507a33.2,33.2,0,0,0,6.431-8.382q1.83,4.252,3.62,9.123-1.76,4.716-3.865,9.83c-4.2,10.208-10.007,16.567-16.047,20.466a50.738,50.738,0,0,1-6.294-.326,13.62,13.62,0,0,0,5.767-3.382c5.317-5.079,8.943-15.374,9.776-26.822M194.071,4.736c15.669,9.086,18.8,42.719,20.485,60.789a43.59,43.59,0,0,1-13.307,35.84c-.228.224-.482.424-.717.645A27.959,27.959,0,0,0,197.9,90.029c10.266-26.659,7.89-58.3-6.886-76.557A35.73,35.73,0,0,0,178.295,3.3c6.054-1.588,11.35-1.136,15.776,1.434M174.733,4.43c.275.1.551.18.823.286a10.029,10.029,0,0,0-1.452-.065c.214-.085.418-.139.629-.221M153.455,4.6a34.406,34.406,0,0,1,17.6-1.207c-.034.017-.068.027-.1.044a65.816,65.816,0,0,0-15.048,9.157c-1.026.129-2.049.293-3.073.527C139.733,16.1,135.352,23.839,133.9,29.1a28.872,28.872,0,0,0-6.418-.112C131.086,18.574,139.526,9.033,153.455,4.6M126.732,31.439a25.961,25.961,0,0,1,6.7-.058c-.065.412-.1.823-.14,1.238a22.965,22.965,0,0,0-7.114,1.077c.156-.755.347-1.506.551-2.257m-1.016,4.922a20.877,20.877,0,0,1,7.457-1.387,24.143,24.143,0,0,0,2.746,10.918,9.859,9.859,0,0,0-5.139.561,13.778,13.778,0,0,0-4.334,2.828c-.02-.085-.054-.17-.075-.255a34.765,34.765,0,0,1-.655-12.665m-3.784,22.512c.33,2.206,1.938,3.572,4.4,3.746a1.214,1.214,0,0,0,1.258-1.091A1.176,1.176,0,0,0,126.5,60.27c-1.795-.126-2.138-1.054-2.244-1.744a7.436,7.436,0,0,1,1.286-4.473,33.29,33.29,0,0,0,5.523,9.222,11.235,11.235,0,0,1-4.45-.106,15.435,15.435,0,0,1-11.148-12.321c-.48-2.991-.283-8.617,6.41-12.672.452-.275.921-.483,1.384-.721a36.819,36.819,0,0,0,.822,12.132c.14.574.326,1.149.5,1.723-1.876,2.437-3,5.255-2.655,7.563m-3.426,8.644c-4.235-1.448-9.283-5-9.276-13.722.007-10.211,4.555-17.886,12.475-21.051a21.2,21.2,0,0,1,2.457-.8c-.214.887-.381,1.778-.527,2.668a25.543,25.543,0,0,0-2.974,1.543c-5.748,3.484-8.488,8.974-7.515,15.058,1.077,6.764,6.522,12.753,12.943,14.242a13.7,13.7,0,0,0,6.842-.163c.561.554,1.122,1.108,1.734,1.628a25.009,25.009,0,0,1-16.159.592M135.4,64.342a19.445,19.445,0,0,0,6.6-5.636c.489-.054.982-.112,1.465-.139a7.369,7.369,0,0,1-1.53,3.416,14.612,14.612,0,0,1-4.8,3.827q-.9-.708-1.734-1.468m3.841,2.981a16.246,16.246,0,0,0,4.555-3.9,9.507,9.507,0,0,0,2.019-4.878c.615.031,1.21.116,1.808.194.639,5.289,3.117,10.092,6.238,12.206a6.4,6.4,0,0,0,7.58-.068c.023.489.023.989.034,1.485-9.334.66-16.683-1.431-22.234-5.037m21.8-10.931a26.772,26.772,0,0,0,4.868-2.251c.248.463.492.928.724,1.4.421,2.79-.289,6.4-3.3,10.18-.024-.034-.045-.068-.065-.1a51,51,0,0,0-2.223-9.231m-9.239,32.78a21.108,21.108,0,0,0,6.231,1.424,21.543,21.543,0,0,1-7.95,8.862c-3.406-5.174-8.845-9.021-16.051-11.2a47,47,0,0,0-12.321-1.886c7.59-2.638,18.549-1.73,30.091,2.8m-36.257.812a14.47,14.47,0,0,1,1.359-1.142,46.565,46.565,0,0,1,16.448,1.673c6.547,1.978,11.476,5.455,14.6,10.1a20.748,20.748,0,0,1-5.83,1.757,19.633,19.633,0,0,1-2.467.184,49.3,49.3,0,0,0-12.944-7.193,1.134,1.134,0,0,0-.513-.2,53.026,53.026,0,0,0-12.543-2.866,13.327,13.327,0,0,1,1.887-2.308m19.041,11.924a12.609,12.609,0,0,1-5.411-2.936,46.821,46.821,0,0,1,5.411,2.936m-31.727-1.213c-2.066-2.984-2.579-4.273-2.7-4.786,1.312.048,4.986,1.713,8.926,3.617a26.254,26.254,0,0,0,1.5,9.378c.017.054.071.081.1.129a41.617,41.617,0,0,1-7.825-8.338m1.173-6.05a47.479,47.479,0,0,1,5.942-.157,16.753,16.753,0,0,0-.643,2.543c-2.128-1.02-3.871-1.815-5.3-2.386m6.982-2.54a49.02,49.02,0,0,0-8.63.283,37.792,37.792,0,0,1,10.649-3.107,15.088,15.088,0,0,0-2.019,2.824m19.561,22.261c-8.049-1.339-12.787-5.316-13.076-10.734A184.45,184.45,0,0,0,143.292,114.2a38.7,38.7,0,0,1-12.713.167M148.1,113.05c-12.614-3.252-25.177-9.371-34.327-13.861-.786-.387-1.52-.744-2.23-1.091a14.114,14.114,0,0,1,.9-3.46A51.755,51.755,0,0,1,125.28,97.4c1.975,4.47,7.261,7.329,13.539,7.485a42.7,42.7,0,0,1,4.31,3.868,27.412,27.412,0,0,0,5.091,4.262c-.04.014-.085.024-.125.034m3.161-1.1a21.374,21.374,0,0,1-6.424-4.827c-.826-.86-1.7-1.635-2.563-2.413.061-.007.119,0,.183-.014a22.394,22.394,0,0,0,6.693-2.053,23.136,23.136,0,0,1,2.587,8.783c.01.1.034.19.044.292-.177.075-.343.157-.52.232m.03-10.476a24.691,24.691,0,0,0,9.287-10.847,19.861,19.861,0,0,0,6.271-1.434,45.508,45.508,0,0,1-1.251,7.862c-1.574,6.268-6.033,10.731-11.584,13.617a25.613,25.613,0,0,0-2.723-9.2m3.4,11.427c6.285-3.161,11.4-8.154,13.192-15.272a47.213,47.213,0,0,0,1.38-9.558,24.473,24.473,0,0,0,2.216-1.407c-1.046,9.966-4.33,18.749-9.017,23.229a9.662,9.662,0,0,1-7.771,3.008m1.4,5.8a17,17,0,0,1-.738-1.679c1.707.262,3.41.472,5.092.588-.785.367-1.567.666-2.345.969-.66.054-1.34.078-2.009.122m8.7,7.515a14.275,14.275,0,0,1-7.145-4.942c.4-.136.795-.265,1.2-.418a92.4,92.4,0,0,0,19.834-3.848,43.107,43.107,0,0,1-11.819,8.294c-.676.326-1.37.622-2.066.914m3.861.806a42.8,42.8,0,0,0,14.422-11.547,61.8,61.8,0,0,0,14.242-7.726,23.49,23.49,0,0,1-2.96,6.452c-5.507,8.375-16.516,13.695-25.7,12.821" fill="#fdc66e"/>
        <path id="Path_1456" data-name="Path 1456" d="M174.06,67.69a4.29,4.29,0,0,1-.6-3.334,1.626,1.626,0,0,1,2.93,0c.714,1.577.819,3.857.031,3.711s-2.026.2-2.366-.377" fill="#87bb3d"/>
        <path id="Path_1457" data-name="Path 1457" d="M129.95,104.93A4.3,4.3,0,0,1,132.632,107a1.626,1.626,0,0,1-2.169,1.968c-1.59-.69-3.2-2.307-2.518-2.729s1.363-1.509,2-1.312" fill="#87bb3d"/>
        <path id="Path_1458" data-name="Path 1458" d="M134.141,48.944a4.323,4.323,0,0,1-2.332,2.458,1.626,1.626,0,0,1-1.74-2.356c.847-1.513,2.617-2.954,2.967-2.23s1.367,1.509,1.105,2.128" fill="#87bb3d"/>
        <path id="Path_1459" data-name="Path 1459" d="M144.372,20.2a4.306,4.306,0,0,1-3.385.16,1.627,1.627,0,0,1,.377-2.906c1.655-.5,3.933-.317,3.684.448s-.057,2.033-.676,2.3" fill="#87bb3d"/>
        <path id="Path_1460" data-name="Path 1460" d="M150.984,93.686a4.306,4.306,0,0,1-3.385.16,1.627,1.627,0,0,1,.377-2.906c1.659-.5,3.933-.317,3.684.448s-.057,2.033-.676,2.3" fill="#87bb3d"/>
        <path id="Path_1461" data-name="Path 1461" d="M192.891,13.893a4.306,4.306,0,0,1-3.385.16,1.627,1.627,0,0,1,.377-2.906c1.655-.5,3.933-.317,3.684.448s-.061,2.033-.676,2.3" fill="#87bb3d"/>
        <path id="Path_1462" data-name="Path 1462" d="M153.23,125.4a4.3,4.3,0,0,1-3.28.853,1.626,1.626,0,0,1-.231-2.92c1.519-.836,3.783-1.121,3.7-.323s.364,2-.187,2.39" fill="#87bb3d"/>
        <path id="Path_1463" data-name="Path 1463" d="M178.186,96.707a4.3,4.3,0,0,1,1.611-2.984,1.628,1.628,0,0,1,2.295,1.822c-.425,1.682-1.758,3.535-2.285,2.926s-1.713-1.1-1.621-1.764" fill="#87bb3d"/>
        <path id="Path_1464" data-name="Path 1464" d="M107.248,95.089a4.32,4.32,0,0,1,1.611-2.981,1.626,1.626,0,0,1,2.295,1.822c-.422,1.679-1.758,3.532-2.285,2.927s-1.709-1.1-1.621-1.768" fill="#87bb3d"/>
        <path id="Path_1465" data-name="Path 1465" d="M211.868,37.475a4.321,4.321,0,0,1-2.668-2.094,1.627,1.627,0,0,1,2.185-1.951c1.585.7,3.185,2.332,2.5,2.747s-1.377,1.5-2.016,1.3" fill="#87bb3d"/>
        <path id="Path_1466" data-name="Path 1466" d="M171.371,14.515a4.309,4.309,0,0,1-3.154-1.244,1.626,1.626,0,0,1,1.536-2.495c1.72.221,3.715,1.326,3.178,1.921s-.89,1.832-1.56,1.818" fill="#87bb3d"/>
        <path id="Path_1467" data-name="Path 1467" d="M190.471,31.948a4.906,4.906,0,0,1-.8-3.168,1.814,1.814,0,0,1,2.709-1.373c1.425.785,1.716,3.4,1.57,3.708s-2.821,1.8-3.483.833" fill="#fd8b47"/>
        <path id="Path_1468" data-name="Path 1468" d="M204.186,79.579a4.91,4.91,0,0,1-3.236-.442,1.813,1.813,0,0,1-.265-3.025c1.261-1.03,3.793-.326,4.028-.075s.618,3.287-.527,3.542" fill="#fd8b47"/>
        <path id="Path_1469" data-name="Path 1469" d="M130.246,65.395a4.91,4.91,0,0,1-3.236-.442,1.812,1.812,0,0,1-.262-3.025c1.258-1.03,3.79-.326,4.025-.075s.622,3.287-.527,3.542" fill="#fd8b47"/>
        <path id="Path_1470" data-name="Path 1470" d="M138.339,30.021a4.881,4.881,0,0,1-3.066,1.122,1.815,1.815,0,0,1-1.648-2.553c.632-1.5,3.2-2.06,3.528-1.944s2.083,2.617,1.186,3.375" fill="#fd8b47"/>
        <path id="Path_1471" data-name="Path 1471" d="M207.6,66.065c-.472,1.434-1.547,2.257-1.768,3.141s3.165,2.481,4.049,1.607.992-2.828,1.03-4.259-2.906-1.716-3.311-.489" fill="#9bc544"/>
        <path id="Path_1472" data-name="Path 1472" d="M208.744,68.274c-5.435-2.536-.646-10.693-.51-15.585s-1.7-7.267-1.7-7.267,6.468,4.225,7.539,11.139-.986,13.742-5.33,11.713" fill="#de2a2a"/>
        <g id="Group_2091" data-name="Group 2091" opacity="0.2">
          <g id="Group_2090" data-name="Group 2090">
            <g id="Group_2089" data-name="Group 2089" clip-path="url(#clip-path-15)">
              <path id="Path_1473" data-name="Path 1473" d="M209.152,48.291a12.275,12.275,0,0,1,2.41,8.314c-.272,5.252-2.546,8.7-.952,9.725s3.7-1.475,3.362-7.76a16.075,16.075,0,0,0-4.82-10.279" fill="#fdcfcf"/>
            </g>
          </g>
        </g>
        <g id="Group_2094" data-name="Group 2094" opacity="0.3">
          <g id="Group_2093" data-name="Group 2093">
            <g id="Group_2092" data-name="Group 2092" clip-path="url(#clip-path-16)">
              <path id="Path_1474" data-name="Path 1474" d="M210.919,50.878s1.482,4.463,1.115,7.563,2.321,3.814,1.815-.071a20.2,20.2,0,0,0-2.93-7.492" fill="#fdebeb"/>
            </g>
          </g>
        </g>
        <path id="Path_1475" data-name="Path 1475" d="M135.287,39.311c.853-.085,1.526.282,2.036.194s.557-2.213-.1-2.471a3.925,3.925,0,0,0-2.447.448c-.751.31-.221,1.9.51,1.829" fill="#9bc544"/>
        <path id="Path_1476" data-name="Path 1476" d="M136.171,38.21c-.066,3.406-5.4,2.8-7.972,3.855a6.785,6.785,0,0,0-3.382,2.556s.7-4.331,4.045-6.479,7.359-2.655,7.309.068" fill="#de2a2a"/>
        <g id="Group_2097" data-name="Group 2097" opacity="0.2">
          <g id="Group_2096" data-name="Group 2096">
            <g id="Group_2095" data-name="Group 2095" clip-path="url(#clip-path-17)">
              <path id="Path_1477" data-name="Path 1477" d="M125.705,42.6a6.969,6.969,0,0,1,3.759-3.165c2.788-1.07,5.1-.683,5.265-1.747s-1.617-1.58-4.8.045a9.118,9.118,0,0,0-4.225,4.867" fill="#fdcfcf"/>
            </g>
          </g>
        </g>
        <g id="Group_2100" data-name="Group 2100" opacity="0.3">
          <g id="Group_2099" data-name="Group 2099">
            <g id="Group_2098" data-name="Group 2098" clip-path="url(#clip-path-18)">
              <path id="Path_1478" data-name="Path 1478" d="M126.64,41.089a12.491,12.491,0,0,1,3.668-2.322c1.7-.526,1.444-2.083-.456-.924a11.438,11.438,0,0,0-3.212,3.246" fill="#fdebeb"/>
            </g>
          </g>
        </g>
        <path id="Path_1479" data-name="Path 1479" d="M139.529,108.356c-1.968.7-3.78.235-4.929.744s-.017,5.561,1.687,5.782,3.932-1.322,5.523-2.5-.6-4.629-2.281-4.024" fill="#9bc544"/>
        <path id="Path_1480" data-name="Path 1480" d="M138.088,111.48c-1.853-8.086,11.121-9.8,16.574-13.81s6.485-8.036,6.485-8.036.891,10.653-5.741,17.7-15.833,10.615-17.318,4.147" fill="#de2a2a"/>
        <g id="Group_2103" data-name="Group 2103" opacity="0.2">
          <g id="Group_2102" data-name="Group 2102">
            <g id="Group_2101" data-name="Group 2101" clip-path="url(#clip-path-19)">
              <path id="Path_1481" data-name="Path 1481" d="M160.239,94.93a16.987,16.987,0,0,1-7.022,9.7c-5.959,4.171-11.656,4.616-11.418,7.233s4.759,2.784,11.329-2.933a22.222,22.222,0,0,0,7.111-14" fill="#fdcfcf"/>
            </g>
          </g>
        </g>
        <g id="Group_2106" data-name="Group 2106" opacity="0.3">
          <g id="Group_2105" data-name="Group 2105">
            <g id="Group_2104" data-name="Group 2104" clip-path="url(#clip-path-20)">
              <path id="Path_1482" data-name="Path 1482" d="M158.92,99.059s-3.606,5.411-7.3,7.651-2.189,5.772,1.621,1.914a27.876,27.876,0,0,0,5.68-9.565" fill="#fdebeb"/>
            </g>
          </g>
        </g>
        <path id="Path_1483" data-name="Path 1483" d="M163.761,20.851c-6.438-.36-9.531,3.97-11.543,4.218s-3.386-1.747-2.845-3.99,11.907-7.145,16.5-6.506,6.686,6.767-2.111,6.278" fill="#7bca66"/>
        <path id="Path_1484" data-name="Path 1484" d="M163.761,19.464c-6.438-.36-9.531,3.97-11.543,4.218s-3.386-1.747-2.845-3.99,11.907-7.145,16.5-6.506,6.686,6.767-2.111,6.278" fill="#f2ffab"/>
        <path id="Path_1485" data-name="Path 1485" d="M173.744,83.828c.894-6.39-3.165-9.83-3.243-11.856s2.019-3.226,4.208-2.5,6.135,12.458,5.116,16.982-7.3,6.1-6.081-2.624" fill="#7bca66"/>
        <path id="Path_1486" data-name="Path 1486" d="M175.127,83.944c.894-6.39-3.168-9.83-3.246-11.856s2.022-3.226,4.211-2.5,6.132,12.458,5.116,16.982-7.3,6.1-6.081-2.624" fill="#f2ffab"/>
        <path id="Path_1487" data-name="Path 1487" d="M111.826,57.873c2.78,2.777,5.945,2.06,6.959,2.767s.828,2.165-.324,2.964-8.311-1.581-10.143-3.732-.292-5.792,3.508-2" fill="#7bca66"/>
        <path id="Path_1488" data-name="Path 1488" d="M111.262,58.5c2.784,2.777,5.945,2.063,6.961,2.767s.83,2.165-.326,2.967-8.311-1.584-10.139-3.735-.3-5.789,3.5-2" fill="#f2ffab"/>
        <path id="Path_1489" data-name="Path 1489" d="M169.876,118.329c3.175-.323,4.347-2.682,5.313-2.957s1.788.591,1.7,1.727-5.261,4.415-7.552,4.463-3.794-2.788.54-3.233" fill="#7bca66"/>
        <path id="Path_1490" data-name="Path 1490" d="M169.984,119.009c3.175-.326,4.347-2.682,5.309-2.957s1.792.588,1.7,1.723-5.258,4.419-7.553,4.463-3.79-2.787.544-3.229" fill="#f2ffab"/>
        <path id="Path_1491" data-name="Path 1491" d="M130.219,85.283c2.475,2.012,4.969,1.176,5.846,1.662a1.445,1.445,0,0,1-.02,2.424c-.867.741-6.839-.6-8.494-2.186s-.711-4.653,2.668-1.9" fill="#7bca66"/>
        <path id="Path_1492" data-name="Path 1492" d="M129.818,85.837c2.471,2.012,4.969,1.176,5.846,1.662a1.448,1.448,0,0,1-.02,2.424c-.867.741-6.842-.6-8.494-2.186s-.714-4.65,2.668-1.9" fill="#f2ffab"/>
        <g id="Group_2109" data-name="Group 2109" opacity="0.3">
          <g id="Group_2108" data-name="Group 2108">
            <g id="Group_2107" data-name="Group 2107" clip-path="url(#clip-path-21)">
              <path id="Path_1493" data-name="Path 1493" d="M11.177,34.481c-5.01-.282-.857,4.708,10.116,7.434S48.808,59.753,48.808,59.753s-3.494-5.187-16.737-14.344S13.77,34.631,11.177,34.481" fill="#fdcc9a"/>
            </g>
          </g>
        </g>
      </g>
    </g>
  </g>
</svg>
