<svg xmlns="http://www.w3.org/2000/svg" xmlns:xlink="http://www.w3.org/1999/xlink" width="88" height="38" viewBox="0 0 88 38">
  <defs>
    <clipPath id="clip-path">
      <rect id="Rectangle_732" data-name="Rectangle 732" width="88" height="38" transform="translate(-0.189)" fill="none"/>
    </clipPath>
    <clipPath id="clip-path-3">
      <rect id="Rectangle_721" data-name="Rectangle 721" width="24.611" height="19.856" fill="none"/>
    </clipPath>
    <clipPath id="clip-path-4">
      <rect id="Rectangle_722" data-name="Rectangle 722" width="25.425" height="9.403" fill="none"/>
    </clipPath>
    <clipPath id="clip-path-5">
      <rect id="Rectangle_723" data-name="Rectangle 723" width="69.852" height="26.459" fill="none"/>
    </clipPath>
    <clipPath id="clip-path-6">
      <rect id="Rectangle_724" data-name="Rectangle 724" width="68.264" height="19.917" fill="none"/>
    </clipPath>
    <clipPath id="clip-path-7">
      <rect id="Rectangle_725" data-name="Rectangle 725" width="70.074" height="28.999" fill="none"/>
    </clipPath>
    <clipPath id="clip-path-8">
      <rect id="Rectangle_726" data-name="Rectangle 726" width="11.755" height="7.041" fill="none"/>
    </clipPath>
    <clipPath id="clip-path-9">
      <rect id="Rectangle_727" data-name="Rectangle 727" width="25.677" height="6.329" fill="none"/>
    </clipPath>
    <clipPath id="clip-path-10">
      <rect id="Rectangle_728" data-name="Rectangle 728" width="24.887" height="18.028" fill="none"/>
    </clipPath>
    <clipPath id="clip-path-11">
      <rect id="Rectangle_729" data-name="Rectangle 729" width="68.911" height="22.52" fill="none"/>
    </clipPath>
    <clipPath id="clip-path-12">
      <rect id="Rectangle_730" data-name="Rectangle 730" width="37.951" height="8.77" fill="none"/>
    </clipPath>
  </defs>
  <g id="Group_425" data-name="Group 425" transform="translate(0.189)">
    <g id="Group_39" data-name="Group 39" clip-path="url(#clip-path)">
      <g id="Group_38" data-name="Group 38">
        <g id="Group_37" data-name="Group 37" clip-path="url(#clip-path)">
          <path id="Path_3" data-name="Path 3" d="M7.552,6.469c7.414.677,9.847.113,13.31-4.077,4.566-5.507,11.19,3.324,7.966,6.26-2.91,2.672-3.1,2.647-3.1,2.647s5.833,1.116,5.658,4.227c-.188,7.238-7.966,8.442-12.77,3.839S6.749,15.915,5.244,16.1,7.552,6.469,7.552,6.469" transform="translate(56.425 7.179)" fill="#fbf4ea"/>
          <g id="Group_9" data-name="Group 9" transform="translate(63.199 7.801)" opacity="0.4">
            <g id="Group_8" data-name="Group 8">
              <g id="Group_7" data-name="Group 7" clip-path="url(#clip-path-3)">
                <path id="Path_4" data-name="Path 4" d="M8.657,1.488c-2.07,1.857-2.22,1.831-2.22,1.831s5.833,1.129,5.658,4.24a7.6,7.6,0,0,1-.615,2.91A6.765,6.765,0,0,0,13.5,5.515c.125-2.371-3.249-3.588-4.842-4.027" transform="translate(11.112 9.377)" fill="#fff"/>
                <path id="Path_5" data-name="Path 5" d="M17.733,4.426c3.939-4.754,9.408,1.167,8.756,4.767.188-.163.389-.339.6-.539,3.224-2.948-3.4-11.767-7.966-6.26-3.462,4.177-5.9,4.754-13.31,4.064,0,0-.339.878-.778,2.095,6.924.59,9.333-.063,12.695-4.127" transform="translate(-5.039 -0.624)" fill="#fff"/>
              </g>
            </g>
          </g>
          <g id="Group_12" data-name="Group 12" transform="translate(62.385 19.859)" opacity="0.1">
            <g id="Group_11" data-name="Group 11">
              <g id="Group_10" data-name="Group 10" clip-path="url(#clip-path-4)">
                <path id="Path_6" data-name="Path 6" d="M30.4,4.426a2.141,2.141,0,0,0-.038-.564c-1.054,3.124-3.977,4.855-7.74,4.855C17.568,8.716,14.72.5,6.2,1.7L4.973,4.9c2.371-.276,8.4-.715,12.657,3.362,4.8,4.6,12.582,3.4,12.77-3.839" transform="translate(-4.975 -1.58)" fill="#e58d2f"/>
              </g>
            </g>
          </g>
          <path id="Path_7" data-name="Path 7" d="M14.789,36.953c-20.121.389-19.82-39,1.581-36.805s31.311,10.638,45.3,9.421S72,30.241,53.275,27.983C37.807,26.1,34.182,36.576,14.789,36.953" transform="translate(0.001 0.681)" fill="#f3d5ac"/>
          <g id="Group_15" data-name="Group 15" transform="translate(0.011 11.174)" opacity="0.3">
            <g id="Group_14" data-name="Group 14">
              <g id="Group_13" data-name="Group 13" clip-path="url(#clip-path-5)">
                <path id="Path_8" data-name="Path 8" d="M53.668,17.061c-15.48-1.869-19.093,8.593-38.486,8.969C2.939,26.268-1.728,11.78,1.308.891c-3.813,10.989.728,26.694,13.473,26.456,19.394-.376,23.006-10.851,38.486-8.982,9.684,1.167,15.317-4.115,16.584-9.32-1.831,4.742-7.313,9.082-16.182,8.016" transform="translate(-0.002 -0.888)" fill="#fff"/>
              </g>
            </g>
          </g>
          <g id="Group_18" data-name="Group 18" transform="translate(0.938 1.502)" opacity="0.2">
            <g id="Group_17" data-name="Group 17">
              <g id="Group_16" data-name="Group 16" clip-path="url(#clip-path-6)">
                <path id="Path_9" data-name="Path 9" d="M16.009,5.66c20.824,2.032,30.47,9.872,44.081,8.756,4.177-.351,6.736,1.33,7.752,3.751,1.668-4.767-.79-9.785-7.752-9.22C46.479,10.076,36.833,2.223,16.009.2,4.268-.951-.951,10.176.241,20.036,1.194,11.97,6.413,4.719,16.009,5.66" transform="translate(-0.075 -0.113)" fill="#f9eddd"/>
              </g>
            </g>
          </g>
          <g id="Group_21" data-name="Group 21" transform="translate(0.005 8.634)" opacity="0.3" style="mix-blend-mode: multiply;isolation: isolate">
            <g id="Group_20" data-name="Group 20">
              <g id="Group_19" data-name="Group 19" clip-path="url(#clip-path-7)">
                <path id="Path_10" data-name="Path 10" d="M53.267,20.709c10.412,1.254,16.157-4.942,16.809-10.5C56.227,21.976,45.865,5.856,32.1,13.17,19.986,19.617,4.456,19.379,2.387.688-3.183,11.6,1.019,29.954,14.781,29.678,34.174,29.3,37.8,18.84,53.267,20.709" transform="translate(0.004 -0.691)" fill="#f3d5ac"/>
              </g>
            </g>
          </g>
          <g id="Group_24" data-name="Group 24" transform="translate(73.273 9.731)" opacity="0.3">
            <g id="Group_23" data-name="Group 23">
              <g id="Group_22" data-name="Group 22" clip-path="url(#clip-path-8)">
                <path id="Path_11" data-name="Path 11" d="M6.086,5.045S10.163-.361,14.6.994s3.525,8.555,0,6.423S11.517,3.929,8.155,4.907s-2.07.138-2.07.138" transform="translate(-5.836 -0.777)" fill="#fff"/>
              </g>
            </g>
          </g>
          <g id="Group_27" data-name="Group 27" transform="translate(42.509 9.403)" opacity="0.3">
            <g id="Group_26" data-name="Group 26">
              <g id="Group_25" data-name="Group 25" clip-path="url(#clip-path-9)">
                <path id="Path_12" data-name="Path 12" d="M24.619,3.468C15.976,3.393,13.793,1.825,6.555.847s-.79,6.021,6.561,5.181S23.879,7.6,26.275,6.956c2.409-.6,5.532-3.4-1.656-3.487" transform="translate(-3.39 -0.741)" fill="#f9eddd"/>
              </g>
            </g>
          </g>
          <g id="Group_30" data-name="Group 30" transform="translate(1.812 2.706)" opacity="0.3">
            <g id="Group_29" data-name="Group 29">
              <g id="Group_28" data-name="Group 28" clip-path="url(#clip-path-10)">
                <path id="Path_13" data-name="Path 13" d="M17.255.294C-.583-1.111-2.5,16.965,2.6,18.169S-.195,5.575,15.185,7.607,25.258.921,17.255.294" transform="translate(-0.149 -0.215)" fill="#f9eddd"/>
              </g>
            </g>
          </g>
          <g id="Group_33" data-name="Group 33" transform="translate(0.004 15.113)" opacity="0.2" style="mix-blend-mode: multiply;isolation: isolate">
            <g id="Group_32" data-name="Group 32">
              <g id="Group_31" data-name="Group 31" clip-path="url(#clip-path-11)">
                <path id="Path_14" data-name="Path 14" d="M60.161,11.328c-12.08,4.127-13.7-2.409-31.449,2.421C14.675,17.575,3.987,14.7.324,1.205-1.357,11.654,3.51,23.935,14.788,23.722c19.394-.376,23.006-10.851,38.486-8.969,8.116.978,13.4-2.584,15.643-6.824-3.061,1.242-6.159,2.509-8.756,3.4" transform="translate(-0.002 -1.202)" fill="#f3d5ac"/>
              </g>
            </g>
          </g>
          <g id="Group_36" data-name="Group 36" transform="translate(3.602 28.051)" opacity="0.2">
            <g id="Group_35" data-name="Group 35">
              <g id="Group_34" data-name="Group 34" clip-path="url(#clip-path-12)">
                <path id="Path_15" data-name="Path 15" d="M.287,2.236S4,13.777,16.645,10.377A181.977,181.977,0,0,0,38.221,2.838c.188.151-1.518.151-13.071,3.1S14.362,8.885,10.235,8.471C4.928,7.818.287,2.236.287,2.236" transform="translate(-0.289 -2.238)" fill="#f9eddd"/>
              </g>
            </g>
          </g>
        </g>
      </g>
    </g>
  </g>
</svg>
