<svg id="Group_68" data-name="Group 68" xmlns="http://www.w3.org/2000/svg" xmlns:xlink="http://www.w3.org/1999/xlink" width="65.765" height="29.713" viewBox="0 0 65.765 29.713">
  <defs>
    <clipPath id="clip-path">
      <rect id="Rectangle_742" data-name="Rectangle 742" width="65.765" height="29.713" fill="none"/>
    </clipPath>
    <clipPath id="clip-path-2">
      <rect id="Rectangle_741" data-name="Rectangle 741" width="65.765" height="29.717" fill="none"/>
    </clipPath>
    <clipPath id="clip-path-3">
      <rect id="Rectangle_733" data-name="Rectangle 733" width="65.56" height="21.295" fill="none"/>
    </clipPath>
    <clipPath id="clip-path-4">
      <rect id="Rectangle_734" data-name="Rectangle 734" width="65.761" height="15.756" fill="none"/>
    </clipPath>
    <clipPath id="clip-path-5">
      <rect id="Rectangle_735" data-name="Rectangle 735" width="50.011" height="8.725" fill="none"/>
    </clipPath>
    <clipPath id="clip-path-6">
      <rect id="Rectangle_736" data-name="Rectangle 736" width="64.509" height="9.643" fill="none"/>
    </clipPath>
    <clipPath id="clip-path-7">
      <rect id="Rectangle_737" data-name="Rectangle 737" width="17.418" height="6.764" fill="none"/>
    </clipPath>
    <clipPath id="clip-path-8">
      <rect id="Rectangle_738" data-name="Rectangle 738" width="14.103" height="21.467" fill="none"/>
    </clipPath>
    <clipPath id="clip-path-9">
      <rect id="Rectangle_739" data-name="Rectangle 739" width="20.728" height="7.286" fill="none"/>
    </clipPath>
    <clipPath id="clip-path-10">
      <rect id="Rectangle_740" data-name="Rectangle 740" width="38.457" height="6.422" fill="none"/>
    </clipPath>
  </defs>
  <g id="Group_67" data-name="Group 67" clip-path="url(#clip-path)">
    <g id="Group_66" data-name="Group 66" transform="translate(0 -0.003)">
      <g id="Group_65" data-name="Group 65" clip-path="url(#clip-path-2)">
        <path id="Path_16" data-name="Path 16" d="M41.977.732c-10.316,0-21.411,2.18-27.875,5.44C10.2,5.411,6.774,2.949,2.236,2.188-3.5,1.23,3.607,7.806,3.551,12.758s-2.217,7.15-2.537,9.959c-.31,2.743,9.4-1.785,12.665-4.848,6.389,3.392,17.747,5.665,28.3,5.665,15.8,0,23.788-5.1,23.788-11.4S57.779.732,41.977.732" transform="translate(0 6.148)" fill="#7b8cac"/>
        <g id="Group_43" data-name="Group 43" transform="translate(0.027 8.422)" opacity="0.3">
          <g id="Group_42" data-name="Group 42">
            <g id="Group_41" data-name="Group 41" clip-path="url(#clip-path-3)">
              <path id="Path_17" data-name="Path 17" d="M2.971,15.308a15.4,15.4,0,0,0,.94-5.139C3.948,6.909.894,2.954.434.9c-1.907.977,3.138,6.3,3.091,10.494a14.5,14.5,0,0,1-.554,3.918" transform="translate(0 -0.897)" fill="#b1ccfc"/>
              <path id="Path_18" data-name="Path 18" d="M41.453,10.779c-10.551,0-21.909-2.274-28.3-5.665C9.886,8.176.181,12.7.491,9.961a7.29,7.29,0,0,1,.179-.9,8.959,8.959,0,0,0-.554,2.123C-.2,13.926,9.5,9.4,12.77,6.335,19.159,9.717,30.527,12,41.077,12c14.506,0,22.407-4.312,23.61-9.893-2.039,4.979-9.8,8.672-23.234,8.672" transform="translate(0.873 9.27)" fill="#b1ccfc"/>
            </g>
          </g>
        </g>
        <g id="Group_46" data-name="Group 46" transform="translate(0.004 6.883)" opacity="0.2">
          <g id="Group_45" data-name="Group 45">
            <g id="Group_44" data-name="Group 44" clip-path="url(#clip-path-4)">
              <path id="Path_19" data-name="Path 19" d="M1.608,3.212c4.528.761,7.967,3.223,11.866,3.974,6.464-3.26,17.559-5.44,27.875-5.44,15.8,0,23.788,5.111,23.788,11.406a7.289,7.289,0,0,1-.817,3.335,7.379,7.379,0,0,0,1.437-4.35c0-6.3-7.986-11.406-23.788-11.406-10.316,0-21.411,2.18-27.875,5.44C10.2,5.411,6.766,2.949,2.238,2.188.462,1.9-.083,2.32.011,3.194a3.774,3.774,0,0,1,1.6.019" transform="translate(0.003 -0.735)" fill="#b1ccfc"/>
            </g>
          </g>
        </g>
        <path id="Path_20" data-name="Path 20" d="M25.415,8.83C18.678,1.709,8.034.515,4.126.036s4.237,4.059,1.409,8.69-.752,6.6,5.073,6.191S25.415,8.83,25.415,8.83" transform="translate(25.544 0.005)" fill="#7b8cac"/>
        <g id="Group_49" data-name="Group 49" transform="translate(14.851 7.584)" opacity="0.1">
          <g id="Group_48" data-name="Group 48">
            <g id="Group_47" data-name="Group 47" clip-path="url(#clip-path-5)">
              <path id="Path_21" data-name="Path 21" d="M3.012,5.352C19.7-3.329,43.937,2.683,46.849,4.957s10.569,7.328-3.3,2.668S20.637,2.843,11.984,5.446s-12.805,1.9-8.972-.094" transform="translate(-1.581 -0.812)" fill="#b1ccfc"/>
            </g>
          </g>
        </g>
        <path id="Path_22" data-name="Path 22" d="M8.857,2.785A1.517,1.517,0,1,1,7.344,1.272,1.512,1.512,0,0,1,8.857,2.785" transform="translate(48.876 10.682)" fill="#5a677e"/>
        <path id="Path_23" data-name="Path 23" d="M7.638,2.214a.874.874,0,1,1-.874-.874.878.878,0,0,1,.874.874" transform="translate(49.455 11.253)" fill="#414959"/>
        <path id="Path_24" data-name="Path 24" d="M6.375,1.549a.183.183,0,1,1-.188-.188.188.188,0,0,1,.188.188" transform="translate(50.446 11.429)" fill="#fff"/>
        <g id="Group_52" data-name="Group 52" transform="translate(1.009 20.074)" opacity="0.1">
          <g id="Group_51" data-name="Group 51">
            <g id="Group_50" data-name="Group 50" clip-path="url(#clip-path-6)">
              <path id="Path_25" data-name="Path 25" d="M64.613,2.136C55.819,7.5,41.52,10.413,31.5,7.482,17.44,3.367,13.2,1.1,9.21,5.349,6.909,7.792,2.9,7.247,1.5,6.7A17.722,17.722,0,0,0,.116,10.93C-.2,13.673,9.5,9.145,12.771,6.082c6.389,3.392,17.747,5.665,28.3,5.665,14.271,0,22.144-4.171,23.544-9.611" transform="translate(-0.1 -2.139)" fill="#4d576a"/>
            </g>
          </g>
        </g>
        <g id="Group_55" data-name="Group 55" transform="translate(30.29 0.51)" opacity="0.3">
          <g id="Group_54" data-name="Group 54">
            <g id="Group_53" data-name="Group 53" clip-path="url(#clip-path-7)">
              <path id="Path_26" data-name="Path 26" d="M20.069,6.254A31.545,31.545,0,0,0,9.96,1.387,39.413,39.413,0,0,0,3.224.053S9.631,1.218,13.117,3.51,22.5,7.851,20.069,6.254" transform="translate(-3.224 -0.061)" fill="#f9fbff"/>
            </g>
          </g>
        </g>
        <g id="Group_58" data-name="Group 58" transform="translate(0 8.25)" opacity="0.4">
          <g id="Group_57" data-name="Group 57">
            <g id="Group_56" data-name="Group 56" clip-path="url(#clip-path-8)">
              <path id="Path_27" data-name="Path 27" d="M14.1,4.948C10.2,4.187,6.764,1.725,2.236.973-3.5.006,3.607,6.582,3.551,11.534s-2.217,7.15-2.537,9.959c-.319,2.753,9.4-1.776,12.655-4.848,0,0-1.663-7.882.432-11.7" transform="translate(0 -0.877)" fill="#7484a2"/>
            </g>
          </g>
        </g>
        <g id="Group_61" data-name="Group 61" transform="translate(28.585 0.003)" opacity="0.2">
          <g id="Group_60" data-name="Group 60" transform="translate(0 0)">
            <g id="Group_59" data-name="Group 59" clip-path="url(#clip-path-9)">
              <path id="Path_28" data-name="Path 28" d="M4.126.035C2.369-.181,3.046.618,4.07,1.98a83.967,83.967,0,0,1,19.7,5.308C17.054,1.539,7.734.486,4.126.035" transform="translate(-3.041 0.002)" fill="#b1ccfc"/>
            </g>
          </g>
        </g>
        <g id="Group_64" data-name="Group 64" transform="translate(15.576 7.49)" opacity="0.4">
          <g id="Group_63" data-name="Group 63">
            <g id="Group_62" data-name="Group 62" clip-path="url(#clip-path-10)">
              <path id="Path_29" data-name="Path 29" d="M38.9,4.046A39.945,39.945,0,0,0,14.556,1.763C1.337,4.873-3.379,9.787,8.346,5.615,22.025.749,35.92,3.6,37.038,4.3c1.146.714,5.017.958,1.86-.254" transform="translate(-1.656 -0.795)" fill="#b2cbfc"/>
            </g>
          </g>
        </g>
      </g>
    </g>
  </g>
</svg>
