<svg xmlns="http://www.w3.org/2000/svg" xmlns:xlink="http://www.w3.org/1999/xlink" width="59.18" height="38.496" viewBox="0 0 59.18 38.496">
  <defs>
    <clipPath id="clip-path">
      <rect id="Rectangle_899" data-name="Rectangle 899" width="37.316" height="37.316" fill="none"/>
    </clipPath>
    <clipPath id="clip-path-3">
      <rect id="Rectangle_870" data-name="Rectangle 870" width="34.485" height="31.337" fill="none"/>
    </clipPath>
    <clipPath id="clip-path-4">
      <rect id="Rectangle_871" data-name="Rectangle 871" width="4.019" height="2.781" fill="none"/>
    </clipPath>
    <clipPath id="clip-path-5">
      <rect id="Rectangle_872" data-name="Rectangle 872" width="1.434" height="0.998" fill="none"/>
    </clipPath>
    <clipPath id="clip-path-6">
      <rect id="Rectangle_873" data-name="Rectangle 873" width="1.434" height="0.997" fill="none"/>
    </clipPath>
    <clipPath id="clip-path-27">
      <rect id="Rectangle_894" data-name="Rectangle 894" width="37.011" height="30.538" fill="none"/>
    </clipPath>
    <clipPath id="clip-path-28">
      <rect id="Rectangle_895" data-name="Rectangle 895" width="29.524" height="34.294" fill="none"/>
    </clipPath>
    <clipPath id="clip-path-29">
      <rect id="Rectangle_896" data-name="Rectangle 896" width="16.842" height="15.478" fill="none"/>
    </clipPath>
    <clipPath id="clip-path-30">
      <rect id="Rectangle_897" data-name="Rectangle 897" width="6.492" height="8.167" fill="none"/>
    </clipPath>
    <clipPath id="clip-path-31">
      <rect id="Rectangle_920" data-name="Rectangle 920" width="31.078" height="37.316" fill="none"/>
    </clipPath>
    <clipPath id="clip-path-32">
      <rect id="Rectangle_919" data-name="Rectangle 919" width="31.081" height="37.316" fill="none"/>
    </clipPath>
    <clipPath id="clip-path-33">
      <rect id="Rectangle_908" data-name="Rectangle 908" width="27.307" height="26.496" fill="none"/>
    </clipPath>
    <clipPath id="clip-path-34">
      <rect id="Rectangle_909" data-name="Rectangle 909" width="28.296" height="29.201" fill="none"/>
    </clipPath>
    <clipPath id="clip-path-35">
      <rect id="Rectangle_910" data-name="Rectangle 910" width="29.853" height="29.51" fill="none"/>
    </clipPath>
    <clipPath id="clip-path-36">
      <rect id="Rectangle_911" data-name="Rectangle 911" width="27.349" height="28.812" fill="none"/>
    </clipPath>
    <clipPath id="clip-path-37">
      <rect id="Rectangle_912" data-name="Rectangle 912" width="10.351" height="17.619" fill="none"/>
    </clipPath>
    <clipPath id="clip-path-38">
      <rect id="Rectangle_913" data-name="Rectangle 913" width="7.463" height="16.61" fill="none"/>
    </clipPath>
    <clipPath id="clip-path-39">
      <rect id="Rectangle_914" data-name="Rectangle 914" width="8.903" height="18.75" fill="none"/>
    </clipPath>
    <clipPath id="clip-path-40">
      <rect id="Rectangle_915" data-name="Rectangle 915" width="26.546" height="26.781" fill="none"/>
    </clipPath>
    <clipPath id="clip-path-41">
      <rect id="Rectangle_916" data-name="Rectangle 916" width="9.84" height="20.049" fill="none"/>
    </clipPath>
    <clipPath id="clip-path-42">
      <rect id="Rectangle_917" data-name="Rectangle 917" width="7.3" height="10.606" fill="none"/>
    </clipPath>
    <clipPath id="clip-path-43">
      <rect id="Rectangle_918" data-name="Rectangle 918" width="1.992" height="5.242" fill="none"/>
    </clipPath>
    <clipPath id="clip-path-44">
      <rect id="Rectangle_907" data-name="Rectangle 907" width="52.35" height="32.862" fill="none"/>
    </clipPath>
    <clipPath id="clip-path-45">
      <rect id="Rectangle_906" data-name="Rectangle 906" width="52.349" height="32.86" fill="none"/>
    </clipPath>
    <clipPath id="clip-path-46">
      <rect id="Rectangle_900" data-name="Rectangle 900" width="52.348" height="32.546" fill="none"/>
    </clipPath>
    <clipPath id="clip-path-47">
      <rect id="Rectangle_901" data-name="Rectangle 901" width="49.455" height="23.457" fill="none"/>
    </clipPath>
    <clipPath id="clip-path-48">
      <rect id="Rectangle_902" data-name="Rectangle 902" width="40.236" height="8.728" fill="none"/>
    </clipPath>
    <clipPath id="clip-path-49">
      <rect id="Rectangle_903" data-name="Rectangle 903" width="52.346" height="30.325" fill="none"/>
    </clipPath>
    <clipPath id="clip-path-50">
      <rect id="Rectangle_904" data-name="Rectangle 904" width="52.339" height="20.003" fill="none"/>
    </clipPath>
    <clipPath id="clip-path-51">
      <rect id="Rectangle_905" data-name="Rectangle 905" width="40.393" height="9.884" fill="none"/>
    </clipPath>
  </defs>
  <g id="Group_582" data-name="Group 582" transform="translate(141.129 -826)">
    <g id="Group_516" data-name="Group 516" transform="translate(-141.129 827.18)">
      <g id="Group_515" data-name="Group 515" clip-path="url(#clip-path)">
        <g id="Group_514" data-name="Group 514">
          <g id="Group_513" data-name="Group 513" clip-path="url(#clip-path)">
            <path id="Path_185" data-name="Path 185" d="M37.316,18.658A18.658,18.658,0,1,1,18.658,0,18.656,18.656,0,0,1,37.316,18.658" fill="#ff9f29"/>
            <g id="Group_431" data-name="Group 431" transform="translate(2.831)" opacity="0.2">
              <g id="Group_430" data-name="Group 430">
                <g id="Group_429" data-name="Group 429" clip-path="url(#clip-path-3)">
                  <path id="Path_186" data-name="Path 186" d="M14.076,2.83A18.632,18.632,0,0,1,29.9,31.333,18.64,18.64,0,1,0,.418,8.808,18.575,18.575,0,0,1,14.076,2.83" transform="translate(-0.413 0.006)" fill="#ffb861"/>
                </g>
              </g>
            </g>
            <g id="Group_434" data-name="Group 434" transform="translate(23.761 3.374)" opacity="0.2">
              <g id="Group_433" data-name="Group 433">
                <g id="Group_432" data-name="Group 432" clip-path="url(#clip-path-4)">
                  <path id="Path_187" data-name="Path 187" d="M7.458,2.838c-.271.563-1.364.59-2.443.068S3.292,1.5,3.563.939,4.934.348,6.006.871s1.723,1.4,1.452,1.968" transform="translate(-3.503 -0.5)" fill="#cf2121"/>
                </g>
              </g>
            </g>
            <path id="Path_188" data-name="Path 188" d="M7.472,2.809c-.271.563-1.364.59-2.443.068S3.306,1.473,3.577.91,4.948.319,6.02.842s1.723,1.4,1.452,1.968" transform="translate(20.339 2.707)" fill="#5d7813"/>
            <path id="Path_189" data-name="Path 189" d="M7.494,2.765c-.271.563-1.371.59-2.443.068S3.328,1.429,3.6.866,4.97.275,6.042.8,7.765,2.2,7.494,2.765" transform="translate(20.466 2.452)" fill="#749618"/>
            <g id="Group_437" data-name="Group 437" transform="translate(12.496 3.571)" opacity="0.4">
              <g id="Group_436" data-name="Group 436">
                <g id="Group_435" data-name="Group 435" clip-path="url(#clip-path-5)">
                  <path id="Path_190" data-name="Path 190" d="M3.262.8c.081.244-.17.543-.556.672s-.767.027-.848-.224S2.027.7,2.413.583,3.18.556,3.262.8" transform="translate(-1.842 -0.524)" fill="#ff5f29"/>
                </g>
              </g>
            </g>
            <g id="Group_440" data-name="Group 440" transform="translate(13.212 10.988)" opacity="0.4">
              <g id="Group_439" data-name="Group 439">
                <g id="Group_438" data-name="Group 438" clip-path="url(#clip-path-6)">
                  <path id="Path_191" data-name="Path 191" d="M3.368,1.893c.081.244-.17.543-.563.672s-.76.027-.841-.224.17-.543.556-.665.767-.027.848.217" transform="translate(-1.945 -1.619)" fill="#ff5f29"/>
                </g>
              </g>
            </g>
            <g id="Group_443" data-name="Group 443" transform="translate(22.803 25.399)" opacity="0.4">
              <g id="Group_442" data-name="Group 442">
                <g id="Group_441" data-name="Group 441" clip-path="url(#clip-path-5)">
                  <path id="Path_192" data-name="Path 192" d="M4.781,4.017c.081.244-.17.543-.563.672s-.76.027-.841-.224.17-.543.563-.665.76-.027.841.217" transform="translate(-3.362 -3.742)" fill="#ff5f29"/>
                </g>
              </g>
            </g>
            <g id="Group_446" data-name="Group 446" transform="translate(35.124 18.68)" opacity="0.4">
              <g id="Group_445" data-name="Group 445">
                <g id="Group_444" data-name="Group 444" clip-path="url(#clip-path-5)">
                  <path id="Path_193" data-name="Path 193" d="M6.6,3.02c.081.244-.17.55-.556.678s-.767.027-.848-.224.17-.543.556-.665.767-.027.848.21" transform="translate(-5.178 -2.75)" fill="#ff5f29"/>
                </g>
              </g>
            </g>
            <g id="Group_449" data-name="Group 449" transform="translate(26.7 18.206)" opacity="0.4">
              <g id="Group_448" data-name="Group 448">
                <g id="Group_447" data-name="Group 447" clip-path="url(#clip-path-5)">
                  <path id="Path_194" data-name="Path 194" d="M5.355,2.957c.081.244-.17.55-.563.672s-.76.027-.841-.217.17-.55.556-.672.767-.027.848.217" transform="translate(-3.938 -2.682)" fill="#ff5f29"/>
                </g>
              </g>
            </g>
            <g id="Group_452" data-name="Group 452" transform="translate(29.894 6.384)" opacity="0.4">
              <g id="Group_451" data-name="Group 451">
                <g id="Group_450" data-name="Group 450" clip-path="url(#clip-path-5)">
                  <path id="Path_195" data-name="Path 195" d="M5.826,1.214c.081.244-.17.55-.556.672s-.767.027-.848-.224.17-.543.563-.665.76-.027.841.217" transform="translate(-4.408 -0.942)" fill="#ff5f29"/>
                </g>
              </g>
            </g>
            <g id="Group_455" data-name="Group 455" transform="translate(20.961 11.979)" opacity="0.4">
              <g id="Group_454" data-name="Group 454">
                <g id="Group_453" data-name="Group 453" clip-path="url(#clip-path-5)">
                  <path id="Path_196" data-name="Path 196" d="M4.51,2.039c.081.244-.17.543-.563.672s-.76.027-.841-.224.17-.543.563-.665.76-.027.841.217" transform="translate(-3.088 -1.765)" fill="#ff5f29"/>
                </g>
              </g>
            </g>
            <g id="Group_458" data-name="Group 458" transform="translate(19.562 0.97)" opacity="0.4">
              <g id="Group_457" data-name="Group 457">
                <g id="Group_456" data-name="Group 456" clip-path="url(#clip-path-5)">
                  <path id="Path_197" data-name="Path 197" d="M4.3.416c.081.244-.17.543-.563.672s-.76.027-.841-.224S3.068.321,3.454.2,4.221.172,4.3.416" transform="translate(-2.886 -0.144)" fill="#ff5f29"/>
                </g>
              </g>
            </g>
            <g id="Group_461" data-name="Group 461" transform="translate(30.971 11.446)" opacity="0.4">
              <g id="Group_460" data-name="Group 460">
                <g id="Group_459" data-name="Group 459" clip-path="url(#clip-path-6)">
                  <path id="Path_198" data-name="Path 198" d="M5.985,1.96c.081.244-.17.543-.563.672s-.76.027-.841-.224.17-.543.556-.665.767-.027.848.217" transform="translate(-4.565 -1.688)" fill="#ff5f29"/>
                </g>
              </g>
            </g>
            <g id="Group_464" data-name="Group 464" transform="translate(6.426 26.669)" opacity="0.4">
              <g id="Group_463" data-name="Group 463">
                <g id="Group_462" data-name="Group 462" clip-path="url(#clip-path-5)">
                  <path id="Path_199" data-name="Path 199" d="M2.367,4.2c.081.244-.17.55-.556.672S1.043,4.9.962,4.659s.17-.55.556-.672.767-.027.848.217" transform="translate(-0.949 -3.931)" fill="#ff5f29"/>
                </g>
              </g>
            </g>
            <g id="Group_467" data-name="Group 467" transform="translate(18.658 18.68)" opacity="0.4">
              <g id="Group_466" data-name="Group 466">
                <g id="Group_465" data-name="Group 465" clip-path="url(#clip-path-5)">
                  <path id="Path_200" data-name="Path 200" d="M4.17,3.02c.081.244-.17.55-.563.678s-.767.027-.841-.224.17-.543.556-.665.767-.027.848.21" transform="translate(-2.752 -2.75)" fill="#ff5f29"/>
                </g>
              </g>
            </g>
            <g id="Group_470" data-name="Group 470" transform="translate(18.129 4.266)" opacity="0.4">
              <g id="Group_469" data-name="Group 469">
                <g id="Group_468" data-name="Group 468" clip-path="url(#clip-path-6)">
                  <path id="Path_201" data-name="Path 201" d="M4.092.9c.081.244-.17.543-.556.672s-.767.027-.848-.224.17-.543.556-.665S4.01.658,4.092.9" transform="translate(-2.673 -0.629)" fill="#ff5f29"/>
                </g>
              </g>
            </g>
            <g id="Group_473" data-name="Group 473" transform="translate(7.2 5.271)" opacity="0.4">
              <g id="Group_472" data-name="Group 472">
                <g id="Group_471" data-name="Group 471" clip-path="url(#clip-path-5)">
                  <path id="Path_202" data-name="Path 202" d="M2.481,1.05c.081.244-.17.55-.556.672s-.767.027-.848-.217.17-.55.556-.672.767-.027.848.217" transform="translate(-1.063 -0.777)" fill="#ff5f29"/>
                </g>
              </g>
            </g>
            <g id="Group_476" data-name="Group 476" transform="translate(19.375 32.209)" opacity="0.4">
              <g id="Group_475" data-name="Group 475">
                <g id="Group_474" data-name="Group 474" clip-path="url(#clip-path-5)">
                  <path id="Path_203" data-name="Path 203" d="M4.276,5.021c.081.244-.17.55-.563.672s-.76.027-.841-.224.17-.543.556-.665.767-.027.848.217" transform="translate(-2.856 -4.745)" fill="#ff5f29"/>
                </g>
              </g>
            </g>
            <g id="Group_479" data-name="Group 479" transform="translate(6.004 9.592)" opacity="0.4">
              <g id="Group_478" data-name="Group 478">
                <g id="Group_477" data-name="Group 477" clip-path="url(#clip-path-5)">
                  <path id="Path_204" data-name="Path 204" d="M2.3,1.687c.081.244-.17.55-.563.672S.981,2.386.9,2.135s.17-.543.556-.665.767-.027.848.217" transform="translate(-0.886 -1.414)" fill="#ff5f29"/>
                </g>
              </g>
            </g>
            <g id="Group_482" data-name="Group 482" transform="translate(9.102 18.159)" opacity="0.4">
              <g id="Group_481" data-name="Group 481">
                <g id="Group_480" data-name="Group 480" clip-path="url(#clip-path-6)">
                  <path id="Path_205" data-name="Path 205" d="M2.762,2.95c.081.244-.17.543-.556.672s-.767.027-.848-.224.17-.543.556-.665.767-.027.848.217" transform="translate(-1.341 -2.675)" fill="#ff5f29"/>
                </g>
              </g>
            </g>
            <g id="Group_485" data-name="Group 485" transform="translate(1.976 14.271)" opacity="0.4">
              <g id="Group_484" data-name="Group 484">
                <g id="Group_483" data-name="Group 483" clip-path="url(#clip-path-5)">
                  <path id="Path_206" data-name="Path 206" d="M1.711,2.377c.081.244-.17.55-.556.672s-.767.027-.848-.224.17-.543.556-.665.767-.027.848.217" transform="translate(-0.294 -2.101)" fill="#ff5f29"/>
                </g>
              </g>
            </g>
            <g id="Group_488" data-name="Group 488" transform="translate(13.697 22.38)" opacity="0.4">
              <g id="Group_487" data-name="Group 487">
                <g id="Group_486" data-name="Group 486" clip-path="url(#clip-path-6)">
                  <path id="Path_207" data-name="Path 207" d="M3.439,3.572c.081.244-.17.543-.563.672s-.76.027-.841-.224.17-.543.563-.665.76-.027.841.217" transform="translate(-2.019 -3.298)" fill="#ff5f29"/>
                </g>
              </g>
            </g>
            <g id="Group_491" data-name="Group 491" transform="translate(32.829 24.101)" opacity="0.4">
              <g id="Group_490" data-name="Group 490">
                <g id="Group_489" data-name="Group 489" clip-path="url(#clip-path-6)">
                  <path id="Path_208" data-name="Path 208" d="M6.259,3.822c.081.244-.17.556-.563.678s-.767.027-.841-.224.17-.543.556-.665.767-.027.848.21" transform="translate(-4.838 -3.552)" fill="#ff5f29"/>
                </g>
              </g>
            </g>
            <g id="Group_494" data-name="Group 494" transform="translate(12.338 30.328)" opacity="0.4">
              <g id="Group_493" data-name="Group 493">
                <g id="Group_492" data-name="Group 492" clip-path="url(#clip-path-5)">
                  <path id="Path_209" data-name="Path 209" d="M3.239,4.743c.081.244-.17.55-.556.672s-.767.027-.848-.224.17-.543.556-.665.767-.027.848.217" transform="translate(-1.817 -4.472)" fill="#ff5f29"/>
                </g>
              </g>
            </g>
            <g id="Group_497" data-name="Group 497" transform="translate(26.7 29.858)" opacity="0.4">
              <g id="Group_496" data-name="Group 496">
                <g id="Group_495" data-name="Group 495" clip-path="url(#clip-path-5)">
                  <path id="Path_210" data-name="Path 210" d="M5.355,4.674c.081.244-.17.55-.563.672s-.76.027-.841-.224.17-.543.556-.665.767-.027.848.217" transform="translate(-3.938 -4.401)" fill="#ff5f29"/>
                </g>
              </g>
            </g>
            <g id="Group_500" data-name="Group 500" transform="translate(3.25 20.343)" opacity="0.4">
              <g id="Group_499" data-name="Group 499">
                <g id="Group_498" data-name="Group 498" clip-path="url(#clip-path-6)">
                  <path id="Path_211" data-name="Path 211" d="M1.9,3.272c.081.244-.17.543-.563.672s-.76.027-.841-.224.17-.543.556-.665.767-.027.848.217" transform="translate(-0.48 -2.997)" fill="#ff5f29"/>
                </g>
              </g>
            </g>
            <g id="Group_503" data-name="Group 503" transform="translate(0 6.779)" opacity="0.2" style="mix-blend-mode: multiply;isolation: isolate">
              <g id="Group_502" data-name="Group 502">
                <g id="Group_501" data-name="Group 501" clip-path="url(#clip-path-27)">
                  <path id="Path_212" data-name="Path 212" d="M22.627,22.928A18.656,18.656,0,0,1,3.969,4.27,18.492,18.492,0,0,1,4.274,1,18.65,18.65,0,1,0,37.011,16.15a18.606,18.606,0,0,1-14.384,6.778" transform="translate(0 -0.994)" fill="#ff9f29"/>
                </g>
              </g>
            </g>
            <g id="Group_506" data-name="Group 506" transform="translate(0 3.022)" opacity="0.3">
              <g id="Group_505" data-name="Group 505">
                <g id="Group_504" data-name="Group 504" clip-path="url(#clip-path-28)">
                  <path id="Path_213" data-name="Path 213" d="M19.364,34.248A18.644,18.644,0,0,1,8.495.446,18.644,18.644,0,1,0,29.52,31.228a18.576,18.576,0,0,1-10.157,3.019" transform="translate(0 -0.442)" fill="#ffe7d4"/>
                </g>
              </g>
            </g>
            <g id="Group_509" data-name="Group 509" transform="translate(16.395 1.137)" opacity="0.4">
              <g id="Group_508" data-name="Group 508">
                <g id="Group_507" data-name="Group 507" clip-path="url(#clip-path-29)">
                  <path id="Path_214" data-name="Path 214" d="M18.284,13.924c-2.171,2.687-7.266,2.171-11.378-1.153S1.221,4.575,3.392,1.888,10.658-.283,14.77,3.042s5.686,8.2,3.515,10.883" transform="translate(-2.418 -0.169)" fill="#ffb861"/>
                </g>
              </g>
            </g>
            <g id="Group_512" data-name="Group 512" transform="translate(30.3 18.296)" opacity="0.4">
              <g id="Group_511" data-name="Group 511">
                <g id="Group_510" data-name="Group 510" clip-path="url(#clip-path-30)">
                  <path id="Path_215" data-name="Path 215" d="M10.959,6.781c0,2.253-1.452,4.084-3.243,4.084s-3.25-1.832-3.25-4.084S5.918,2.7,7.716,2.7s3.243,1.832,3.243,4.084" transform="translate(-4.465 -2.695)" fill="#ffb861"/>
                </g>
              </g>
            </g>
          </g>
        </g>
      </g>
    </g>
    <g id="Group_575" data-name="Group 575" transform="translate(-118.278 826)">
      <g id="Group_574" data-name="Group 574" clip-path="url(#clip-path-31)">
        <g id="Group_573" data-name="Group 573" transform="translate(0 0)">
          <g id="Group_572" data-name="Group 572" clip-path="url(#clip-path-32)">
            <path id="Path_227" data-name="Path 227" d="M5.415,14.269c-.583-10-1.438-10.483-2.992-11.527S2.091-1.492,4.106.828s3.277,13.4,2.056,15-.706-1.377-.746-1.561" transform="translate(9.945 0)" fill="#804314"/>
            <path id="Path_228" data-name="Path 228" d="M3.865,2.638c-9.227,5.794.21,25.307,6.127,27.953,4.179,1.866,10.265,1.655,13.285-.36,2.775-1.852,12.708-19.7,4.817-27.8-3.189-3.277-9.316.645-14.506-.841C10.473.7,7.427.446,3.865,2.638" transform="translate(0.003 5.443)" fill="#de2323"/>
            <g id="Group_541" data-name="Group 541" transform="translate(0.029 10.82)" opacity="0.4">
              <g id="Group_540" data-name="Group 540">
                <g id="Group_539" data-name="Group 539" clip-path="url(#clip-path-33)">
                  <path id="Path_229" data-name="Path 229" d="M23.381,26.251c-3.026,2.015-9.105,2.225-13.285.353C4.96,24.31-2.822,9.3,1.249,1.595-3.066,9.241,4.818,24.487,9.995,26.807c4.173,1.866,10.265,1.655,13.278-.36.9-.59,2.5-2.816,4.044-5.828-1.513,2.917-3.074,5.055-3.935,5.631" transform="translate(-0.002 -1.593)" fill="#ffb8b8"/>
                </g>
              </g>
            </g>
            <g id="Group_544" data-name="Group 544" transform="translate(2.782 6.381)" opacity="0.4">
              <g id="Group_543" data-name="Group 543">
                <g id="Group_542" data-name="Group 542" clip-path="url(#clip-path-34)">
                  <path id="Path_230" data-name="Path 230" d="M25.718,2.434c-3.2-3.277-9.322.645-14.506-.841C8.1.7,5.052.446,1.483,2.638a7.4,7.4,0,0,0-1.072.835,7.821,7.821,0,0,1,.733-.529C4.706.752,7.752,1.009,10.866,1.9c5.19,1.486,11.3-2.429,14.5.841,7.5,7.694-1.092,24.195-4.356,27.4C23.934,27.9,33.494,10.42,25.718,2.434" transform="translate(-0.404 -0.938)" fill="#ff9a9a"/>
                </g>
              </g>
            </g>
            <g id="Group_547" data-name="Group 547" transform="translate(1.225 6.381)" opacity="0.2">
              <g id="Group_546" data-name="Group 546">
                <g id="Group_545" data-name="Group 545" clip-path="url(#clip-path-35)">
                  <path id="Path_231" data-name="Path 231" d="M27.049,2.434c-3.189-3.277-9.316.645-14.506-.841C9.429.7,6.382.446,2.82,2.638A7.545,7.545,0,0,0,.181,5.42,1.036,1.036,0,0,1,.33,5.311c3.569-2.2,6.608-1.94,9.723-1.045,5.19,1.479,11.317-2.436,14.506.841,6.452,6.615.991,19.757-2.734,25.341.129-.075.285-.136.407-.217,2.775-1.852,12.708-19.7,4.817-27.8" transform="translate(-0.178 -0.938)" fill="#ff2828"/>
                </g>
              </g>
            </g>
            <g id="Group_550" data-name="Group 550" transform="translate(0.008 8.504)" opacity="0.2">
              <g id="Group_549" data-name="Group 549">
                <g id="Group_548" data-name="Group 548" clip-path="url(#clip-path-36)">
                  <path id="Path_232" data-name="Path 232" d="M26.225,23.636c-3.019,2.015-9.105,2.225-13.285.353C8.272,21.906,1.419,9.313,3.265,1.253c-8.2,6.256.936,24.941,6.717,27.526,4.179,1.873,10.272,1.655,13.285-.36.9-.6,2.538-2.863,4.084-5.923a6.111,6.111,0,0,1-1.126,1.14" transform="translate(-0.003 -1.256)" fill="#a60d0d"/>
                </g>
              </g>
            </g>
            <g id="Group_553" data-name="Group 553" transform="translate(4.972 6.39)" opacity="0.2">
              <g id="Group_552" data-name="Group 552">
                <g id="Group_551" data-name="Group 551" clip-path="url(#clip-path-37)">
                  <path id="Path_233" data-name="Path 233" d="M9.474,9.673c.6-3.671,1.2-6.12,1.608-7.789a8.8,8.8,0,0,1-1.73-.3,11.924,11.924,0,0,0-6.9-.231c-3.766,5.679-.17,17.206-.17,17.206S8.517,15.44,9.474,9.673" transform="translate(-0.734 -0.939)"/>
                </g>
              </g>
            </g>
            <path id="Path_234" data-name="Path 234" d="M10.173.587C-4.529-1.3,2.12,19.713,2.12,19.713s5.957-2.958,6.866-8.427C10.54,2.019,12.025.825,10.173.587" transform="translate(3.586 2.704)" fill="#afc91c"/>
            <g id="Group_556" data-name="Group 556" transform="translate(4.213 5.811)" opacity="0.3">
              <g id="Group_555" data-name="Group 555">
                <g id="Group_554" data-name="Group 554" clip-path="url(#clip-path-38)">
                  <path id="Path_235" data-name="Path 235" d="M2.861,16.23S-.219,6.474,2.461.856c-3.928,5.265-.346,16.609-.346,16.609a15.039,15.039,0,0,0,5.971-5.781A15.7,15.7,0,0,1,2.861,16.23" transform="translate(-0.622 -0.859)" fill="#deff24"/>
                </g>
              </g>
            </g>
            <g id="Group_559" data-name="Group 559" transform="translate(5.707 3.67)" opacity="0.2">
              <g id="Group_558" data-name="Group 558">
                <g id="Group_557" data-name="Group 557" clip-path="url(#clip-path-39)">
                  <path id="Path_236" data-name="Path 236" d="M.841,19.293s5.95-2.958,6.866-8.427C8.915,3.634,10.075,1.327,9.654.54-1.4,4.76,3.433,14.279.841,19.293" transform="translate(-0.842 -0.546)" fill="#788a13"/>
                </g>
              </g>
            </g>
            <g id="Group_562" data-name="Group 562" transform="translate(0.01 10.535)" opacity="0.2">
              <g id="Group_561" data-name="Group 561">
                <g id="Group_560" data-name="Group 560" clip-path="url(#clip-path-40)">
                  <path id="Path_237" data-name="Path 237" d="M23.584,26.134c-3.019,2.015-9.105,2.225-13.285.353C5.177,24.2-2.571,9.281,1.419,1.553-3.27,9.1,4.736,24.7,9.981,27.043c4.179,1.873,10.265,1.662,13.285-.353a15.351,15.351,0,0,0,3.284-4.424,13.864,13.864,0,0,1-2.965,3.867" transform="translate(-0.004 -1.551)" fill="#ff7878"/>
                </g>
              </g>
            </g>
            <g id="Group_565" data-name="Group 565" transform="translate(19.034 8.062)" opacity="0.2">
              <g id="Group_564" data-name="Group 564">
                <g id="Group_563" data-name="Group 563" clip-path="url(#clip-path-41)">
                  <path id="Path_238" data-name="Path 238" d="M7.234,1.2C1.27.913,2.1,7.311,5.219,10.7s2.49,7.043,2.7,9.159,3.494,2.334,4.288-3.23S13.375,1.49,7.234,1.2" transform="translate(-2.806 -1.186)" fill="#ff706e"/>
                </g>
              </g>
            </g>
            <g id="Group_568" data-name="Group 568" transform="translate(21.131 9.12)" opacity="0.2">
              <g id="Group_567" data-name="Group 567">
                <g id="Group_566" data-name="Group 566" clip-path="url(#clip-path-42)">
                  <path id="Path_239" data-name="Path 239" d="M3.8,1.869C1.286,3.456,6.375,5.349,7.772,7.195s.2,3.962,1.323,4.668,1.839-3,.848-5.91S6.571.125,3.8,1.869" transform="translate(-3.114 -1.347)" fill="#ff706e"/>
                </g>
              </g>
            </g>
            <g id="Group_571" data-name="Group 571" transform="translate(26.114 20.664)" opacity="0.2">
              <g id="Group_570" data-name="Group 570">
                <g id="Group_569" data-name="Group 569" clip-path="url(#clip-path-43)">
                  <path id="Path_240" data-name="Path 240" d="M4.742,3.1c-1.011.292-1.181,5.055-.421,5.19s2.748-5.848.421-5.19" transform="translate(-3.846 -3.046)" fill="#ff706e"/>
                </g>
              </g>
            </g>
          </g>
        </g>
      </g>
    </g>
    <g id="Group_538" data-name="Group 538" transform="translate(-134.299 831.634)">
      <g id="Group_537" data-name="Group 537" clip-path="url(#clip-path-44)">
        <g id="Group_536" data-name="Group 536" transform="translate(0 0.001)">
          <g id="Group_535" data-name="Group 535" clip-path="url(#clip-path-45)">
            <path id="Path_216" data-name="Path 216" d="M.022,6.058C.508,17.874,3.634,34.439,29.278,32.741,46.688,31.6,52.2,14.755,52.341,13.379a2.116,2.116,0,0,0-3.41-1.675,35.752,35.752,0,0,1-25.389,7.329C9.617,17.582,2.654,11.928,3.163,2.782,3.357-.77-.315-2.094.022,6.058" transform="translate(0.001 -0.001)" fill="#ffba30"/>
            <path id="Path_217" data-name="Path 217" d="M7,1.986c-.12.1-.307.254-.531.426a5.89,5.89,0,0,0,3.4,3.044,10.668,10.668,0,0,0,.546-1.8A2.115,2.115,0,0,0,7,1.986" transform="translate(41.929 9.717)" fill="#8a231a"/>
            <g id="Group_519" data-name="Group 519" transform="translate(0 0.314)" opacity="0.1">
              <g id="Group_518" data-name="Group 518">
                <g id="Group_517" data-name="Group 517" clip-path="url(#clip-path-46)">
                  <path id="Path_218" data-name="Path 218" d="M17.094,28.251C-.585,22.074.507,4.574,1.105.042.432.693-.114,2.42.021,5.785.507,17.6,3.633,34.166,29.277,32.469,46.687,31.317,52.2,14.483,52.34,13.1a1.4,1.4,0,0,0-.067-.576c-5.25,9.333-19.5,21.2-35.179,15.727" transform="translate(0.002 -0.043)" fill="#d42828"/>
                </g>
              </g>
            </g>
            <g id="Group_522" data-name="Group 522" transform="translate(1.93 0.097)" opacity="0.2">
              <g id="Group_521" data-name="Group 521">
                <g id="Group_520" data-name="Group 520" clip-path="url(#clip-path-47)">
                  <path id="Path_219" data-name="Path 219" d="M47.262,11.62a35.784,35.784,0,0,1-25.389,7.329C7.947,17.5.985,11.836,1.486,2.7A2.814,2.814,0,0,0,.461.013c-.494,3.664-.912,14.239,9.3,20.6,10.971,6.835,31.327.441,39.958-9.071a1.932,1.932,0,0,0-2.453.075" transform="translate(-0.26 -0.014)" fill="#ffed73"/>
                </g>
              </g>
            </g>
            <path id="Path_220" data-name="Path 220" d="M4.179,8.985a13.489,13.489,0,0,1-1.017-6.2C3.357-.767-.308-2.1.021,6.053.059,7.01.118,8,.208,9.007c.292.793,1.144.651,1.72.658a5.436,5.436,0,0,0,2.251-.681" transform="translate(0.001 -0.004)" fill="#bd6e24"/>
            <g id="Group_525" data-name="Group 525" transform="translate(5.191 15.173)" opacity="0.2">
              <g id="Group_524" data-name="Group 524">
                <g id="Group_523" data-name="Group 523" clip-path="url(#clip-path-48)">
                  <path id="Path_221" data-name="Path 221" d="M.694,2.029s3.769,9.079,18.532,8.72,21.7-7.306,21.7-7.306S33.046,8.677,18.971,8.677.694,2.029.694,2.029" transform="translate(-0.695 -2.029)" fill="#ffed73"/>
                </g>
              </g>
            </g>
            <g id="Group_528" data-name="Group 528" transform="translate(0.003 2.535)" opacity="0.4">
              <g id="Group_527" data-name="Group 527">
                <g id="Group_526" data-name="Group 526" clip-path="url(#clip-path-49)">
                  <path id="Path_222" data-name="Path 222" d="M.432,1.521C.432,1.214.417.907.44.586L.432.339c-.007.4-.022.8,0,1.182" transform="translate(2.721 -0.34)" fill="#fffbf2"/>
                  <path id="Path_223" data-name="Path 223" d="M29.268,28.077C3.632,29.775.506,13.2.02,1.394,0,1.11,0,.863,0,.6,0,1.08,0,1.6.02,2.164.506,13.98,3.632,30.545,29.268,28.855,46.678,27.7,52.19,10.861,52.339,9.485a1.63,1.63,0,0,0-.052-.538c-.5,2.311-6.2,18.016-23.019,19.13" transform="translate(0 1.357)" fill="#fffbf2"/>
                </g>
              </g>
            </g>
            <g id="Group_531" data-name="Group 531" transform="translate(0.011 -0.001)" opacity="0.5">
              <g id="Group_530" data-name="Group 530" transform="translate(0 0)">
                <g id="Group_529" data-name="Group 529" clip-path="url(#clip-path-50)">
                  <path id="Path_224" data-name="Path 224" d="M20.808,15.944A35.784,35.784,0,0,0,46.2,8.615a2.128,2.128,0,0,1,3.358,1.122l.052-.247A2.113,2.113,0,0,0,46.2,7.822a35.831,35.831,0,0,1-25.389,7.321C7.766,13.79.833,8.742.422.6.415,9.2,7.355,14.545,20.808,15.944" transform="translate(2.723 3.874)" fill="#ffefcf"/>
                  <path id="Path_225" data-name="Path 225" d="M3.15,3.354c.007-.194-.007-.381,0-.583C3.345-.662-.065-1.986,0,5.268.181-.954,3.188.213,3.15,3.354" transform="translate(-0.005 -0.003)" fill="#ffefcf"/>
                </g>
              </g>
            </g>
            <g id="Group_534" data-name="Group 534" transform="translate(5.856 20.002)" opacity="0.1">
              <g id="Group_533" data-name="Group 533">
                <g id="Group_532" data-name="Group 532" clip-path="url(#clip-path-51)">
                  <path id="Path_226" data-name="Path 226" d="M.783,3.393a25.387,25.387,0,0,0,21.089,9.124c13.813-.77,19.3-9.842,19.3-9.842s-9,9.759-22.271,8.675S.783,3.393.783,3.393" transform="translate(-0.783 -2.673)" fill="#ffb31c"/>
                </g>
              </g>
            </g>
          </g>
        </g>
      </g>
    </g>
  </g>
</svg>
