<svg id="Group_921" data-name="Group 921" xmlns="http://www.w3.org/2000/svg" xmlns:xlink="http://www.w3.org/1999/xlink" width="72.156" height="47.165" viewBox="0 0 72.156 47.165">
  <defs>
    <clipPath id="clip-path">
      <rect id="Rectangle_1076" data-name="Rectangle 1076" width="72.156" height="47.165" fill="none"/>
    </clipPath>
    <clipPath id="clip-path-2">
      <rect id="Rectangle_1075" data-name="Rectangle 1075" width="72.157" height="47.17" fill="none"/>
    </clipPath>
    <clipPath id="clip-path-3">
      <rect id="Rectangle_1032" data-name="Rectangle 1032" width="15.235" height="4.685" fill="none"/>
    </clipPath>
    <clipPath id="clip-path-4">
      <rect id="Rectangle_1033" data-name="Rectangle 1033" width="15.134" height="4.311" fill="none"/>
    </clipPath>
    <clipPath id="clip-path-5">
      <rect id="Rectangle_1034" data-name="Rectangle 1034" width="15.109" height="4.221" fill="none"/>
    </clipPath>
    <clipPath id="clip-path-6">
      <rect id="Rectangle_1035" data-name="Rectangle 1035" width="7.17" height="3.07" fill="none"/>
    </clipPath>
    <clipPath id="clip-path-7">
      <rect id="Rectangle_1036" data-name="Rectangle 1036" width="19.687" height="6.657" fill="none"/>
    </clipPath>
    <clipPath id="clip-path-8">
      <rect id="Rectangle_1037" data-name="Rectangle 1037" width="19.779" height="6.626" fill="none"/>
    </clipPath>
    <clipPath id="clip-path-9">
      <rect id="Rectangle_1038" data-name="Rectangle 1038" width="14.664" height="4.602" fill="none"/>
    </clipPath>
    <clipPath id="clip-path-10">
      <rect id="Rectangle_1039" data-name="Rectangle 1039" width="19.902" height="6.831" fill="none"/>
    </clipPath>
    <clipPath id="clip-path-11">
      <rect id="Rectangle_1040" data-name="Rectangle 1040" width="6.975" height="3.262" fill="none"/>
    </clipPath>
    <clipPath id="clip-path-12">
      <rect id="Rectangle_1041" data-name="Rectangle 1041" width="36.408" height="27.462" fill="none"/>
    </clipPath>
    <clipPath id="clip-path-13">
      <rect id="Rectangle_1042" data-name="Rectangle 1042" width="28.689" height="25.383" fill="none"/>
    </clipPath>
    <clipPath id="clip-path-14">
      <rect id="Rectangle_1043" data-name="Rectangle 1043" width="43.171" height="26.23" fill="none"/>
    </clipPath>
    <clipPath id="clip-path-15">
      <rect id="Rectangle_1044" data-name="Rectangle 1044" width="41.328" height="27.612" fill="none"/>
    </clipPath>
    <clipPath id="clip-path-16">
      <rect id="Rectangle_1045" data-name="Rectangle 1045" width="40.783" height="18.946" fill="none"/>
    </clipPath>
    <clipPath id="clip-path-17">
      <rect id="Rectangle_1046" data-name="Rectangle 1046" width="34.507" height="9.602" fill="none"/>
    </clipPath>
    <clipPath id="clip-path-18">
      <rect id="Rectangle_1047" data-name="Rectangle 1047" width="45.193" height="17.751" fill="none"/>
    </clipPath>
    <clipPath id="clip-path-19">
      <rect id="Rectangle_1048" data-name="Rectangle 1048" width="44.906" height="16.875" fill="none"/>
    </clipPath>
    <clipPath id="clip-path-20">
      <rect id="Rectangle_1049" data-name="Rectangle 1049" width="45.185" height="17.741" fill="none"/>
    </clipPath>
    <clipPath id="clip-path-21">
      <rect id="Rectangle_1050" data-name="Rectangle 1050" width="44.554" height="17.523" fill="none"/>
    </clipPath>
    <clipPath id="clip-path-22">
      <rect id="Rectangle_1051" data-name="Rectangle 1051" width="45.989" height="17.914" fill="none"/>
    </clipPath>
    <clipPath id="clip-path-23">
      <rect id="Rectangle_1052" data-name="Rectangle 1052" width="44.876" height="18.24" fill="none"/>
    </clipPath>
    <clipPath id="clip-path-24">
      <rect id="Rectangle_1053" data-name="Rectangle 1053" width="5.484" height="2.178" fill="none"/>
    </clipPath>
    <clipPath id="clip-path-25">
      <rect id="Rectangle_1054" data-name="Rectangle 1054" width="5.085" height="2.776" fill="none"/>
    </clipPath>
    <clipPath id="clip-path-26">
      <rect id="Rectangle_1055" data-name="Rectangle 1055" width="5.008" height="3.207" fill="none"/>
    </clipPath>
    <clipPath id="clip-path-27">
      <rect id="Rectangle_1056" data-name="Rectangle 1056" width="5.353" height="2.587" fill="none"/>
    </clipPath>
    <clipPath id="clip-path-28">
      <rect id="Rectangle_1057" data-name="Rectangle 1057" width="3.423" height="1.654" fill="none"/>
    </clipPath>
    <clipPath id="clip-path-29">
      <rect id="Rectangle_1058" data-name="Rectangle 1058" width="3.519" height="1.256" fill="none"/>
    </clipPath>
    <clipPath id="clip-path-30">
      <rect id="Rectangle_1059" data-name="Rectangle 1059" width="2.92" height="6.551" fill="none"/>
    </clipPath>
    <clipPath id="clip-path-31">
      <rect id="Rectangle_1060" data-name="Rectangle 1060" width="1.62" height="4.908" fill="none"/>
    </clipPath>
    <clipPath id="clip-path-32">
      <rect id="Rectangle_1061" data-name="Rectangle 1061" width="6.285" height="3.333" fill="none"/>
    </clipPath>
    <clipPath id="clip-path-33">
      <rect id="Rectangle_1062" data-name="Rectangle 1062" width="4.771" height="2.048" fill="none"/>
    </clipPath>
    <clipPath id="clip-path-34">
      <rect id="Rectangle_1063" data-name="Rectangle 1063" width="4.295" height="5.76" fill="none"/>
    </clipPath>
    <clipPath id="clip-path-35">
      <rect id="Rectangle_1064" data-name="Rectangle 1064" width="2.868" height="4.296" fill="none"/>
    </clipPath>
    <clipPath id="clip-path-36">
      <rect id="Rectangle_1065" data-name="Rectangle 1065" width="4.295" height="5.759" fill="none"/>
    </clipPath>
    <clipPath id="clip-path-38">
      <rect id="Rectangle_1067" data-name="Rectangle 1067" width="5.88" height="4.184" fill="none"/>
    </clipPath>
    <clipPath id="clip-path-39">
      <rect id="Rectangle_1068" data-name="Rectangle 1068" width="4.277" height="2.838" fill="none"/>
    </clipPath>
    <clipPath id="clip-path-40">
      <rect id="Rectangle_1069" data-name="Rectangle 1069" width="2.718" height="4.713" fill="none"/>
    </clipPath>
    <clipPath id="clip-path-41">
      <rect id="Rectangle_1070" data-name="Rectangle 1070" width="4.777" height="2.471" fill="none"/>
    </clipPath>
    <clipPath id="clip-path-43">
      <rect id="Rectangle_1072" data-name="Rectangle 1072" width="5.091" height="1.834" fill="none"/>
    </clipPath>
    <clipPath id="clip-path-44">
      <rect id="Rectangle_1073" data-name="Rectangle 1073" width="3.2" height="1.153" fill="none"/>
    </clipPath>
    <clipPath id="clip-path-45">
      <rect id="Rectangle_1074" data-name="Rectangle 1074" width="3.199" height="1.153" fill="none"/>
    </clipPath>
  </defs>
  <g id="Group_920" data-name="Group 920" clip-path="url(#clip-path)">
    <path id="Path_337" data-name="Path 337" d="M1.323,3.414,16.4,7.538l.371-1.35L1.694,2.064Z" transform="translate(12.315 19.213)" fill="#3a3c46"/>
    <g id="Group_919" data-name="Group 919" transform="translate(0 -0.004)">
      <g id="Group_918" data-name="Group 918" clip-path="url(#clip-path-2)">
        <g id="Group_791" data-name="Group 791" transform="translate(13.639 22.078)" opacity="0.3">
          <g id="Group_790" data-name="Group 790">
            <g id="Group_789" data-name="Group 789" clip-path="url(#clip-path-3)">
              <path id="Path_338" data-name="Path 338" d="M16.4,6.822,1.323,2.688l.144-.546L16.559,6.265Z" transform="translate(-1.321 -2.137)"/>
            </g>
          </g>
        </g>
        <g id="Group_794" data-name="Group 794" transform="translate(13.926 21.399)" opacity="0.4">
          <g id="Group_793" data-name="Group 793">
            <g id="Group_792" data-name="Group 792" clip-path="url(#clip-path-4)">
              <path id="Path_339" data-name="Path 339" d="M16.432,6.384,1.351,2.251l.041-.175L16.484,6.2Z" transform="translate(-1.347 -2.074)" fill="#cbd2fc"/>
            </g>
          </g>
        </g>
        <g id="Group_797" data-name="Group 797" transform="translate(13.639 22.542)" opacity="0.3">
          <g id="Group_796" data-name="Group 796">
            <g id="Group_795" data-name="Group 795" clip-path="url(#clip-path-5)">
              <path id="Path_340" data-name="Path 340" d="M16.4,6.412,1.323,2.279l.021-.093L16.425,6.319Z" transform="translate(-1.321 -2.191)" fill="#cbd2fc"/>
            </g>
          </g>
        </g>
        <g id="Group_800" data-name="Group 800" transform="translate(13.639 21.274)" opacity="0.3">
          <g id="Group_799" data-name="Group 799">
            <g id="Group_798" data-name="Group 798" clip-path="url(#clip-path-6)">
              <path id="Path_341" data-name="Path 341" d="M1.323,3.424,7.57,5.135c.505-.124.825-.33.907-.618A.806.806,0,0,0,8.3,3.877L1.694,2.063Z" transform="translate(-1.324 -2.067)"/>
            </g>
          </g>
        </g>
        <path id="Path_342" data-name="Path 342" d="M19.883,7.9c-.33,1.227-5.051.99-10.535-.505S-.321,3.682.02,2.455s5.051-.99,10.535.515S20.223,6.681,19.883,7.9" transform="translate(0.001 15.578)" fill="#e3813e"/>
        <g id="Group_803" data-name="Group 803" transform="translate(0 17.607)" opacity="0.4">
          <g id="Group_802" data-name="Group 802">
            <g id="Group_801" data-name="Group 801" clip-path="url(#clip-path-7)">
              <path id="Path_343" data-name="Path 343" d="M9.565,6.924C4.081,5.419-.094,3.213.236,2a.6.6,0,0,1,.2-.289.76.76,0,0,0-.412.433c-.34,1.227,3.845,3.433,9.329,4.938,5,1.361,9.349,1.67,10.339.783-1.309.7-5.432.35-10.123-.938" transform="translate(0.001 -1.705)" fill="#f0c747"/>
            </g>
          </g>
        </g>
        <g id="Group_806" data-name="Group 806" transform="translate(0.125 17.256)" opacity="0.3">
          <g id="Group_805" data-name="Group 805">
            <g id="Group_804" data-name="Group 804" clip-path="url(#clip-path-8)">
              <path id="Path_344" data-name="Path 344" d="M10.444,2.969C5.279,1.556.806,1.268.012,2.257c1.227-.732,5.422-.392,10.195.907,5.484,1.5,9.659,3.711,9.329,4.938a.713.713,0,0,1-.1.2.675.675,0,0,0,.34-.4c.33-1.216-3.845-3.422-9.329-4.927" transform="translate(-0.013 -1.676)" fill="#ebb344"/>
            </g>
          </g>
        </g>
        <g id="Group_809" data-name="Group 809" transform="translate(4.136 17.568)" opacity="0.4">
          <g id="Group_808" data-name="Group 808">
            <g id="Group_807" data-name="Group 807" clip-path="url(#clip-path-9)">
              <path id="Path_345" data-name="Path 345" d="M8.575,5.075A37.629,37.629,0,0,0,15.069,6.3,28.763,28.763,0,0,0,6.9,2.931,37.629,37.629,0,0,0,.4,1.7,28.763,28.763,0,0,0,8.575,5.075" transform="translate(-0.403 -1.703)" fill="#f0c747"/>
            </g>
          </g>
        </g>
        <g id="Group_812" data-name="Group 812" transform="translate(0 17.436)" opacity="0.1" style="mix-blend-mode: multiply;isolation: isolate">
          <g id="Group_811" data-name="Group 811">
            <g id="Group_810" data-name="Group 810" clip-path="url(#clip-path-10)">
              <path id="Path_346" data-name="Path 346" d="M10.163,6.2C5.256,4.856,1.411,2.949.885,1.691c-.484.124-.794.32-.866.6-.34,1.227,3.845,3.433,9.329,4.938s10.2,1.732,10.535.505a.616.616,0,0,0-.052-.423c-1.649.443-5.422.052-9.669-1.113" transform="translate(0.001 -1.692)" fill="#a44a11"/>
            </g>
          </g>
        </g>
        <g id="Group_815" data-name="Group 815" transform="translate(22.12 23.501)" opacity="0.3">
          <g id="Group_814" data-name="Group 814">
            <g id="Group_813" data-name="Group 813" clip-path="url(#clip-path-11)">
              <path id="Path_347" data-name="Path 347" d="M2.164,3.733l6.587,1.8.371-1.361L2.174,2.28a11.233,11.233,0,0,0-.01,1.453" transform="translate(-2.152 -2.275)"/>
            </g>
          </g>
        </g>
        <path id="Path_348" data-name="Path 348" d="M49.75,17.862c-1.051,3.845-9.195,15.8-28.327,10.555C3.312,23.459,1.374,8.749,2.436,4.9S14.929.843,28,4.42s22.8,9.6,21.75,13.442" transform="translate(20.5 17.437)" fill="#3a3c46"/>
        <g id="Group_818" data-name="Group 818" transform="translate(22.704 19.706)" opacity="0.3">
          <g id="Group_817" data-name="Group 817">
            <g id="Group_816" data-name="Group 816" clip-path="url(#clip-path-12)">
              <path id="Path_349" data-name="Path 349" d="M23.78,27.362C5.668,22.4,3.73,7.694,4.782,3.849A3.265,3.265,0,0,1,6.771,1.911c-2.4.464-3.979,1.34-4.34,2.649-1.051,3.845.886,18.555,19,23.513,7.226,1.979,12.885,1.495,17.184-.062a29.574,29.574,0,0,1-14.833-.649" transform="translate(-2.211 -1.914)" fill="#09090a"/>
            </g>
          </g>
        </g>
        <g id="Group_821" data-name="Group 821" transform="translate(41.643 21.787)" opacity="0.4">
          <g id="Group_820" data-name="Group 820">
            <g id="Group_819" data-name="Group 819" clip-path="url(#clip-path-13)">
              <path id="Path_350" data-name="Path 350" d="M10.895,2.186l-.3-.072c12.916,3.577,22.5,9.535,21.461,13.349S22.945,31.111,4.04,26.091a2.364,2.364,0,0,0,.289.093C23.46,31.42,31.593,19.473,32.645,15.628S23.966,5.763,10.895,2.186" transform="translate(-4.038 -2.106)" fill="#bfc4ed"/>
            </g>
          </g>
        </g>
        <g id="Group_824" data-name="Group 824" transform="translate(22.704 20.94)" opacity="0.4">
          <g id="Group_823" data-name="Group 823">
            <g id="Group_822" data-name="Group 822" clip-path="url(#clip-path-14)">
              <path id="Path_351" data-name="Path 351" d="M21.781,26.657C3.67,21.7,1.732,6.989,2.784,3.144a2.449,2.449,0,0,1,.722-1.113A2.641,2.641,0,0,0,2.433,3.443C1.382,7.288,3.309,22,21.421,26.956c11.968,3.278,19.627-.165,23.946-4.154C41,26.657,33.44,29.853,21.781,26.657" transform="translate(-2.202 -2.031)" fill="#cbd1fc"/>
            </g>
          </g>
        </g>
        <g id="Group_827" data-name="Group 827" transform="translate(22.704 19.556)" opacity="0.2">
          <g id="Group_826" data-name="Group 826">
            <g id="Group_825" data-name="Group 825" clip-path="url(#clip-path-15)">
              <path id="Path_352" data-name="Path 352" d="M26.543,25.523C8.432,20.565,6.494,5.855,7.545,2.01L7.6,1.9c-2.886.4-4.762,1.34-5.164,2.783-1.051,3.845.886,18.565,19,23.523,10.432,2.855,17.575.588,22.1-2.67-4.278,1.5-9.865,1.938-16.988-.01" transform="translate(-2.201 -1.894)" fill="#09090a"/>
            </g>
          </g>
        </g>
        <path id="Path_353" data-name="Path 353" d="M49.611,17.862c-1.051,3.845-12.5,4.061-25.564.484S1.235,8.749,2.3,4.9,14.79.843,27.861,4.42s22.8,9.6,21.75,13.442" transform="translate(20.639 17.437)" fill="#676a7e"/>
        <g id="Group_830" data-name="Group 830" transform="translate(29.548 19.316)" opacity="0.5">
          <g id="Group_829" data-name="Group 829">
            <g id="Group_828" data-name="Group 828" clip-path="url(#clip-path-16)">
              <path id="Path_354" data-name="Path 354" d="M21.823,4.421C14.473,2.411,7.639,1.6,2.866,1.957c4.762-.32,11.494.495,18.74,2.474,13.071,3.577,22.812,9.6,21.76,13.442-.464,1.68-2.917,2.67-6.618,2.948,3.814-.258,6.36-1.247,6.824-2.958C44.634,14.017,34.893,8,21.823,4.421" transform="translate(-2.871 -1.869)" fill="#cbd1fc"/>
            </g>
          </g>
        </g>
        <g id="Group_833" data-name="Group 833" transform="translate(34.151 37.149)" opacity="0.1">
          <g id="Group_832" data-name="Group 832">
            <g id="Group_831" data-name="Group 831" clip-path="url(#clip-path-17)">
              <path id="Path_355" data-name="Path 355" d="M31.692,4.871a2.408,2.408,0,0,0-1.587.67C26.033,9.417,18.694,12.88,7.118,9.705a34.16,34.16,0,0,1-3.8-1.319,29.856,29.856,0,0,0,8.257,3.577C27.5,16.323,35.4,8.169,37.815,3.6a14.517,14.517,0,0,1-6.123,1.268" transform="translate(-3.304 -3.608)" fill="#bfc4ed"/>
            </g>
          </g>
        </g>
        <g id="Group_836" data-name="Group 836" transform="translate(24.038 19.803)" opacity="0.4">
          <g id="Group_835" data-name="Group 835">
            <g id="Group_834" data-name="Group 834" clip-path="url(#clip-path-18)">
              <path id="Path_356" data-name="Path 356" d="M47.448,16.965c-.969,3.525-11.834,3.618-24.276.216S1.433,8.152,2.4,4.626,14.225,1.008,26.667,4.42s21.75,9.02,20.781,12.545" transform="translate(-2.329 -1.922)" fill="#cbd2fc"/>
            </g>
          </g>
        </g>
        <path id="Path_357" data-name="Path 357" d="M47.464,16.942c-.969,3.525-11.834,3.618-24.276.216S1.439,8.129,2.408,4.6,14.241.985,26.683,4.4s21.75,9.02,20.781,12.545" transform="translate(21.765 17.667)" fill="#4d4f5e"/>
        <g id="Group_839" data-name="Group 839" transform="translate(24.102 20.44)" opacity="0.3">
          <g id="Group_838" data-name="Group 838">
            <g id="Group_837" data-name="Group 837" clip-path="url(#clip-path-19)">
              <path id="Path_358" data-name="Path 358" d="M25.023,14.991c-12.442-3.4-21.75-9.02-20.781-12.545a1.9,1.9,0,0,1,.216-.464A3.11,3.11,0,0,0,2.408,3.817c-.969,3.525,8.339,9.143,20.781,12.555,11.865,3.247,22.276,3.3,24.059.237-3.866,1.546-12.555,1.031-22.224-1.618" transform="translate(-2.337 -1.987)"/>
            </g>
          </g>
        </g>
        <g id="Group_842" data-name="Group 842" transform="translate(24.111 19.569)" opacity="0.2">
          <g id="Group_841" data-name="Group 841">
            <g id="Group_840" data-name="Group 840" clip-path="url(#clip-path-20)">
              <path id="Path_359" data-name="Path 359" d="M26.675,4.389C14.234.987,3.369,1.08,2.4,4.606a1.991,1.991,0,0,0-.041.783A64.879,64.879,0,0,1,18.1,7.863C29.655,11.027,38.5,16.1,38.921,19.635c4.762.052,8.03-.845,8.535-2.7.959-3.515-8.339-9.143-20.781-12.545" transform="translate(-2.339 -1.894)" fill="#1d1d21"/>
            </g>
          </g>
        </g>
        <path id="Path_360" data-name="Path 360" d="M26.109,4.389C14.862,1.306,4.925,1.1,2.4,3.688c4.5-.629,11.741.124,19.627,2.278,12.442,3.4,21.74,9.02,20.781,12.545a2.193,2.193,0,0,1-.577.917c2.608-.371,4.309-1.2,4.659-2.495.959-3.515-8.339-9.143-20.781-12.545" transform="translate(22.339 17.675)" fill="#4d4f5e"/>
        <g id="Group_845" data-name="Group 845" transform="translate(24.742 19.574)" opacity="0.2">
          <g id="Group_844" data-name="Group 844">
            <g id="Group_843" data-name="Group 843" clip-path="url(#clip-path-21)">
              <path id="Path_361" data-name="Path 361" d="M26.109,4.389C14.862,1.306,4.925,1.1,2.4,3.688c4.5-.629,11.741.124,19.627,2.278,12.442,3.4,21.74,9.02,20.781,12.545a2.193,2.193,0,0,1-.577.917c2.608-.371,4.309-1.2,4.659-2.495.959-3.515-8.339-9.143-20.781-12.545" transform="translate(-2.402 -1.899)" fill="#1d1d21"/>
            </g>
          </g>
        </g>
        <g id="Group_848" data-name="Group 848" transform="translate(22.857 20.416)" opacity="0.3">
          <g id="Group_847" data-name="Group 847">
            <g id="Group_846" data-name="Group 846" clip-path="url(#clip-path-22)">
              <path id="Path_362" data-name="Path 362" d="M24.622,17.05C11.552,13.474,1.811,7.454,2.872,3.609a2.858,2.858,0,0,1,1.4-1.629A3.231,3.231,0,0,0,2.3,3.908c-1.051,3.845,8.69,9.865,21.75,13.442C34.9,20.328,44.62,20.669,48.207,18.494c-3.979,1.835-13.266,1.381-23.585-1.443" transform="translate(-2.216 -1.982)" fill="#2f3039"/>
            </g>
          </g>
        </g>
        <g id="Group_851" data-name="Group 851" transform="translate(22.857 20.094)" opacity="0.4">
          <g id="Group_850" data-name="Group 850">
            <g id="Group_849" data-name="Group 849" clip-path="url(#clip-path-23)">
              <path id="Path_363" data-name="Path 363" d="M24.313,17.555c-13.071-3.577-22.8-9.6-21.75-13.442A3.629,3.629,0,0,1,5.078,1.949c-1.526.505-2.5,1.258-2.783,2.257-1.051,3.845,8.69,9.865,21.75,13.442,9.875,2.7,18.8,3.237,23.049,1.68-4.34,1.443-13.112.876-22.781-1.773" transform="translate(-2.216 -1.948)" fill="#cbd1fc"/>
            </g>
          </g>
        </g>
        <path id="Path_364" data-name="Path 364" d="M38.873,35.351c-.155,0-.32,0-.495-.01-3.309-.134-20.194-1.144-27.5-8.35-3-2.989-4.762-5.525-5.267-7.576-2.587-1.546-3.144-3.268-3.041-4.608a4.833,4.833,0,0,1,.33-1.33,2.959,2.959,0,0,1-.423-1.587c.041-1.216.845-3.082,4.5-5.03C8.114,6.251,9.073,5.725,9.9,5.272c3.062-1.68,4.391-2.4,6.061-2.546a13.888,13.888,0,0,1,2.288-2.6A.569.569,0,0,1,19.041.2a.567.567,0,0,1-.072.794,12.786,12.786,0,0,0-1.6,1.721c.938.052,2.062.206,3.587.433.876.124,1.9.268,3.1.423.186.031.381.052.577.082C28.9,3.128,32.781,5.179,35.925,8.3c.227.206.454.412.649.629,4.907.742,7.917,2.443,8.288,4.7.206,1.278-.443,2.587-1.866,3.835a5.794,5.794,0,0,1-.227,1.969l.155.464c1.34,4.226,1.072,7.174-.732,7.9a5.323,5.323,0,0,1-3.494.155.607.607,0,0,1,.155.35l.01.33c2.793,1.453,4.329,3.2,4.02,4.721-.124.618-.752,2-4.01,2M7.063,20.157A21.169,21.169,0,0,0,11.67,26.2c7.154,7.051,24.77,7.937,26.76,8.02,1.907.082,3.206-.35,3.35-1.082.134-.67-.68-2-3.123-3.34a3.837,3.837,0,0,1-1.546,1.9c-3.237,2.175-10.586,1.6-16.39-1.278-3.773-1.876-7.2-5.216-8.5-8.587-.608-.165-1.237-.34-1.9-.526a22.257,22.257,0,0,1-3.257-1.144m6.566,2.062a16.976,16.976,0,0,0,7.6,7.185c5.474,2.721,12.318,3.319,15.256,1.35a2.681,2.681,0,0,0,1.155-1.474c-.526-.247-1.1-.484-1.752-.722a120.613,120.613,0,0,0-12.658-3.793c-2.515-.66-5.525-1.443-9.6-2.546M13.1,20.9c4.484,1.237,7.721,2.072,10.411,2.773A120.658,120.658,0,0,1,36.265,27.5c.536.2,1.031.4,1.5.608a.6.6,0,0,1,.433-.33,5.129,5.129,0,0,1-2.536-2.144,8.043,8.043,0,0,1-5.886-.876,13.522,13.522,0,0,1-3.309-2.793c-4.412,1.845-8.916-.722-11.916-4.154a4.627,4.627,0,0,0-1.2-.948,3.3,3.3,0,0,0-.278.577A5.183,5.183,0,0,0,13.1,20.9m23.688,4.412a4.213,4.213,0,0,0,4.989,1.433c1.031-.4,1.134-2.711.309-5.721l-.052.093a10.111,10.111,0,0,1-5.247,4.2m-9.277-3.866a12.463,12.463,0,0,0,2.845,2.34,6.856,6.856,0,0,0,4.886.794c-.454-1.855.381-4.247,4.03-6.051.577-.3,1.113-.588,1.587-.9a30.269,30.269,0,0,0-2.154-4.061c-.175-.1-.34-.206-.505-.309-.216,1.258-1.082,2.752-3.371,4.216A12.38,12.38,0,0,1,29.905,19.3a5.363,5.363,0,0,1-1.185,1.3,10.713,10.713,0,0,1-1.206.845m13.792-2.752c-.474.289-.979.567-1.536.845-2.618,1.289-3.866,3.041-3.443,4.752a8.957,8.957,0,0,0,4.742-3.752,6.4,6.4,0,0,0,.515-1.082l-.278-.763M14.062,15.961a5.676,5.676,0,0,1,1.34,1.1c1.33,1.515,5.587,5.731,10.318,3.989-.557-.732-1.031-1.464-1.474-2.165-.474-.134-.948-.3-1.423-.474a16.89,16.89,0,0,1-6.061-4.01c-.113.041-.237.093-.371.134a6.675,6.675,0,0,0-2.33,1.423m11.751,3.278c.3.443.608.886.959,1.33a9.517,9.517,0,0,0,1.247-.845c.113-.093.227-.2.33-.289a15.1,15.1,0,0,1-2.536-.2M6.63,18.7a21.085,21.085,0,0,0,3.989,1.515c.412.113.814.227,1.206.33a5.982,5.982,0,0,1,.206-3.515,3.75,3.75,0,0,1,.309-.649,6.8,6.8,0,0,0-3.732-.361,2.4,2.4,0,0,0-1.928,1.526A2.694,2.694,0,0,0,6.63,18.7m18.338-.794a12.4,12.4,0,0,0,4.226.34,9.642,9.642,0,0,0,.67-4.092c.031-1.794.072-3.484,1.289-4.525a3.319,3.319,0,0,1,.752-.474A18.806,18.806,0,0,0,19.649,6.169C16,7.529,15.958,8.787,15.907,10.1a9.573,9.573,0,0,1-.082,1.062,9.624,9.624,0,0,0,1.3,1.959c4.216-1.155,5.793,1.443,7.607,4.4l.237.392m8.185-7.968a2.664,2.664,0,0,0-1.268.546c-.835.711-.866,2.093-.9,3.7a12.756,12.756,0,0,1-.484,3.866,11.362,11.362,0,0,0,3.721-1.526c1.938-1.237,2.917-2.567,2.917-3.948-.783-.505-1.526-1-2.247-1.484-.6-.4-1.175-.783-1.742-1.155M3.764,14.456a3.6,3.6,0,0,0-.072.443,3.556,3.556,0,0,0,1.783,3.092A2.946,2.946,0,0,1,5.6,17.24a3,3,0,0,1,1.062-1.546A6.994,6.994,0,0,1,4.3,14.838a5.023,5.023,0,0,1-.536-.381m14.266-.392a15.973,15.973,0,0,0,5.2,3.3l.1.041c-1.423-2.3-2.629-3.814-5.3-3.34m23.08,1.474c.227.433.433.856.629,1.289a4.042,4.042,0,0,0-.629-1.289m-1.629-2.814.4.237a6.192,6.192,0,0,1,2.845,3.216,2.873,2.873,0,0,0,1.021-2.371c-.247-1.536-2.474-2.814-6.051-3.536a27.544,27.544,0,0,1,1.783,2.453m-27.512,2.35a8.98,8.98,0,0,1,1.051.35A7.534,7.534,0,0,1,15.979,13.5c-.247-.309-.464-.629-.67-.938a6.144,6.144,0,0,1-2.391,2.051,10.035,10.035,0,0,1-.948.464M4.218,13.343a3.273,3.273,0,0,0,.68.536,7.8,7.8,0,0,0,7.473-.247c1.526-.845,2.062-1.587,2.268-2.35a6.949,6.949,0,0,1-.309-.886,7.841,7.841,0,0,1-.2-3.288C9.609,8.416,5.609,10.9,4.218,13.343M15.175,4.014a22.143,22.143,0,0,0-4.742,2.247c-.825.454-1.783.979-2.927,1.587-2.474,1.33-3.866,2.773-3.9,4.072l.01.289C5.578,9.478,9.949,7.086,14.412,5.88a10.4,10.4,0,0,1,.763-1.866M35.111,9.89l.412.268c.381.258.773.526,1.175.783a7.422,7.422,0,0,0-.412-.639c-.093-.1-.186-.216-.289-.32-.309-.041-.608-.072-.887-.093M23.391,5.045A20.327,20.327,0,0,1,33.41,8.766a8.889,8.889,0,0,1,1.3-.031A22.63,22.63,0,0,0,24.617,4.8a8.923,8.923,0,0,0-1,.186l-.227.062M15.35,6.787a7.11,7.11,0,0,0-.165,1.258A4.149,4.149,0,0,1,16.453,6.55c-.371.072-.732.155-1.1.237M16.6,3.829a10.877,10.877,0,0,0-.876,1.732,21.65,21.65,0,0,1,2.34-.381c.464-.052.917-.1,1.361-.134.618-.227,1.319-.454,2.113-.68-.258-.031-.505-.072-.742-.1a24.771,24.771,0,0,0-4.2-.433" transform="translate(23.037 0)" fill="#e89f36"/>
        <path id="Path_365" data-name="Path 365" d="M36.139,34.672c-2.309,0-4.876-.763-8.154-1.742a103.922,103.922,0,0,0-12.864-3.154C6.483,28.292,3.535,22.313,4.442,17.046a9.6,9.6,0,0,1,1.206-3.278l-.371-.34C1.844,10.036,2.03,5.439,4.163,3.13c1.711-1.855,4.989-2.587,9.071.938.3.258.577.515.845.773a17.581,17.581,0,0,1,1.691-.886A2.393,2.393,0,0,1,15.8,3.48c.33-2.123,3.02-3.433,6.865-3.3C26.831.305,29.429,1.449,30.2,3.5a4.358,4.358,0,0,1-.155,3.123,26.042,26.042,0,0,1,3.309-.34,26.939,26.939,0,0,1,8.916,1c2.206-2.412,3.412-2.567,3.69-2.567a.562.562,0,0,1,0,1.124c.01,0-.835.113-2.525,1.855,2.443.979,4.02,2.422,4.309,4.144s-.825,3.35-3.113,4.752a6.025,6.025,0,0,1,.237,4.35,5.807,5.807,0,0,1-2.165,2.793c1.247,3.443,1.866,6.741-.928,8.916a8.71,8.71,0,0,1-5.639,2.02M5.761,16.314q-.124.464-.216.928c-.8,4.711,1.9,10.071,9.772,11.421a108.6,108.6,0,0,1,13,3.185c6.092,1.825,9.154,2.732,12.761-.082,2.175-1.691,1.721-4.391.649-7.432a15.242,15.242,0,0,1-6.979,1.381,17.638,17.638,0,0,1-4.01-.371,10.888,10.888,0,0,1-2.02.629c-5.144,1.1-7.113-1.814-8.576-5.257a15.488,15.488,0,0,1-3.1,2.093c5.453,5.03,16.153,9.432,20.41,8.288a.553.553,0,0,1,.691.392.561.561,0,0,1-.392.691c-4.69,1.289-16.184-3.443-21.843-8.916a8.055,8.055,0,0,1-6.381-.814,6.267,6.267,0,0,1-3.762-6.133m15.277,3.628c1.381,3.35,2.979,5.886,7.442,4.927a3.488,3.488,0,0,0,.35-.082A11.107,11.107,0,0,1,22.522,18.6l-.206.186c-.433.4-.856.783-1.278,1.155m11.215,4.515a23.018,23.018,0,0,0,2.484.134,14.168,14.168,0,0,0,6.587-1.319c-.206-.536-.423-1.072-.639-1.618-.392-.969-.783-1.948-1.124-2.917l-.237.062a11.1,11.1,0,0,1-5.175.484,6.439,6.439,0,0,1,.1,1.319,5.006,5.006,0,0,1-2,3.855M23.4,17.808c1.165,2.629,2.9,5.329,7.2,6.36a4.055,4.055,0,0,0,2.525-3.608,5.812,5.812,0,0,0-.2-1.649,5.039,5.039,0,0,1-.526-.268c-1.763-1-2.67-2.866-3.319-4.938a27.846,27.846,0,0,0-5.68,4.1m17.235.577c.33.938.711,1.9,1.093,2.845.2.464.381.938.567,1.412a4.633,4.633,0,0,0,1.515-2.072,4.9,4.9,0,0,0-.165-3.433,21.386,21.386,0,0,1-3.01,1.247M7.153,14.716A7.2,7.2,0,0,0,6.9,16.159a5.239,5.239,0,0,0,3.144,5.288A7.23,7.23,0,0,0,15,22.313a10.192,10.192,0,0,1-1.855-2.773c-.732-1.66-.979-4,1.825-5.886-.4.186-.794.35-1.185.515-2.1.845-4.453,1.495-6.628.546m9.762-.886c-.34.175-.7.371-1.082.608-1.959,1.216-2.495,2.732-1.66,4.659a10.306,10.306,0,0,0,1.989,2.845,13.672,13.672,0,0,0,3.525-2.319l-.3-.763a21.165,21.165,0,0,0-2.474-5.03m1.072-.443a23.743,23.743,0,0,1,2.453,5.072l.155.381c.32-.289.639-.588.969-.876.155-.155.32-.3.484-.454-.113-.268-.227-.546-.33-.8-.2-.495-.381-.948-.567-1.371a2.272,2.272,0,0,1-.649-.01c-.928-.165-1.495-.928-2.1-2.041-.134.031-.268.062-.412.1M33.84,18.045A9.09,9.09,0,0,0,39,17.716l.206-.052a9.94,9.94,0,0,1-.464-5.072,9.935,9.935,0,0,0-5.639-.35,17.036,17.036,0,0,0-2.515.773,13.837,13.837,0,0,1,3.247,5.03m5.968-4.979a9.376,9.376,0,0,0,.474,4.257,21.728,21.728,0,0,0,2.855-1.185,8.172,8.172,0,0,0-1.825-2.072,9.535,9.535,0,0,0-1.5-1m-9.143,1.711a6.237,6.237,0,0,0,1.587,2.381,13.292,13.292,0,0,0-1.587-2.381m-8.442.206c.186.412.361.845.546,1.3l.165.433a27.346,27.346,0,0,1,5.649-4.02,17.683,17.683,0,0,0-1.855-1.381c-.35.361-.742.732-1.144,1.113a15.906,15.906,0,0,1-3.36,2.556m17.926-3a10.02,10.02,0,0,1,1.876,1.206,9.38,9.38,0,0,1,2.1,2.4c1.8-1.113,2.7-2.35,2.5-3.577-.206-1.278-1.639-2.536-4.02-3.422a35.012,35.012,0,0,0-2.123,2.793,3.86,3.86,0,0,0-.34.6M19.811,13.469a1.947,1.947,0,0,0,.691.68,2.275,2.275,0,0,0-.691-.68M7.5,13.654c1.484.7,3.278.505,5.855-.536.629-.247,1.278-.546,1.948-.856a6.053,6.053,0,0,0-2.525-1.031,5.559,5.559,0,0,0-4.773,1.34c-.186.361-.35.722-.505,1.082M19.048,12.1a3.108,3.108,0,0,1,.783.144,3.424,3.424,0,0,1,1.886,1.732,14.371,14.371,0,0,0,3.1-2.381c.32-.3.629-.588.917-.876a14.529,14.529,0,0,0-2.227-1.041c-1.66.66-3.2,1.392-4.628,2.093l.165.33M7.72,2.728A3.642,3.642,0,0,0,4.988,3.892C3.2,5.82,3.112,9.706,6.07,12.623c.072.072.144.134.206.206a7.726,7.726,0,0,1,.773-.866,18.764,18.764,0,0,1,6.051-6.5c-.2-.186-.392-.361-.6-.536a7.589,7.589,0,0,0-4.783-2.2m21.162,6.02c.227.732.412,1.474.6,2.2.1.4.206.794.309,1.185a17.006,17.006,0,0,1,3.072-.979,10.988,10.988,0,0,1,6.257.381,5.417,5.417,0,0,1,.443-.783c.691-1,1.319-1.835,1.9-2.525A25.873,25.873,0,0,0,33.4,7.407a24.453,24.453,0,0,0-3.958.474q-.247.417-.557.866M11.74,10.015a7.427,7.427,0,0,1,4.711,1.691c.3-.144.608-.3.917-.443a21.128,21.128,0,0,0-3.453-4.989A18.883,18.883,0,0,0,9.39,10.448a6.481,6.481,0,0,1,2.35-.433m15.771.454q.433.278.835.588c-.1-.4-.206-.8-.309-1.2-.165.206-.34.4-.526.608M14.894,5.676a21.99,21.99,0,0,1,3.484,5.082c1.093-.536,2.247-1.082,3.464-1.608C18.368,8.036,16.626,6.5,16.028,5.078c-.381.186-.763.381-1.134.6M25.048,9.1a13.665,13.665,0,0,1,1.495.773,17.074,17.074,0,0,0,1.1-1.33l-.082-.227c-.866.227-1.7.495-2.515.783M17.059,4.624c.515,1.237,2.319,2.649,5.742,3.639.237.062.464.134.691.206a37.329,37.329,0,0,1,3.67-1.216c-.9-2.051-2.278-3.536-5.03-3.6a12.629,12.629,0,0,0-4.329.7c-.247.082-.495.175-.742.268m4.824-2.1h.278c3.422.082,5.082,2.02,6.1,4.453l.443-.093a3.743,3.743,0,0,0,.433-2.989c-.577-1.557-2.9-2.484-6.5-2.587-3.494-.113-5.329.979-5.68,2.154.165-.062.33-.124.495-.175a13.873,13.873,0,0,1,4.432-.763" transform="translate(24.369 1.606)" fill="#ecb83a"/>
        <path id="Path_366" data-name="Path 366" d="M34,29.811c-10.432,0-19.1-3.742-22-7.906A8.527,8.527,0,0,1,8.71,20.658c-4.34-2.577-6.917-7.607-5.989-11.71.515-2.237,2.515-6.092,10.226-6.772,4.144-.371,6.824.268,8.185,1.928a4.357,4.357,0,0,1,.845,1.691A26,26,0,0,1,32.893,7.711a8.711,8.711,0,0,0-7.958-5.927A.565.565,0,1,1,25.048.66,10.163,10.163,0,0,1,33.12,5.515a10.021,10.021,0,0,1,1.113,2.773c.526.237,1.031.495,1.515.752,6.7-1.763,10.277.113,11.411,2.68,1.546,3.474-1.1,9.215-9.143,13.452-6.2,3.257-8.834,2.216-9.855,1.309a2.932,2.932,0,0,1-.979-2.072,31.491,31.491,0,0,1-10.215-3.989,8.727,8.727,0,0,1-3.577,1.484c3.226,3.773,12.04,7.133,22.142,6.752a.567.567,0,1,1,.041,1.134c-.526.01-1.051.021-1.577.021m-5.649-5.175a1.79,1.79,0,0,0,.557,1C29.347,26.028,31,27,35.315,25.2a21.253,21.253,0,0,1-4.164-.134c-.959-.113-1.9-.258-2.8-.433m.031-1.134c.938.175,1.907.33,2.907.443,3.938.464,6.6.01,7.319-1.268.433-.773.113-1.938-.886-3.206a10.343,10.343,0,0,0-1.33-1.381,10.818,10.818,0,0,0-4.422,1.237,9.138,9.138,0,0,1-2.732,2.34,5.878,5.878,0,0,0-.68,1.237,4.835,4.835,0,0,0-.175.6M25.4,22.812c.608.165,1.227.32,1.876.464a4.432,4.432,0,0,1,.237-.773l.031-.1a9.84,9.84,0,0,1-2.144.412M37.964,18.05a8.107,8.107,0,0,1,.639.732c1.175,1.495,1.577,2.917,1.155,4.061,5.669-3.68,7.556-8,6.37-10.669-.845-1.907-3.68-3.412-8.968-2.309A15.62,15.62,0,0,1,40.9,13.04c1.309,1.629,1.216,2.742.9,3.391-.484,1-1.773,1.546-3.835,1.618m-18.049.278a3.587,3.587,0,0,0,2.969,3.123,7.787,7.787,0,0,0,5.608-.66A9.327,9.327,0,0,1,31.2,18.473a8.534,8.534,0,0,0,.969-1.68q.263-.588.464-1.175a21.585,21.585,0,0,0-5.515-1.876,56.755,56.755,0,0,0-7.205,4.587m-7.3,2.474a5.824,5.824,0,0,0,3.33-1.072,15.093,15.093,0,0,1-3.041-2.845,3.125,3.125,0,0,0-.783,2.536,4.218,4.218,0,0,0,.495,1.381m5.371-1.072c.505.3,1.041.6,1.6.876a4.1,4.1,0,0,1-.691-1.526c-.309.227-.608.443-.907.649M15.06,3.206c-.618,0-1.3.031-2.02.093-5.185.464-8.453,2.546-9.215,5.9C3,12.844,5.339,17.349,9.287,19.689a8.364,8.364,0,0,0,2,.907,4.617,4.617,0,0,1-.278-1.01,4.241,4.241,0,0,1,1.237-3.649,6.389,6.389,0,0,1-.99-2.927c-.1-1.835.711-5.144,7.412-6.741A18.985,18.985,0,0,1,20.832,5.9a3.05,3.05,0,0,0-.577-1.082c-.876-1.072-2.618-1.608-5.2-1.608M13.72,16.112a14.144,14.144,0,0,0,3.247,2.958c.567-.392,1.165-.835,1.825-1.319l.031-.268a25.1,25.1,0,0,1,.907-3.8c-.464.093-.928.206-1.392.33a13.532,13.532,0,0,0-4.618,2.1m19.926.041c-.134.361-.278.732-.443,1.093-.062.134-.113.268-.186.392A13.2,13.2,0,0,1,35.13,17.1a17.43,17.43,0,0,0-1.484-.948m.35-1.1a18.334,18.334,0,0,1,2.773,1.886c.206-.01.423-.01.629-.01h.082c1.8,0,3-.361,3.309-.99.237-.495-.041-1.289-.763-2.2a15.614,15.614,0,0,0-4.432-3.484c-.34.093-.68.2-1.041.309A14.235,14.235,0,0,1,34,15.05m-13.04-1.567-.021.093c-.34,1.155-.67,2.257-.866,3.247a55.764,55.764,0,0,1,5.206-3.36,18.926,18.926,0,0,0-4.319.021m.082-6.473a16.456,16.456,0,0,0-2.113.361c-4.371,1.041-6.69,3.02-6.546,5.566a5.286,5.286,0,0,0,.711,2.237,14.418,14.418,0,0,1,4.938-2.247,18.8,18.8,0,0,1,2.051-.454,17.5,17.5,0,0,0,.959-5.463m7.7,5.907a22.415,22.415,0,0,1,4.237,1.6,13.126,13.126,0,0,0,.464-3.556c-1.732.629-3.288,1.289-4.7,1.959m-5.422-.711a20.417,20.417,0,0,1,3.67.33,52.112,52.112,0,0,1,6.1-2.649l.278-.1c-.031-.227-.062-.454-.113-.68A25.44,25.44,0,0,0,22.142,6.917a16.8,16.8,0,0,1-.845,5.391,19.082,19.082,0,0,1,2.02-.1" transform="translate(23.575 6.137)" fill="#f0c840"/>
        <path id="Path_367" data-name="Path 367" d="M10.367,2.87c0,.773-1.268,1.392-2.824,1.392S4.708,3.643,4.708,2.87s1.268-1.4,2.835-1.4,2.824.629,2.824,1.4" transform="translate(43.822 13.669)" fill="#e59030"/>
        <path id="Path_368" data-name="Path 368" d="M10.367,2.8C10.367,3.577,9.1,4.2,7.543,4.2S4.708,3.577,4.708,2.8,5.976,1.4,7.543,1.4s2.824.629,2.824,1.4" transform="translate(43.822 13.054)" fill="#e6983c"/>
        <g id="Group_854" data-name="Group 854" transform="translate(48.535 15.078)" opacity="0.3">
          <g id="Group_853" data-name="Group 853">
            <g id="Group_852" data-name="Group 852" clip-path="url(#clip-path-24)">
              <path id="Path_369" data-name="Path 369" d="M7.852,3.318c-1.557,0-2.824-.629-2.824-1.4a.791.791,0,0,1,.165-.454,1,1,0,0,0-.484.773c0,.773,1.268,1.4,2.835,1.4A3.371,3.371,0,0,0,10.192,2.7a4.109,4.109,0,0,1-2.34.618" transform="translate(-4.712 -1.456)" fill="#f1cd9c"/>
            </g>
          </g>
        </g>
        <path id="Path_370" data-name="Path 370" d="M10.691,2.632c.381.67-.4,1.845-1.763,2.618s-2.763.866-3.144.2.4-1.845,1.763-2.618,2.763-.866,3.144-.2" transform="translate(52.941 20.297)" fill="#e59030"/>
        <path id="Path_371" data-name="Path 371" d="M10.658,2.575c.381.67-.4,1.845-1.763,2.618s-2.763.866-3.144.2.4-1.845,1.763-2.618,2.763-.866,3.144-.2" transform="translate(52.634 19.767)" fill="#e6983c"/>
        <g id="Group_857" data-name="Group 857" transform="translate(58.288 22.823)" opacity="0.3">
          <g id="Group_856" data-name="Group 856">
            <g id="Group_855" data-name="Group 855" clip-path="url(#clip-path-25)">
              <path id="Path_372" data-name="Path 372" d="M9.009,3.915c-1.35.773-2.763.866-3.144.2a.773.773,0,0,1-.082-.484,1,1,0,0,0-.031.917c.381.67,1.794.577,3.144-.2a3.448,3.448,0,0,0,1.845-2.134,4.152,4.152,0,0,1-1.732,1.7" transform="translate(-5.655 -2.211)" fill="#f1cd9c"/>
            </g>
          </g>
        </g>
        <path id="Path_373" data-name="Path 373" d="M8.051,4.3c-.278.722-1.68.856-3.144.3S2.495,3.011,2.763,2.289s1.68-.856,3.144-.3S8.329,3.578,8.051,4.3" transform="translate(25.296 15.332)" fill="#e59030"/>
        <path id="Path_374" data-name="Path 374" d="M8.075,4.237c-.289.722-1.691.856-3.144.3S2.519,2.949,2.787,2.227s1.67-.856,3.134-.3S8.353,3.516,8.075,4.237" transform="translate(25.519 14.755)" fill="#e6983c"/>
        <g id="Group_860" data-name="Group 860" transform="translate(28.257 16.425)" opacity="0.3">
          <g id="Group_859" data-name="Group 859">
            <g id="Group_858" data-name="Group 858" clip-path="url(#clip-path-26)">
              <path id="Path_375" data-name="Path 375" d="M5.335,4.273C3.872,3.716,2.913,2.686,3.191,1.964a.743.743,0,0,1,.32-.371,1.009,1.009,0,0,0-.722.557c-.278.722.68,1.752,2.144,2.309a3.375,3.375,0,0,0,2.814.072,4.131,4.131,0,0,1-2.412-.258" transform="translate(-2.741 -1.593)" fill="#f1cd9c"/>
            </g>
          </g>
        </g>
        <path id="Path_376" data-name="Path 376" d="M9.816,2.491c-.124.763-1.474,1.185-3.01.938S4.116,2.367,4.229,1.6,5.7.429,7.239.666s2.7,1.062,2.577,1.825" transform="translate(39.292 5.585)" fill="#e59030"/>
        <path id="Path_377" data-name="Path 377" d="M9.826,2.426c-.124.763-1.464,1.185-3.01.938S4.126,2.3,4.239,1.539,5.713.364,7.249.6s2.7,1.062,2.577,1.825" transform="translate(39.385 4.98)" fill="#e6983c"/>
        <g id="Group_863" data-name="Group 863" transform="translate(43.62 5.825)" opacity="0.3">
          <g id="Group_862" data-name="Group 862">
            <g id="Group_861" data-name="Group 861" clip-path="url(#clip-path-27)">
              <path id="Path_378" data-name="Path 378" d="M7.169,2.812C5.622,2.565,4.478,1.75,4.592.988A.783.783,0,0,1,4.839.565a.958.958,0,0,0-.6.691c-.124.763,1.031,1.577,2.567,1.825a3.44,3.44,0,0,0,2.773-.505,4.192,4.192,0,0,1-2.412.237" transform="translate(-4.227 -0.562)" fill="#f1cd9c"/>
            </g>
          </g>
        </g>
        <path id="Path_379" data-name="Path 379" d="M9.308,1.8c-.072.484-.938.752-1.928.6s-1.721-.68-1.639-1.165S6.68.48,7.659.635s1.732.68,1.649,1.165" transform="translate(53.385 5.503)" fill="#e59030"/>
        <path id="Path_380" data-name="Path 380" d="M9.315,1.757c-.072.484-.938.752-1.928.6S5.666,1.675,5.749,1.19s.938-.752,1.917-.6,1.732.68,1.649,1.165" transform="translate(53.451 5.112)" fill="#e6983c"/>
        <g id="Group_866" data-name="Group 866" transform="translate(59.189 5.861)" opacity="0.3">
          <g id="Group_865" data-name="Group 865">
            <g id="Group_864" data-name="Group 864" clip-path="url(#clip-path-28)">
              <path id="Path_381" data-name="Path 381" d="M7.622,2.011C6.633,1.857,5.9,1.331,5.973.846A.624.624,0,0,1,6.128.568a.653.653,0,0,0-.381.454c-.072.484.66,1,1.649,1.155a2.2,2.2,0,0,0,1.773-.32,2.686,2.686,0,0,1-1.546.155" transform="translate(-5.746 -0.57)" fill="#f1cd9c"/>
            </g>
          </g>
        </g>
        <path id="Path_382" data-name="Path 382" d="M7.989,3.259c.052.495-.722.969-1.711,1.072S4.443,4.1,4.391,3.619,5.113,2.651,6.1,2.547s1.835.216,1.886.711" transform="translate(40.851 23.536)" fill="#e59030"/>
        <path id="Path_383" data-name="Path 383" d="M7.985,3.214c.052.495-.722.969-1.711,1.072s-1.835-.227-1.886-.711S5.1,2.606,6.1,2.5s1.835.216,1.886.711" transform="translate(40.814 23.148)" fill="#e6983c"/>
        <g id="Group_869" data-name="Group 869" transform="translate(45.197 26.197)" opacity="0.3">
          <g id="Group_868" data-name="Group 868">
            <g id="Group_867" data-name="Group 867" clip-path="url(#clip-path-29)">
              <path id="Path_384" data-name="Path 384" d="M6.449,3.551c-.99.1-1.835-.216-1.886-.711a.457.457,0,0,1,.082-.3.609.609,0,0,0-.258.526c.041.484.886.8,1.886.711A2.19,2.19,0,0,0,7.9,3.015a2.658,2.658,0,0,1-1.453.536" transform="translate(-4.383 -2.541)" fill="#f1cd9c"/>
            </g>
          </g>
        </g>
        <path id="Path_385" data-name="Path 385" d="M4.281,1.756C2.569,5.178,5.146,7.92,6.074,7.663s1.237-1.237.794-1.629S5.115,3.581,5.342,2.21,4.734.849,4.281,1.756" transform="translate(34.509 10.401)" fill="#d43333"/>
        <g id="Group_872" data-name="Group 872" transform="translate(38.219 11.533)" opacity="0.2">
          <g id="Group_871" data-name="Group 871">
            <g id="Group_870" data-name="Group 870" clip-path="url(#clip-path-30)">
              <path id="Path_386" data-name="Path 386" d="M5.136,1.153c-.237-.124-.608.093-.856.588C2.569,5.163,5.146,7.9,6.074,7.657a1.6,1.6,0,0,0,.557-.3A5.106,5.106,0,0,1,5.136,1.153" transform="translate(-3.71 -1.115)" fill="#aa2a2a"/>
            </g>
          </g>
        </g>
        <g id="Group_875" data-name="Group 875" transform="translate(39.202 12.263)" opacity="0.4">
          <g id="Group_874" data-name="Group 874">
            <g id="Group_873" data-name="Group 873" clip-path="url(#clip-path-31)">
              <path id="Path_387" data-name="Path 387" d="M4.1,1.31s-.763,2.525.144,3.917,1.546.928.938-.041A4.937,4.937,0,0,1,4.392,2.98C4.3,2.382,4.433.733,4.1,1.31" transform="translate(-3.804 -1.189)" fill="#de5959"/>
            </g>
          </g>
        </g>
        <path id="Path_388" data-name="Path 388" d="M5.352,3.764c2.072,3.216,5.742,2.391,6,1.474s-.433-1.7-1-1.515-3,.258-4.072-.639-1.474-.165-.928.68" transform="translate(47.57 24.845)" fill="#d43333"/>
        <g id="Group_878" data-name="Group 878" transform="translate(52.683 27.578)" opacity="0.2">
          <g id="Group_877" data-name="Group 877">
            <g id="Group_876" data-name="Group 876" clip-path="url(#clip-path-32)">
              <path id="Path_389" data-name="Path 389" d="M5.273,2.675c-.227.144-.227.567.072,1.031,2.072,3.226,5.752,2.391,6,1.474a1.464,1.464,0,0,0,.031-.629,5.121,5.121,0,0,1-6.1-1.876" transform="translate(-5.107 -2.675)" fill="#aa2a2a"/>
            </g>
          </g>
        </g>
        <g id="Group_881" data-name="Group 881" transform="translate(53.423 27.94)" opacity="0.4">
          <g id="Group_880" data-name="Group 880">
            <g id="Group_879" data-name="Group 879" clip-path="url(#clip-path-33)">
              <path id="Path_390" data-name="Path 390" d="M5.237,2.894S7.02,4.832,8.669,4.76s1.587-.856.443-.825A4.862,4.862,0,0,1,6.8,3.492c-.546-.227-1.907-1.175-1.567-.6" transform="translate(-5.181 -2.709)" fill="#de5959"/>
            </g>
          </g>
        </g>
        <path id="Path_391" data-name="Path 391" d="M8.332.484c-3.608,1.268-3.67,5.03-2.824,5.494s1.752-.031,1.7-.618.454-2.979,1.577-3.814S9.291.154,8.332.484" transform="translate(47.115 3.623)" fill="#d43333"/>
        <g id="Group_884" data-name="Group 884" transform="translate(52.179 4.011)" opacity="0.2">
          <g id="Group_883" data-name="Group 883">
            <g id="Group_882" data-name="Group 882" clip-path="url(#clip-path-34)">
              <path id="Path_392" data-name="Path 392" d="M9.359.653C9.276.4,8.864.3,8.338.478,4.72,1.746,4.669,5.509,5.5,5.972a1.4,1.4,0,0,0,.608.175A5.12,5.12,0,0,1,9.359.653" transform="translate(-5.06 -0.393)" fill="#aa2a2a"/>
            </g>
          </g>
        </g>
        <g id="Group_887" data-name="Group 887" transform="translate(53.11 4.739)" opacity="0.4">
          <g id="Group_886" data-name="Group 886">
            <g id="Group_885" data-name="Group 885" clip-path="url(#clip-path-35)">
              <path id="Path_393" data-name="Path 393" d="M7.842.48S5.544,1.768,5.224,3.4s.464,1.742.7.618a4.9,4.9,0,0,1,.969-2.144C7.244,1.387,8.481.294,7.842.48" transform="translate(-5.155 -0.462)" fill="#de5959"/>
            </g>
          </g>
        </g>
        <path id="Path_394" data-name="Path 394" d="M6.094.847C2.476,2.115,2.425,5.877,3.27,6.341s1.752-.031,1.7-.618.454-2.979,1.577-3.814S7.043.507,6.094.847" transform="translate(26.263 6.961)" fill="#d43333"/>
        <g id="Group_890" data-name="Group 890" transform="translate(29.087 7.717)" opacity="0.2">
          <g id="Group_889" data-name="Group 889">
            <g id="Group_888" data-name="Group 888" clip-path="url(#clip-path-36)">
              <path id="Path_395" data-name="Path 395" d="M7.118,1.011C7.035.753,6.623.66,6.1.846,2.479,2.114,2.428,5.876,3.263,6.33a1.4,1.4,0,0,0,.608.175A5.12,5.12,0,0,1,7.118,1.011" transform="translate(-2.827 -0.745)" fill="#aa2a2a"/>
            </g>
          </g>
        </g>
        <g id="Group_893" data-name="Group 893" transform="translate(30.018 8.444)" opacity="0.4">
          <g id="Group_892" data-name="Group 892">
            <g id="Group_891" data-name="Group 891" clip-path="url(#clip-path-35)">
              <path id="Path_396" data-name="Path 396" d="M5.6.84S3.3,2.128,2.984,3.757s.464,1.742.7.618a4.792,4.792,0,0,1,.969-2.134C5,1.747,6.241.654,5.6.84" transform="translate(-2.913 -0.816)" fill="#de5959"/>
            </g>
          </g>
        </g>
        <path id="Path_397" data-name="Path 397" d="M7.027,6.075c3.8.423,5.484-2.948,4.917-3.732s-1.587-.732-1.8-.175S8.45,4.663,7.079,4.921,6.027,5.962,7.027,6.075" transform="translate(57.347 16.349)" fill="#d43333"/>
        <g id="Group_896" data-name="Group 896" transform="translate(63.522 18.279)" opacity="0.2">
          <g id="Group_895" data-name="Group 895">
            <g id="Group_894" data-name="Group 894" clip-path="url(#clip-path-38)">
              <path id="Path_398" data-name="Path 398" d="M6.164,5.328c-.031.268.3.536.856.6,3.8.423,5.474-2.958,4.917-3.732a1.527,1.527,0,0,0-.474-.423,5.1,5.1,0,0,1-5.3,3.556" transform="translate(-6.167 -1.781)" fill="#aa2a2a"/>
            </g>
          </g>
        </g>
        <g id="Group_899" data-name="Group 899" transform="translate(64.186 18.85)" opacity="0.4">
          <g id="Group_898" data-name="Group 898">
            <g id="Group_897" data-name="Group 897" clip-path="url(#clip-path-39)">
              <path id="Path_399" data-name="Path 399" d="M6.381,4.668S9.009,4.5,10,3.173s.34-1.773-.361-.866A5.037,5.037,0,0,1,7.844,3.823c-.526.289-2.113.742-1.464.845" transform="translate(-6.224 -1.825)" fill="#de5959"/>
            </g>
          </g>
        </g>
        <path id="Path_400" data-name="Path 400" d="M4.719,2.3a12.3,12.3,0,0,1,1.34,3.474c.155.618,1.155.515,1.093-.577s-.423-3.35-1.484-3.8-1.608-.216-.948.907" transform="translate(41.235 10.969)" fill="#bccd41"/>
        <g id="Group_902" data-name="Group 902" transform="translate(45.672 12.414)" opacity="0.2">
          <g id="Group_901" data-name="Group 901">
            <g id="Group_900" data-name="Group 900" clip-path="url(#clip-path-40)">
              <path id="Path_401" data-name="Path 401" d="M7.112,4.544c-.237.381-.6.835-.588.144.021-.711-.567-1.979-2.082-3.484a1.3,1.3,0,0,0,.268.856A11.861,11.861,0,0,1,6.04,5.533c.165.618,1.165.515,1.1-.577,0-.124-.021-.268-.031-.412" transform="translate(-4.428 -1.203)" fill="#96a335"/>
            </g>
          </g>
        </g>
        <path id="Path_402" data-name="Path 402" d="M3.916,3.478A11.9,11.9,0,0,1,7.132,5.344c.515.381,1.227-.33.495-1.144S5.194,1.86,4.081,2.179s-1.381.835-.165,1.3" transform="translate(29.018 19.885)" fill="#bccd41"/>
        <g id="Group_905" data-name="Group 905" transform="translate(32.182 22.857)" opacity="0.2">
          <g id="Group_904" data-name="Group 904">
            <g id="Group_903" data-name="Group 903" clip-path="url(#clip-path-41)">
              <path id="Path_403" data-name="Path 403" d="M7.307,3.145c.062.443.062,1.021-.361.474s-1.691-1.175-3.824-1.4a1.451,1.451,0,0,0,.752.505A11.9,11.9,0,0,1,7.1,4.588c.505.381,1.227-.33.484-1.144a3.556,3.556,0,0,0-.278-.3" transform="translate(-3.122 -2.217)" fill="#96a335"/>
            </g>
          </g>
        </g>
        <path id="Path_404" data-name="Path 404" d="M6.638,2.56A12.189,12.189,0,0,1,9.865,4.426c.505.381,1.216-.33.484-1.144S7.916.942,6.8,1.261s-1.381.835-.165,1.3" transform="translate(54.355 11.34)" fill="#bccd41"/>
        <g id="Group_908" data-name="Group 908" transform="translate(60.246 13.398)" opacity="0.2">
          <g id="Group_907" data-name="Group 907">
            <g id="Group_906" data-name="Group 906" clip-path="url(#clip-path-41)">
              <path id="Path_405" data-name="Path 405" d="M10.029,2.227c.052.443.062,1.021-.361.474S7.978,1.526,5.844,1.3A1.451,1.451,0,0,0,6.6,1.8,11.9,11.9,0,0,1,9.823,3.67c.505.381,1.216-.33.484-1.144l-.278-.3" transform="translate(-5.849 -1.303)" fill="#96a335"/>
            </g>
          </g>
        </g>
        <path id="Path_406" data-name="Path 406" d="M4.12,2.32a11.985,11.985,0,0,1,3.69-.454c.639,0,.783-1-.3-1.206s-3.34-.4-4.041.515-.6,1.5.649,1.144" transform="translate(28.268 4.508)" fill="#bccd41"/>
        <g id="Group_911" data-name="Group 911" transform="translate(31.485 5.101)" opacity="0.2">
          <g id="Group_910" data-name="Group 910">
            <g id="Group_909" data-name="Group 909" clip-path="url(#clip-path-43)">
              <path id="Path_407" data-name="Path 407" d="M6.95.494c.309.32.66.783,0,.6-.68-.186-2.062.072-3.9,1.185a1.406,1.406,0,0,0,.907-.052,11.635,11.635,0,0,1,3.69-.454c.639,0,.783-1-.3-1.206a3.556,3.556,0,0,0-.4-.072" transform="translate(-3.058 -0.498)" fill="#96a335"/>
            </g>
          </g>
        </g>
        <path id="Path_408" data-name="Path 408" d="M3.93,2.179a7.507,7.507,0,0,1,2.319-.289c.4,0,.495-.629-.186-.752s-2.1-.258-2.546.32-.371.948.412.722" transform="translate(30.252 9.555)" fill="#bccd41"/>
        <g id="Group_914" data-name="Group 914" transform="translate(33.619 10.648)" opacity="0.2">
          <g id="Group_913" data-name="Group 913">
            <g id="Group_912" data-name="Group 912" clip-path="url(#clip-path-44)">
              <path id="Path_409" data-name="Path 409" d="M5.714,1.033c.2.206.412.495,0,.381a3.62,3.62,0,0,0-2.453.742.894.894,0,0,0,.577-.041,7.7,7.7,0,0,1,2.319-.278c.4,0,.484-.629-.186-.763l-.258-.041" transform="translate(-3.265 -1.029)" fill="#96a335"/>
            </g>
          </g>
        </g>
        <path id="Path_410" data-name="Path 410" d="M5.811,3.229A7.478,7.478,0,0,1,8.13,2.941c.4,0,.495-.629-.186-.752s-2.1-.258-2.546.32-.371.948.412.722" transform="translate(47.76 19.329)" fill="#bccd41"/>
        <g id="Group_917" data-name="Group 917" transform="translate(53.002 21.47)" opacity="0.2">
          <g id="Group_916" data-name="Group 916">
            <g id="Group_915" data-name="Group 915" clip-path="url(#clip-path-45)">
              <path id="Path_411" data-name="Path 411" d="M7.585,2.082c.2.206.412.495,0,.381a3.585,3.585,0,0,0-2.443.742.939.939,0,0,0,.567-.041,7.371,7.371,0,0,1,2.319-.278c.4,0,.484-.629-.186-.763l-.258-.041" transform="translate(-5.14 -2.086)" fill="#96a335"/>
            </g>
          </g>
        </g>
      </g>
    </g>
  </g>
</svg>
