<svg id="Group_99" data-name="Group 99" xmlns="http://www.w3.org/2000/svg" xmlns:xlink="http://www.w3.org/1999/xlink" width="55" height="26.406" viewBox="0 0 55 26.406">
  <defs>
    <clipPath id="clip-path">
      <rect id="Rectangle_753" data-name="Rectangle 753" width="55" height="26.406" fill="none"/>
    </clipPath>
    <clipPath id="clip-path-2">
      <rect id="Rectangle_752" data-name="Rectangle 752" width="55" height="26.408" fill="none"/>
    </clipPath>
    <clipPath id="clip-path-3">
      <rect id="Rectangle_743" data-name="Rectangle 743" width="54.568" height="15.331" fill="none"/>
    </clipPath>
    <clipPath id="clip-path-4">
      <rect id="Rectangle_744" data-name="Rectangle 744" width="54.593" height="15.826" fill="none"/>
    </clipPath>
    <clipPath id="clip-path-5">
      <rect id="Rectangle_745" data-name="Rectangle 745" width="49.575" height="16.88" fill="none"/>
    </clipPath>
    <clipPath id="clip-path-6">
      <rect id="Rectangle_746" data-name="Rectangle 746" width="7.732" height="3.063" fill="none"/>
    </clipPath>
    <clipPath id="clip-path-7">
      <rect id="Rectangle_747" data-name="Rectangle 747" width="54.554" height="19.254" fill="none"/>
    </clipPath>
    <clipPath id="clip-path-8">
      <rect id="Rectangle_748" data-name="Rectangle 748" width="43.36" height="14.277" fill="none"/>
    </clipPath>
    <clipPath id="clip-path-9">
      <rect id="Rectangle_749" data-name="Rectangle 749" width="51.014" height="18.55" fill="none"/>
    </clipPath>
    <clipPath id="clip-path-10">
      <rect id="Rectangle_750" data-name="Rectangle 750" width="52.474" height="13.844" fill="none"/>
    </clipPath>
    <clipPath id="clip-path-11">
      <rect id="Rectangle_751" data-name="Rectangle 751" width="50.995" height="19.058" fill="none"/>
    </clipPath>
  </defs>
  <g id="Group_98" data-name="Group 98" clip-path="url(#clip-path)">
    <g id="Group_97" data-name="Group 97" transform="translate(0 -0.002)">
      <g id="Group_96" data-name="Group 96" clip-path="url(#clip-path-2)">
        <path id="Path_30" data-name="Path 30" d="M54.993,8.206S50.632,7.64,40.5,6.226l-.471-.134c-.126-.031-.259-.071-.385-.11l-.715-.212-.322-.1c-.259-.079-.519-.165-.786-.251l-.236-.079c-.3-.094-.6-.2-.888-.3l-.071-.024c-2.656-.9-5.288-1.909-7.975-2.711h-.008c-.338-.11-.684-.2-1.037-.3l-.039-.016c-.338-.094-.676-.181-1.021-.267l-.055-.008q-.507-.13-1.014-.236l-.063-.016c-.338-.071-.684-.141-1.029-.2l-.047-.008c-.346-.063-.7-.118-1.045-.165l-.031-.008a22.86,22.86,0,0,0-8.8.393c-.322.079-.636.165-.959.259a1.8,1.8,0,0,1-.22.063c-.275.086-.55.173-.825.267-.165.055-.33.118-.5.181-.212.079-.416.149-.621.228-.393.157-.794.322-1.194.5-.2.094-.393.2-.6.291l-.44.212q-.365.177-.707.354l-.3.157c-.448.236-.872.479-1.281.723C3.159,4.858.653,5.149.393,5.6-.424,6.988.268,8.418.378,12.04a3.369,3.369,0,0,0-.031.558,2.234,2.234,0,0,0,.047.393l.008.071A3.435,3.435,0,0,0,.5,13.47l.047.149a2.985,2.985,0,0,0,.141.369l.071.157c.047.086.079.181.134.267l.063.086.079.118a3.912,3.912,0,0,0,.511.644l.141.165c.086.086.189.173.283.259a3.045,3.045,0,0,0,.244.2l.118.11c.055.039.126.079.181.126l.306.2c.11.071.212.141.33.212l.393.212.244.141.079.031c.244.118.5.236.762.346l.275.1c.2.079.4.157.621.228l.11.039c.086.024.181.047.267.079.2.063.393.118.605.173.134.039.275.079.409.11.22.055.448.1.684.157.134.031.267.055.409.086.283.055.581.1.888.157.094.008.181.031.275.039.393.063.809.11,1.234.157.118.016.251.024.369.031.314.031.636.063.966.079.165.016.33.024.5.031.3.016.613.031.927.039.181.008.354.008.534.016.338,0,.684.008,1.037,0h.5c.519-.008,1.045-.024,1.587-.047,1.776-.079,3.4-.141,4.9-.181,11.487-.3,15.479.566,20.8,1.438.464.071.935.149,1.422.22s1,.149,1.516.228,1.076.141,1.65.212c.283.031.55.047.817.055h.047a2.053,2.053,0,0,0,.22,0c.173-.008.346-.008.519-.016l.086-.008L49,20.675c.149-.016.3-.031.44-.055l.141-.024.157-.039h.008l.4-.094.181-.055.11-.039c.126-.039.251-.079.369-.126l.22-.094.063-.031c.118-.047.228-.1.338-.149l.251-.141.024-.016c.1-.055.2-.118.3-.181l.251-.165.275-.212.228-.189.016-.008.236-.228.212-.212c.079-.079.149-.165.22-.251l.008-.008.024-.024.157-.2c.071-.086.134-.181.2-.267s.118-.165.165-.251c.063-.086.11-.189.165-.283a2.729,2.729,0,0,0,.141-.259c.055-.094.094-.2.141-.3l.118-.267.086-.259.039-.094.071-.228.039-.173.024-.094.024-.1.055-.228c.031-.157.039-.322.055-.479Z" transform="translate(-0.001 5.681)" fill="#c27e5a"/>
        <g id="Group_71" data-name="Group 71" transform="translate(0 11.077)" opacity="0.3">
          <g id="Group_70" data-name="Group 70">
            <g id="Group_69" data-name="Group 69" clip-path="url(#clip-path-3)">
              <path id="Path_31" data-name="Path 31" d="M54.479,12.606c-.063.094-.126.181-.2.267-.047.071-.1.134-.157.2L54.1,13.1l-.008.008c-.071.086-.141.165-.22.251l-.212.212c-.079.071-.157.149-.244.22l-.008.008-.228.2c-.094.071-.181.141-.275.2l-.251.173c-.1.063-.2.118-.3.181l-.024.008-.251.141c-.11.055-.22.11-.338.157l-.063.031-.22.086c-.118.047-.244.086-.369.126l-.11.047L50.8,15.2c-.134.039-.267.063-.4.094h-.008l-.165.039-.134.024c-.141.024-.291.039-.44.055l-.212.031h-.086c-.173.016-.346.016-.519.016l-.22.008h-.047c-.267-.008-.534-.031-.817-.063q-.86-.106-1.65-.212c-.526-.071-1.029-.149-1.516-.22s-.959-.149-1.422-.228c-5.319-.872-9.311-1.736-20.8-1.43-1.493.039-3.119.094-4.9.181-.542.024-1.069.039-1.6.047H15.39c-.354,0-.7,0-1.037-.008-.181,0-.354-.008-.534-.008-.314-.016-.629-.024-.935-.039-.165-.016-.33-.024-.5-.031-.33-.024-.652-.047-.966-.079-.118-.016-.251-.024-.369-.031-.424-.047-.841-.1-1.234-.157l-.275-.047c-.306-.047-.605-.1-.888-.157-.141-.024-.275-.055-.409-.086-.236-.047-.464-.1-.684-.157l-.409-.1c-.212-.055-.409-.118-.605-.181-.086-.024-.181-.047-.267-.079l-.11-.039c-.22-.071-.424-.149-.621-.228a2.842,2.842,0,0,1-.275-.1c-.267-.11-.526-.22-.762-.338l-.079-.039c-.086-.039-.157-.086-.244-.134-.134-.071-.267-.149-.393-.22s-.22-.134-.33-.2l-.306-.212c-.055-.039-.126-.079-.181-.126l-.118-.1-.244-.212a2.908,2.908,0,0,1-.283-.259c-.055-.047-.094-.1-.149-.157a5.307,5.307,0,0,1-.5-.644L1.6,9.244l-.063-.094c-.047-.086-.079-.173-.126-.259l-.071-.157A3.678,3.678,0,0,1,1.2,8.356l-.047-.141a3.435,3.435,0,0,1-.094-.409L1.05,7.727A3.153,3.153,0,0,1,1,7.334a3.239,3.239,0,0,1,.039-.55C.948,4.058.54,2.573.689,1.41a.674.674,0,0,0-.3.2C-.419,3.005.265,4.435.375,8.057a4.386,4.386,0,0,0-.031.55c.008.134.031.267.047.393L.4,9.079a3.45,3.45,0,0,0,.1.409l.039.149c.039.118.086.244.141.369l.079.157a1.959,1.959,0,0,0,.126.259l.063.094.079.118a4.832,4.832,0,0,0,.511.644l.141.165.283.259.244.2.118.1.189.126q.141.106.306.212c.1.071.212.141.322.2.126.079.259.149.393.22a2.545,2.545,0,0,0,.251.134l.071.039c.244.118.5.236.762.346.086.031.189.063.275.1.2.071.409.149.621.22l.118.047.259.071c.2.063.4.126.605.181.134.039.275.071.416.11.22.055.448.1.676.149.134.031.267.063.409.086.283.055.581.11.888.157l.275.047c.4.055.809.11,1.234.157l.377.031c.314.031.629.055.959.079l.5.031c.306.016.613.024.935.039.173,0,.354.008.526.008.338.008.691.008,1.037.008h.5c.519-.008,1.045-.024,1.587-.047,1.776-.086,3.4-.141,4.9-.181a86.956,86.956,0,0,1,20.79,1.43c.464.079.935.157,1.43.228s.99.149,1.516.22,1.069.149,1.642.212a7.574,7.574,0,0,0,.825.063h.039l.22-.008c.173,0,.346,0,.519-.008l.086-.008.212-.031c.149-.016.3-.031.448-.055l.134-.024.165-.039a3.7,3.7,0,0,0,.4-.094l.181-.047.11-.039.008-.008c.118-.039.244-.079.361-.126a1.83,1.83,0,0,0,.22-.086l.063-.031c.118-.047.228-.1.338-.157l.251-.141.024-.008c.1-.063.2-.118.3-.181l.251-.173c.094-.063.189-.134.275-.2a2.724,2.724,0,0,0,.228-.2l.016-.008.244-.22.2-.212c.079-.086.149-.165.22-.251l.008-.008.024-.024.165-.2.189-.275a2.646,2.646,0,0,0,.165-.244c.063-.094.118-.189.173-.283l.141-.259.134-.3c.039-.094.086-.181.118-.267l.016-.047-.086.126" transform="translate(0.002 -1.406)" fill="#e9a785"/>
            </g>
          </g>
        </g>
        <g id="Group_74" data-name="Group 74" transform="translate(0 10.582)" opacity="0.2" style="mix-blend-mode: multiply;isolation: isolate">
          <g id="Group_73" data-name="Group 73">
            <g id="Group_72" data-name="Group 72" clip-path="url(#clip-path-4)">
              <path id="Path_32" data-name="Path 32" d="M54.576,12.842l-.22.094c-.118.047-.244.086-.369.126l-.11.039-.181.055c-.134.031-.267.063-.4.086h-.008l-.165.039-.134.024c-.141.031-.291.039-.44.063l-.212.024-.086.008c-.173.008-.346.008-.519.008l-.22.008h-.047a7.434,7.434,0,0,1-.817-.063q-.86-.094-1.65-.212c-.519-.071-1.021-.141-1.516-.22s-.959-.149-1.422-.228a87.46,87.46,0,0,0-20.8-1.43c-1.493.039-3.119.094-4.9.181-.542.024-1.069.039-1.587.047H17.247c-.181-.008-.354-.008-.534-.016-.314-.008-.629-.024-.927-.039-.173-.008-.338-.016-.5-.031-.33-.024-.652-.047-.966-.079-.118-.008-.251-.016-.369-.031-.424-.047-.841-.094-1.234-.157l-.275-.047c-.306-.047-.605-.094-.888-.149-.141-.031-.275-.063-.409-.086-.236-.055-.464-.1-.684-.157-.134-.039-.275-.071-.409-.11-.212-.055-.409-.118-.605-.173-.086-.031-.181-.055-.267-.079l-.11-.047c-.22-.071-.424-.141-.621-.22l-.275-.1c-.267-.11-.519-.228-.762-.346l-.079-.031-.244-.141c-.134-.071-.267-.141-.393-.22-.118-.063-.22-.134-.33-.2l-.306-.212c-.055-.039-.126-.079-.181-.126l-.118-.1-.244-.2c-.094-.086-.2-.173-.283-.259l-.149-.165a4.762,4.762,0,0,1-.5-.644L4.5,7.193l-.071-.086c-.047-.086-.079-.181-.126-.267l-.071-.157a3.554,3.554,0,0,1-.141-.369l-.047-.149a3.435,3.435,0,0,1-.094-.409l-.008-.071a3.506,3.506,0,0,1-.055-.4,4.419,4.419,0,0,1,.039-.55c-.047-1.422-.181-2.506-.275-3.386-1.886.165-3.088.393-3.261.7C-.424,3.437.268,4.867.378,8.489a3.239,3.239,0,0,0-.039.55,3.153,3.153,0,0,0,.055.393L.4,9.511A3.435,3.435,0,0,0,.5,9.919l.047.141c.039.126.086.251.134.377l.079.157c.047.086.079.173.126.259l.063.094.086.118a4.762,4.762,0,0,0,.5.644l.149.165c.086.086.189.173.283.259.079.063.157.134.236.2l.126.1c.055.047.126.086.181.126l.306.212c.11.071.212.141.33.2.126.079.259.149.393.22a2.413,2.413,0,0,0,.244.134l.071.039c.251.118.5.236.77.338a2.841,2.841,0,0,0,.275.1c.2.079.4.157.621.228l.11.047.259.071c.2.063.4.126.613.181.134.039.267.071.409.1.22.063.448.11.684.157.134.031.267.063.4.086.291.055.589.11.9.157l.275.047c.393.055.809.11,1.234.157l.369.031c.314.031.636.055.966.079.165.008.33.024.5.031.306.016.621.024.935.039.181,0,.354.008.534.008.338.008.684.008,1.037.008h.487c.519-.008,1.053-.024,1.6-.047,1.776-.086,3.394-.141,4.9-.181a87.033,87.033,0,0,1,20.8,1.43c.464.079.935.157,1.422.228s.99.149,1.516.22,1.076.149,1.65.212a7.29,7.29,0,0,0,.817.063h.047l.212-.008c.181,0,.354,0,.526-.008l.086-.008L49,17.116c.149-.016.3-.031.44-.055l.134-.024L49.736,17h.008c.134-.031.267-.055.393-.094l.181-.047.118-.039V16.81c.126-.039.251-.079.369-.126l.22-.086.063-.031c.11-.047.228-.1.33-.157l.259-.141.024-.008c.094-.063.2-.118.291-.181a2.843,2.843,0,0,0,.251-.173c.1-.063.189-.134.283-.2l.228-.2.008-.008c.086-.071.165-.149.244-.22l.212-.212c.079-.086.149-.165.22-.251l.008-.008.024-.024c.055-.071.11-.134.157-.2.071-.086.134-.173.2-.267l.165-.244.165-.283c.047-.086.1-.173.141-.259.055-.1.094-.2.141-.3l.11-.267.047-.126-.016.008" transform="translate(-0.001 -1.343)" fill="#c38d71"/>
            </g>
          </g>
        </g>
        <path id="Path_33" data-name="Path 33" d="M9.858,2.187C-5.589,9.219-2.384,18.828,16.521,17.964s21.089.809,30.282,1.909S58.753,7.349,46.4,6.54,23.993-4.248,9.858,2.187" transform="translate(0.294 0.243)" fill="#ecb698"/>
        <path id="Path_34" data-name="Path 34" d="M9.288,2.1C-4.761,8.44-1.854,17.091,15.346,16.313c17.184-.786,19.164.731,27.524,1.721S53.736,6.751,42.508,6.02,22.142-3.7,9.288,2.1" transform="translate(2.459 1.108)" fill="#bb5a5a"/>
        <g id="Group_77" data-name="Group 77" transform="translate(2.946 1.268)" opacity="0.3">
          <g id="Group_76" data-name="Group 76">
            <g id="Group_75" data-name="Group 75" clip-path="url(#clip-path-5)">
              <path id="Path_35" data-name="Path 35" d="M42.4,6.02C31.159,5.29,22.022-3.7,9.167,2.1,3.871,4.488.988,7.215.375,9.635A24.135,24.135,0,0,1,6.692,5.722c12.854-5.8,21.992,3.19,33.22,3.921,6.081.393,8.132,4.172,7.409,7.4,4.235-2.836,3.85-10.45-4.926-11.024" transform="translate(-0.374 -0.159)" fill="#e06b6b"/>
            </g>
          </g>
        </g>
        <path id="Path_36" data-name="Path 36" d="M.118,2.032c3.394-2,3.654.236,11.44,0s11.5-.251,10.607.016a54.82,54.82,0,0,1-11.126.479,37.9,37.9,0,0,0-10.4.786C.173,3.572.118,2.032.118,2.032" transform="translate(0.809 8.2)" fill="#ecb698"/>
        <path id="Path_37" data-name="Path 37" d="M22.517,5.153c-1.933-1.414,2.978.2-5.7-1.438S8.044,1.389,5.27.918s2.357.943,7.425,2.8S20.741,5.42,22,5.86s.519-.707.519-.707" transform="translate(30.81 5.685)" fill="#ecb698"/>
        <path id="Path_38" data-name="Path 38" d="M8.722,8.375c-1.9-.982-2.994-1.579-3.1-2.624a12.343,12.343,0,0,0-1.344-4.1c-.464-.55,1.045.079,1.823,1.909A5.894,5.894,0,0,0,9.091,7.008a17.873,17.873,0,0,1,3.025,1.878,6.949,6.949,0,0,1-3.394-.511" transform="translate(28.772 9.997)" fill="#ecb698"/>
        <path id="Path_39" data-name="Path 39" d="M4.165.7C2.13,2.267.715,2.628,5.524,3.312s6.789,1.619,5.641,2.4-.369,1.045,1.147,0S7.087,2.84,6,2.157,5.469.7,5.469.7,6.2-.868,4.165.7" transform="translate(15.62 0.006)" fill="#ecb698"/>
        <path id="Path_40" data-name="Path 40" d="M14.068,3.222c0,1.014-2.019,1.839-4.518,1.839S5.032,4.235,5.032,3.222,7.051,1.383,9.55,1.383s4.518.825,4.518,1.839" transform="translate(34.505 9.486)" fill="#ecb698"/>
        <g id="Group_80" data-name="Group 80" transform="translate(40.123 11.357)" opacity="0.3">
          <g id="Group_79" data-name="Group 79">
            <g id="Group_78" data-name="Group 78" clip-path="url(#clip-path-6)">
              <path id="Path_41" data-name="Path 41" d="M12.838,2.977c0,.849-1.729,1.532-3.866,1.532S5.107,3.826,5.107,2.977,6.836,1.445,8.973,1.445s3.866.684,3.866,1.532" transform="translate(-5.103 -1.446)" fill="#dd5113"/>
            </g>
          </g>
        </g>
        <path id="Path_42" data-name="Path 42" d="M12.846,2.954c0,.849-1.729,1.532-3.866,1.532S5.115,3.8,5.115,2.954,6.844,1.422,8.981,1.422s3.866.684,3.866,1.532" transform="translate(35.074 9.753)" fill="#f2d1bd"/>
        <g id="Group_83" data-name="Group 83" transform="translate(0.338 0.932)" opacity="0.3" style="mix-blend-mode: multiply;isolation: isolate">
          <g id="Group_82" data-name="Group 82">
            <g id="Group_81" data-name="Group 81" clip-path="url(#clip-path-7)">
              <path id="Path_43" data-name="Path 43" d="M26.8,12.391C10.9,13.122,6.11,6.443,14.171.118a24.574,24.574,0,0,0-4.314,1.5C-5.589,8.651-2.384,18.26,16.521,17.4s21.089.809,30.282,1.909A6.744,6.744,0,0,0,54.6,13.97c-7.284-1.069-10.717-2.365-27.8-1.579" transform="translate(-0.044 -0.12)" fill="#ecb698"/>
            </g>
          </g>
        </g>
        <g id="Group_86" data-name="Group 86" transform="translate(11.633 0.285)" opacity="0.2">
          <g id="Group_85" data-name="Group 85">
            <g id="Group_84" data-name="Group 84" clip-path="url(#clip-path-8)">
              <path id="Path_44" data-name="Path 44" d="M44.773,14.312c.519-3.481-1.807-7.354-8.226-7.779C24.627,5.748,14.853-3.555,1.48,1.568,22.663,3.375,36.3,8.946,44.773,14.312" transform="translate(-1.484 -0.036)" fill="#fff"/>
            </g>
          </g>
        </g>
        <g id="Group_89" data-name="Group 89" transform="translate(3.981 0.285)" opacity="0.3">
          <g id="Group_88" data-name="Group 88">
            <g id="Group_87" data-name="Group 87" clip-path="url(#clip-path-9)">
              <path id="Path_45" data-name="Path 45" d="M43.219,6.54C30.867,5.731,20.818-4.248,6.675,2.187A29,29,0,0,0,.507,5.864,30.157,30.157,0,0,1,6.282,2.5C20.425-3.934,30.474,6.045,42.826,6.854c9.177.605,10.01,8.281,6.066,11.731,4.384-3.276,3.8-11.424-5.673-12.045" transform="translate(-0.505 -0.034)" fill="#fff"/>
            </g>
          </g>
        </g>
        <g id="Group_92" data-name="Group 92" transform="translate(0.347 6.341)" opacity="0.3">
          <g id="Group_91" data-name="Group 91">
            <g id="Group_90" data-name="Group 90" clip-path="url(#clip-path-10)">
              <path id="Path_46" data-name="Path 46" d="M47.124,14.306c-9.193-1.1-11.377-2.781-30.282-1.917C1.521,13.1-3.484,6.92,3.391.807-3.955,7.006.955,13.386,16.513,12.671c18.9-.872,21.089.809,30.282,1.917a7.108,7.108,0,0,0,5.72-1.666,7.152,7.152,0,0,1-5.39,1.383" transform="translate(-0.045 -0.805)" fill="#fff"/>
            </g>
          </g>
        </g>
        <g id="Group_95" data-name="Group 95" transform="translate(3.999 0.287)" opacity="0.2">
          <g id="Group_94" data-name="Group 94">
            <g id="Group_93" data-name="Group 93" clip-path="url(#clip-path-11)">
              <path id="Path_47" data-name="Path 47" d="M51.486,12.885c-.016-.11-.024-.228-.039-.338l-.031-.181L51.4,12.3c-.031-.181-.071-.361-.118-.534l-.008-.039-.016-.063-.047-.149c-.031-.1-.063-.2-.1-.291l-.063-.173-.008-.008-.031-.071c-.039-.094-.079-.189-.126-.283l-.1-.2-.071-.118c-.071-.118-.141-.236-.22-.354l-.063-.1-.079-.118-.063-.079-.2-.244-.141-.173-.086-.086-.2-.212-.181-.173L49.318,8.7l-.149-.126-.251-.189-.2-.149-.031-.024c-.094-.063-.2-.126-.306-.189-.079-.047-.149-.1-.236-.149l-.149-.079c-.071-.047-.173-.086-.259-.134a2.229,2.229,0,0,0-.275-.126L47.2,7.416l-.181-.071c-.11-.047-.228-.086-.338-.126s-.228-.086-.346-.126l-.432-.118c-.11-.031-.212-.063-.33-.086l-.2-.055-.338-.063c-.126-.024-.251-.047-.377-.063-.11-.016-.212-.047-.33-.063l-.22-.024-.385-.039c-.181-.016-.346-.039-.534-.047-.377-.031-.754-.063-1.124-.1L41.7,6.387c-.244-.031-.495-.063-.746-.1l-.424-.071L39.834,6.1,39.394,6c-.212-.047-.44-.086-.668-.141-.141-.031-.283-.063-.424-.1-.228-.055-.448-.1-.668-.165l-.409-.1L36.542,5.3c-.134-.039-.251-.079-.377-.11-.244-.071-.487-.141-.731-.22l-.314-.094c-.259-.086-.526-.165-.794-.251l-.212-.079c-.306-.094-.613-.2-.919-.3l-.047-.016c-2.656-.911-5.288-1.925-7.975-2.726h-.008c-.354-.1-.691-.2-1.045-.3L24.081,1.2c-.338-.094-.676-.181-1.021-.267L23,.919C22.666.84,22.328.754,21.991.683L21.92.675c-.338-.079-.676-.141-1.014-.2L20.851.463C20.5.4,20.16.337,19.8.29h-.016a22.786,22.786,0,0,0-8.816.393c-.314.079-.629.165-.951.259L9.8,1.005c-.283.079-.55.173-.833.267-.173.055-.338.118-.5.173-.2.079-.416.149-.621.236-.4.157-.786.322-1.186.5-.212.094-.4.189-.589.283-.157.071-.306.141-.456.22-.251.11-.471.228-.707.346L4.61,3.2a25.772,25.772,0,0,0-4.1,2.648A82.462,82.462,0,0,1,48.076,19.092l.11-.063.016-.008c.1-.063.2-.118.3-.181a2.842,2.842,0,0,0,.251-.173c.094-.063.189-.134.275-.2l.236-.2.008-.008.251-.22.2-.212a3.3,3.3,0,0,0,.228-.251l.008-.016.016-.016.173-.2.189-.267.173-.244.157-.283.141-.259c.047-.1.094-.2.134-.3s.086-.181.118-.267l.094-.259.031-.1a1.931,1.931,0,0,0,.071-.228l.047-.165.024-.1.024-.094.055-.236a6.435,6.435,0,0,0,.094-.872v-.031l.008-.189-.008-.346-.008-.212" transform="translate(-0.508 -0.041)" fill="#f2cfbb"/>
            </g>
          </g>
        </g>
      </g>
    </g>
  </g>
</svg>
