<svg id="Group_2669" data-name="Group 2669" xmlns="http://www.w3.org/2000/svg" xmlns:xlink="http://www.w3.org/1999/xlink" width="67" height="36.489" viewBox="0 0 67 36.489">
  <defs>
    <clipPath id="clip-path">
      <rect id="Rectangle_1524" data-name="Rectangle 1524" width="67" height="36.489" fill="none"/>
    </clipPath>
    <clipPath id="clip-path-3">
      <rect id="Rectangle_1483" data-name="Rectangle 1483" width="51.044" height="30.808" fill="none"/>
    </clipPath>
    <clipPath id="clip-path-4">
      <rect id="Rectangle_1484" data-name="Rectangle 1484" width="34.877" height="30.941" fill="none"/>
    </clipPath>
    <clipPath id="clip-path-5">
      <rect id="Rectangle_1485" data-name="Rectangle 1485" width="56.067" height="28.378" fill="none"/>
    </clipPath>
    <clipPath id="clip-path-6">
      <rect id="Rectangle_1486" data-name="Rectangle 1486" width="39.142" height="30.94" fill="none"/>
    </clipPath>
    <clipPath id="clip-path-7">
      <rect id="Rectangle_1487" data-name="Rectangle 1487" width="55.714" height="29.835" fill="none"/>
    </clipPath>
    <clipPath id="clip-path-8">
      <rect id="Rectangle_1488" data-name="Rectangle 1488" width="65.699" height="12.663" fill="none"/>
    </clipPath>
    <clipPath id="clip-path-9">
      <rect id="Rectangle_1489" data-name="Rectangle 1489" width="62.292" height="14.614" fill="none"/>
    </clipPath>
    <clipPath id="clip-path-10">
      <rect id="Rectangle_1490" data-name="Rectangle 1490" width="62.241" height="16.162" fill="none"/>
    </clipPath>
    <clipPath id="clip-path-11">
      <rect id="Rectangle_1491" data-name="Rectangle 1491" width="62.062" height="14.671" fill="none"/>
    </clipPath>
    <clipPath id="clip-path-12">
      <rect id="Rectangle_1492" data-name="Rectangle 1492" width="61.997" height="11.507" fill="none"/>
    </clipPath>
    <clipPath id="clip-path-13">
      <rect id="Rectangle_1493" data-name="Rectangle 1493" width="64.399" height="13.35" fill="none"/>
    </clipPath>
    <clipPath id="clip-path-14">
      <rect id="Rectangle_1494" data-name="Rectangle 1494" width="66.108" height="11.939" fill="none"/>
    </clipPath>
    <clipPath id="clip-path-15">
      <rect id="Rectangle_1495" data-name="Rectangle 1495" width="21.46" height="2.787" fill="none"/>
    </clipPath>
    <clipPath id="clip-path-16">
      <rect id="Rectangle_1496" data-name="Rectangle 1496" width="22.518" height="4.938" fill="none"/>
    </clipPath>
    <clipPath id="clip-path-17">
      <rect id="Rectangle_1497" data-name="Rectangle 1497" width="20.408" height="5.342" fill="none"/>
    </clipPath>
    <clipPath id="clip-path-18">
      <rect id="Rectangle_1498" data-name="Rectangle 1498" width="20.171" height="5.317" fill="none"/>
    </clipPath>
    <clipPath id="clip-path-19">
      <rect id="Rectangle_1499" data-name="Rectangle 1499" width="18.838" height="2.273" fill="none"/>
    </clipPath>
    <clipPath id="clip-path-20">
      <rect id="Rectangle_1500" data-name="Rectangle 1500" width="16.333" height="4.104" fill="none"/>
    </clipPath>
    <clipPath id="clip-path-21">
      <rect id="Rectangle_1501" data-name="Rectangle 1501" width="17.101" height="2.414" fill="none"/>
    </clipPath>
    <clipPath id="clip-path-22">
      <rect id="Rectangle_1502" data-name="Rectangle 1502" width="8.94" height="5.287" fill="none"/>
    </clipPath>
    <clipPath id="clip-path-23">
      <rect id="Rectangle_1503" data-name="Rectangle 1503" width="15.429" height="3.666" fill="none"/>
    </clipPath>
    <clipPath id="clip-path-24">
      <rect id="Rectangle_1504" data-name="Rectangle 1504" width="19.003" height="5.399" fill="none"/>
    </clipPath>
    <clipPath id="clip-path-25">
      <rect id="Rectangle_1505" data-name="Rectangle 1505" width="15.393" height="3.319" fill="none"/>
    </clipPath>
    <clipPath id="clip-path-26">
      <rect id="Rectangle_1506" data-name="Rectangle 1506" width="18.97" height="5.307" fill="none"/>
    </clipPath>
    <clipPath id="clip-path-27">
      <rect id="Rectangle_1507" data-name="Rectangle 1507" width="21.195" height="6.041" fill="none"/>
    </clipPath>
    <clipPath id="clip-path-28">
      <rect id="Rectangle_1508" data-name="Rectangle 1508" width="22.812" height="2.434" fill="none"/>
    </clipPath>
    <clipPath id="clip-path-29">
      <rect id="Rectangle_1509" data-name="Rectangle 1509" width="15.026" height="4.387" fill="none"/>
    </clipPath>
    <clipPath id="clip-path-30">
      <rect id="Rectangle_1510" data-name="Rectangle 1510" width="15.019" height="4.046" fill="none"/>
    </clipPath>
    <clipPath id="clip-path-31">
      <rect id="Rectangle_1511" data-name="Rectangle 1511" width="13.985" height="3.28" fill="none"/>
    </clipPath>
    <clipPath id="clip-path-32">
      <rect id="Rectangle_1512" data-name="Rectangle 1512" width="13.983" height="3.216" fill="none"/>
    </clipPath>
    <clipPath id="clip-path-33">
      <rect id="Rectangle_1513" data-name="Rectangle 1513" width="12.695" height="2.283" fill="none"/>
    </clipPath>
    <clipPath id="clip-path-34">
      <rect id="Rectangle_1514" data-name="Rectangle 1514" width="8.7" height="0.995" fill="none"/>
    </clipPath>
    <clipPath id="clip-path-35">
      <rect id="Rectangle_1515" data-name="Rectangle 1515" width="13.695" height="1.063" fill="none"/>
    </clipPath>
    <clipPath id="clip-path-36">
      <rect id="Rectangle_1516" data-name="Rectangle 1516" width="10.263" height="0.917" fill="none"/>
    </clipPath>
    <clipPath id="clip-path-37">
      <rect id="Rectangle_1517" data-name="Rectangle 1517" width="9.195" height="2.08" fill="none"/>
    </clipPath>
    <clipPath id="clip-path-38">
      <rect id="Rectangle_1518" data-name="Rectangle 1518" width="8.752" height="2.743" fill="none"/>
    </clipPath>
    <clipPath id="clip-path-39">
      <rect id="Rectangle_1519" data-name="Rectangle 1519" width="10.224" height="1.384" fill="none"/>
    </clipPath>
    <clipPath id="clip-path-40">
      <rect id="Rectangle_1520" data-name="Rectangle 1520" width="8.821" height="1.644" fill="none"/>
    </clipPath>
    <clipPath id="clip-path-41">
      <rect id="Rectangle_1521" data-name="Rectangle 1521" width="10.934" height="0.992" fill="none"/>
    </clipPath>
    <clipPath id="clip-path-42">
      <rect id="Rectangle_1522" data-name="Rectangle 1522" width="9.21" height="1.229" fill="none"/>
    </clipPath>
  </defs>
  <g id="Group_2051" data-name="Group 2051" clip-path="url(#clip-path)">
    <g id="Group_2050" data-name="Group 2050" transform="translate(0 0)">
      <g id="Group_2049" data-name="Group 2049" clip-path="url(#clip-path)">
        <path id="Path_1376" data-name="Path 1376" d="M67,20.464c0,5.229-2.13,27.019-33.5,27.019C3.757,47.483,0,25.693,0,20.464s67-5.23,67,0" transform="translate(0 -10.994)" fill="#5b656e"/>
        <g id="Group_1931" data-name="Group 1931" transform="translate(0 5.681)" opacity="0.1" style="mix-blend-mode: multiply;isolation: isolate">
          <g id="Group_1930" data-name="Group 1930">
            <g id="Group_1929" data-name="Group 1929" clip-path="url(#clip-path-3)">
              <path id="Path_1377" data-name="Path 1377" d="M23.418,17.951c0-.363.334-.7.935-1.013C11.151,17.33,0,18.594,0,20.727c0,5.229,3.757,27.018,33.5,27.018a44.788,44.788,0,0,0,17.544-3.095c-24.364-2.669-27.625-21.837-27.625-26.7" transform="translate(0 -16.938)" fill="#5b656e"/>
            </g>
          </g>
        </g>
        <g id="Group_1934" data-name="Group 1934" transform="translate(32.123 5.548)" opacity="0.3">
          <g id="Group_1933" data-name="Group 1933">
            <g id="Group_1932" data-name="Group 1932" clip-path="url(#clip-path-4)">
              <path id="Path_1378" data-name="Path 1378" d="M95.78,16.544c16.278.07,32.122,1.376,32.122,3.92,0,5.148-2.085,26.334-32.088,26.988.448.01.882.031,1.343.031,31.371,0,33.5-21.789,33.5-27.018,0-2.687-17.681-3.993-34.877-3.92" transform="translate(-95.78 -16.541)" fill="#d1e8fd"/>
            </g>
          </g>
        </g>
        <g id="Group_1937" data-name="Group 1937" transform="translate(0 8.111)" opacity="0.2">
          <g id="Group_1936" data-name="Group 1936">
            <g id="Group_1935" data-name="Group 1935" clip-path="url(#clip-path-5)">
              <path id="Path_1379" data-name="Path 1379" d="M35.128,51.532c-29.743,0-33.5-21.79-33.5-27.019a.679.679,0,0,1,.1-.329c-1.111.4-1.73.858-1.73,1.359,0,5.229,3.757,27.019,33.5,27.019,10.424,0,17.606-2.412,22.567-5.818-4.871,2.849-11.6,4.788-20.939,4.788" transform="translate(0 -24.184)" fill="#d1e8fd"/>
            </g>
          </g>
        </g>
        <g id="Group_1940" data-name="Group 1940" transform="translate(27.858 5.548)" opacity="0.1">
          <g id="Group_1939" data-name="Group 1939">
            <g id="Group_1938" data-name="Group 1938" clip-path="url(#clip-path-6)">
              <path id="Path_1380" data-name="Path 1380" d="M83.063,16.594c14.671.261,27.857,1.551,27.857,3.872,0,4.887-1.866,24.234-27.718,26.745a54.436,54.436,0,0,0,5.5.273c31.371,0,33.5-21.789,33.5-27.018,0-2.911-20.74-4.2-39.142-3.872" transform="translate(-83.063 -16.544)" fill="#d1e8fd"/>
            </g>
          </g>
        </g>
        <g id="Group_1943" data-name="Group 1943" transform="translate(0 6.653)" opacity="0.1" style="mix-blend-mode: multiply;isolation: isolate">
          <g id="Group_1942" data-name="Group 1942">
            <g id="Group_1941" data-name="Group 1941" clip-path="url(#clip-path-7)">
              <path id="Path_1381" data-name="Path 1381" d="M42.767,45.624c-27.8,0-32.9-19.026-33.444-25.787C3.683,20.489,0,21.427,0,22.654c0,5.229,3.757,27.018,33.5,27.018,10.18,0,17.267-2.3,22.214-5.579a50.506,50.506,0,0,1-12.947,1.53" transform="translate(0 -19.837)" fill="#5b656e"/>
            </g>
          </g>
        </g>
        <path id="Path_1382" data-name="Path 1382" d="M67,9.471C67,14.7,52,18.94,33.5,18.94S0,14.7,0,9.471,15,0,33.5,0,67,4.241,67,9.471" transform="translate(0 -0.001)" fill="#6c7880"/>
        <g id="Group_1946" data-name="Group 1946" transform="translate(0 6.276)" opacity="0.1">
          <g id="Group_1945" data-name="Group 1945">
            <g id="Group_1944" data-name="Group 1944" clip-path="url(#clip-path-8)">
              <path id="Path_1383" data-name="Path 1383" d="M34.158,30.793c-18.5,0-33.5-4.239-33.5-9.469a3.731,3.731,0,0,1,1.3-2.611A4.26,4.26,0,0,0,0,21.907c0,5.229,15,9.469,33.5,9.469,15.3,0,28.187-2.9,32.2-6.858-4.637,3.658-17.007,6.275-31.542,6.275" transform="translate(0 -18.713)" fill="#222629"/>
            </g>
          </g>
        </g>
        <g id="Group_1949" data-name="Group 1949" transform="translate(4.708)" opacity="0.2">
          <g id="Group_1948" data-name="Group 1948">
            <g id="Group_1947" data-name="Group 1947" clip-path="url(#clip-path-9)">
              <path id="Path_1384" data-name="Path 1384" d="M42.83,0C30.587,0,19.882,1.858,14.038,4.629,20.009,2.026,30.368.3,42.158.3c18.5,0,33.5,4.24,33.5,9.469,0,1.77-1.721,3.425-4.709,4.841,3.4-1.482,5.381-3.248,5.381-5.144,0-5.23-15-9.47-33.5-9.47" transform="translate(-14.038 0)" fill="#d2e9fd"/>
            </g>
          </g>
        </g>
        <g id="Group_1952" data-name="Group 1952" transform="translate(2.286 1.024)" opacity="0.4">
          <g id="Group_1951" data-name="Group 1951">
            <g id="Group_1950" data-name="Group 1950" clip-path="url(#clip-path-10)">
              <path id="Path_1385" data-name="Path 1385" d="M69.056,11.135c0,4.463-13.933,8.081-31.12,8.081S6.815,15.6,6.815,11.135,20.748,3.054,37.936,3.054s31.12,3.618,31.12,8.081" transform="translate(-6.815 -3.054)" fill="#d2e9fd"/>
            </g>
          </g>
        </g>
        <path id="Path_1386" data-name="Path 1386" d="M69.336,10.485c0,4.463-13.933,8.081-31.12,8.081S7.1,14.948,7.1,10.485,21.028,2.4,38.216,2.4s31.12,3.618,31.12,8.081" transform="translate(-4.715 -1.598)" fill="#464e55"/>
        <g id="Group_1955" data-name="Group 1955" transform="translate(2.558 0.806)" opacity="0.1">
          <g id="Group_1954" data-name="Group 1954">
            <g id="Group_1953" data-name="Group 1953" clip-path="url(#clip-path-11)">
              <path id="Path_1387" data-name="Path 1387" d="M38.57,2.4C22.507,2.4,9.29,5.564,7.628,9.621a101.491,101.491,0,0,1,18-1.491c17.188,0,31.121,3.618,31.121,8.081a2.254,2.254,0,0,1-.18.863c7.937-1.463,13.12-3.869,13.12-6.59C69.69,6.021,55.757,2.4,38.57,2.4" transform="translate(-7.628 -2.403)" fill="#121314"/>
            </g>
          </g>
        </g>
        <g id="Group_1958" data-name="Group 1958" transform="translate(2.624 0.806)" opacity="0.1">
          <g id="Group_1957" data-name="Group 1957">
            <g id="Group_1956" data-name="Group 1956" clip-path="url(#clip-path-12)">
              <path id="Path_1388" data-name="Path 1388" d="M38.7,2.4C22.813,2.4,9.717,5.495,7.822,9.487,12.787,6.736,23.539,4.83,36.011,4.83c17.188,0,31.121,3.618,31.121,8.081a2.315,2.315,0,0,1-.245,1c1.878-1.04,2.933-2.2,2.933-3.426C69.819,6.021,55.886,2.4,38.7,2.4" transform="translate(-7.822 -2.403)"/>
            </g>
          </g>
        </g>
        <g id="Group_1961" data-name="Group 1961" transform="translate(0 5.589)" opacity="0.1">
          <g id="Group_1960" data-name="Group 1960">
            <g id="Group_1959" data-name="Group 1959" clip-path="url(#clip-path-13)">
              <path id="Path_1389" data-name="Path 1389" d="M33.845,29.8c-18.5,0-33.5-4.239-33.5-9.469,0-1.3.926-2.535,2.6-3.662C1.059,17.848,0,19.161,0,20.545c0,5.229,15,9.469,33.5,9.469,13.907,0,25.833-2.4,30.9-5.807C59.155,27.5,47.452,29.8,33.845,29.8" transform="translate(0 -16.664)" fill="#d2e9fd"/>
            </g>
          </g>
        </g>
        <g id="Group_1964" data-name="Group 1964" transform="translate(0.892)" opacity="0.6">
          <g id="Group_1963" data-name="Group 1963">
            <g id="Group_1962" data-name="Group 1962" clip-path="url(#clip-path-14)">
              <path id="Path_1390" data-name="Path 1390" d="M35.268,0C19.4,0,6.128,3.117,2.66,7.3,6.5,3.271,19.523.3,35,.3,53.5.3,68.5,4.542,68.5,9.771a3.405,3.405,0,0,1-.892,2.167A3.619,3.619,0,0,0,68.768,9.47c0-5.23-15-9.47-33.5-9.47" transform="translate(-2.66 0)" fill="#d2e9fd"/>
            </g>
          </g>
        </g>
        <path id="Path_1391" data-name="Path 1391" d="M22.752,10.641c5.134-5.114,15.716-2.286,19.073-1.37S43.4,13.14,37.857,12.4a39.1,39.1,0,0,0-12.969,0c-3.561.686-3.1-.8-2.136-1.759" transform="translate(-14.662 -5.094)" fill="#f8e08a"/>
        <g id="Group_1967" data-name="Group 1967" transform="translate(7.399 4.695)" opacity="0.4" style="mix-blend-mode: multiply;isolation: isolate">
          <g id="Group_1966" data-name="Group 1966">
            <g id="Group_1965" data-name="Group 1965" clip-path="url(#clip-path-15)">
              <path id="Path_1392" data-name="Path 1392" d="M43.4,14.456a9.268,9.268,0,0,1-3.861.188,39.1,39.1,0,0,0-12.97,0c-2.281.439-2.9-.013-2.809-.647a8.443,8.443,0,0,0-1,.853c-.967.962-1.424,2.445,2.136,1.759a39.1,39.1,0,0,1,12.97,0c4.165.555,6.2-.971,5.54-2.153" transform="translate(-22.061 -13.998)" fill="#f8e08a"/>
            </g>
          </g>
        </g>
        <path id="Path_1393" data-name="Path 1393" d="M64.234,26.542c-3.725,2.329,8.933,6.778,16.6,5.975s5.2-3.979,1.437-3.124-11.088-.294-12.581-1.9-3.389-2.241-5.457-.948" transform="translate(-42.245 -17.181)" fill="#f77b18"/>
        <path id="Path_1394" data-name="Path 1394" d="M103.022,14.123c-5.323.908-9.256,2.455-14.46,1.857s-7.443.231-5.912,1.208,7.59,2.862,14.2,1.244,10.168-4.99,6.175-4.309" transform="translate(-54.616 -9.327)" fill="#89c515"/>
        <g id="Group_1970" data-name="Group 1970" transform="translate(27.563 4.799)" opacity="0.3" style="mix-blend-mode: multiply;isolation: isolate">
          <g id="Group_1969" data-name="Group 1969">
            <g id="Group_1968" data-name="Group 1968" clip-path="url(#clip-path-16)">
              <path id="Path_1395" data-name="Path 1395" d="M104.492,14.31a19.4,19.4,0,0,1-7.169,3.111c-6.605,1.618-12.666-.268-14.2-1.244l-.006,0c-1.046.254-1.24.707-.467,1.2,1.53.977,7.59,2.862,14.2,1.244,5.383-1.318,8.741-3.8,7.642-4.306" transform="translate(-82.183 -14.31)" fill="#89c515"/>
            </g>
          </g>
        </g>
        <path id="Path_1396" data-name="Path 1396" d="M136.952,23.168c-3.587,1.176-12.62-.612-16.138-.827s-2.614,2.8,5.635,3.6,12.785.02,13.318-1.553.132-2.188-2.815-1.222" transform="translate(-79.003 -14.841)" fill="#fdfa59"/>
        <g id="Group_1973" data-name="Group 1973" transform="translate(26.419 8.239)" opacity="0.3" style="mix-blend-mode: multiply;isolation: isolate">
          <g id="Group_1972" data-name="Group 1972">
            <g id="Group_1971" data-name="Group 1971" clip-path="url(#clip-path-17)">
              <path id="Path_1397" data-name="Path 1397" d="M94.735,25.657c-7.123,2.777-11.275.065-13.909-.906s-3.209,2.074,1.129,4.084,14.332.89,16.371-.89.264-3.792-3.59-2.289" transform="translate(-78.772 -24.565)" fill="#d62929"/>
            </g>
          </g>
        </g>
        <path id="Path_1398" data-name="Path 1398" d="M95.054,23.421c-7.124,2.777-11.276.065-13.91-.906s-3.209,2.073,1.128,4.084,14.332.89,16.371-.89.264-3.791-3.589-2.289" transform="translate(-52.565 -14.841)" fill="#d62929"/>
        <g id="Group_1976" data-name="Group 1976" transform="translate(26.537 7.514)" opacity="0.2">
          <g id="Group_1975" data-name="Group 1975">
            <g id="Group_1974" data-name="Group 1974" clip-path="url(#clip-path-18)">
              <path id="Path_1399" data-name="Path 1399" d="M83.331,25.594c-2.2-1.019-3.126-2.3-3.172-3.191C78.49,22.5,78.6,24.936,82.3,26.649c4.337,2.01,14.332.89,16.371-.89a2.814,2.814,0,0,0,.63-.774c-2.7,1.611-11.862,2.513-15.966.61" transform="translate(-79.126 -22.403)" fill="#490e0e"/>
            </g>
          </g>
        </g>
        <path id="Path_1400" data-name="Path 1400" d="M86.478,11.773c-9.6-.4-12.82.144-14.686,1.235s-1.2,1.648,3.721,1.471,9.75.929,12.708.678.994-3.269-1.743-3.384" transform="translate(-47.077 -7.736)" fill="#f77b18"/>
        <g id="Group_1979" data-name="Group 1979" transform="translate(23.756 5.184)" opacity="0.2" style="mix-blend-mode: multiply;isolation: isolate">
          <g id="Group_1978" data-name="Group 1978">
            <g id="Group_1977" data-name="Group 1977" clip-path="url(#clip-path-19)">
              <path id="Path_1401" data-name="Path 1401" d="M89.205,16.512c-2.958.252-7.785-.857-12.708-.678-2.791.1-4.175-.041-4.544-.376-.053.03-.11.057-.162.087-1.867,1.092-1.2,1.648,3.721,1.47s9.75.93,12.708.679c1.194-.1,1.56-.658,1.422-1.288a2.5,2.5,0,0,1-.438.106" transform="translate(-70.833 -15.457)" fill="#d62929"/>
            </g>
          </g>
        </g>
        <path id="Path_1402" data-name="Path 1402" d="M51.628,12.959c-7.758-7.221-14.152,1.279-15.674,2.808s1.005,1.6,4.395-.031a12.12,12.12,0,0,1,8.767-.8c2.147.67,3.222-1.312,2.513-1.973" transform="translate(-23.594 -6.706)" fill="#89c515"/>
        <g id="Group_1982" data-name="Group 1982" transform="translate(11.906 6.126)" opacity="0.3" style="mix-blend-mode: multiply;isolation: isolate">
          <g id="Group_1981" data-name="Group 1981">
            <g id="Group_1980" data-name="Group 1980" clip-path="url(#clip-path-20)">
              <path id="Path_1403" data-name="Path 1403" d="M49.976,18.743a12.12,12.12,0,0,0-8.768.8c-2.294,1.1-4.16,1.41-4.675,1.03-.232.254-.435.478-.58.624-1.523,1.528,1.005,1.6,4.395-.031a12.12,12.12,0,0,1,8.767-.8c1.928.6,2.979-.928,2.662-1.727a2.3,2.3,0,0,1-1.8.1" transform="translate(-35.501 -18.265)" fill="#89c515"/>
            </g>
          </g>
        </g>
        <path id="Path_1404" data-name="Path 1404" d="M34.112,21.308a16.357,16.357,0,0,0-13.01-.746c-2.7,1.012-2.729,2.593.431,2.018s6.377-.977,9.823.431,4.8-.591,2.757-1.7" transform="translate(-12.705 -12.998)" fill="#f77b18"/>
        <path id="Path_1405" data-name="Path 1405" d="M27.434,26.77c-6.87-.476-14.194.466-14.591.95S11.665,28.87,17.41,29.3s11.718.259,11.891-.632,1.408-1.672-1.866-1.9" transform="translate(-8.353 -17.705)" fill="#f8e08a"/>
        <g id="Group_1985" data-name="Group 1985" transform="translate(4.216 9.407)" opacity="0.3" style="mix-blend-mode: multiply;isolation: isolate">
          <g id="Group_1984" data-name="Group 1984">
            <g id="Group_1983" data-name="Group 1983" clip-path="url(#clip-path-21)">
              <path id="Path_1406" data-name="Path 1406" d="M18.459,28.354c-1.237-.092-2.156-.2-2.856-.306a8.241,8.241,0,0,0-2.758.609c-.4.483-1.178,1.148,4.566,1.579S29.129,30.5,29.3,29.6c.108-.555.628-1.068.21-1.43-1.828.477-6.488.523-11.052.18" transform="translate(-12.57 -28.048)" fill="#f8e08a"/>
            </g>
          </g>
        </g>
        <g id="Group_1988" data-name="Group 1988" transform="translate(3.738 6.026)" opacity="0.2" style="mix-blend-mode: multiply;isolation: isolate">
          <g id="Group_1987" data-name="Group 1987">
            <g id="Group_1986" data-name="Group 1986" clip-path="url(#clip-path-22)">
              <path id="Path_1407" data-name="Path 1407" d="M16.73,18.081c-4.57.983-5.85,2.958-5.543,4s1.605,1.888,3.264.306A12.526,12.526,0,0,1,19.4,19.628c1.8-.673-.285-2.062-2.674-1.548" transform="translate(-11.144 -17.969)" fill="#d62929"/>
            </g>
          </g>
        </g>
        <path id="Path_1408" data-name="Path 1408" d="M14.269,16.56c-4.571.984-5.85,2.958-5.544,4s1.605,1.888,3.264.305a12.531,12.531,0,0,1,4.954-2.752c1.8-.673-.285-2.062-2.674-1.549" transform="translate(-5.77 -10.932)" fill="#89c515"/>
        <g id="Group_1991" data-name="Group 1991" transform="translate(16.042 7.623)" opacity="0.3" style="mix-blend-mode: multiply;isolation: isolate">
          <g id="Group_1990" data-name="Group 1990">
            <g id="Group_1989" data-name="Group 1989" clip-path="url(#clip-path-23)">
              <path id="Path_1409" data-name="Path 1409" d="M48.626,24A23.882,23.882,0,0,1,60.6,23.114c2.861.656,4.529,3.415-.959,3.275s-5.564-1.192-8.311-1.028S46.68,24.808,48.626,24" transform="translate(-47.831 -22.728)" fill="#d62929"/>
            </g>
          </g>
        </g>
        <path id="Path_1410" data-name="Path 1410" d="M49.807,21.659a23.891,23.891,0,0,1,11.978-.888c2.861.656,4.528,3.415-.959,3.275s-5.564-1.192-8.311-1.028-4.654-.553-2.708-1.359" transform="translate(-32.574 -13.548)" fill="#fdfa59"/>
        <g id="Group_1994" data-name="Group 1994" transform="translate(4.566 9.908)" opacity="0.1">
          <g id="Group_1993" data-name="Group 1993">
            <g id="Group_1992" data-name="Group 1992" clip-path="url(#clip-path-24)">
              <path id="Path_1411" data-name="Path 1411" d="M16.049,29.559c-6.407-.36.891,4.788,9.564,5.305s8.44-1.792,3.907-2.513-5.363.086-8.373-1.18-3.688-1.532-5.1-1.612" transform="translate(-13.613 -29.541)" fill="#2c4005"/>
            </g>
          </g>
        </g>
        <g id="Group_1997" data-name="Group 1997" transform="translate(16.469 6.837)" opacity="0.2">
          <g id="Group_1996" data-name="Group 1996">
            <g id="Group_1995" data-name="Group 1995" clip-path="url(#clip-path-25)">
              <path id="Path_1412" data-name="Path 1412" d="M61.846,20.771a23.892,23.892,0,0,0-11.978.888c-.569.236-.778.46-.763.661l.015-.008A23.889,23.889,0,0,1,61.1,21.423c1.655.379,2.9,1.462,2.6,2.281,1.785-.738.31-2.437-1.855-2.933" transform="translate(-49.105 -20.385)" fill="#fffffa"/>
            </g>
          </g>
        </g>
        <path id="Path_1413" data-name="Path 1413" d="M18.791,30.555c-6.408-.361.89,4.787,9.563,5.305s8.44-1.793,3.907-2.514-5.363.086-8.373-1.179-3.688-1.533-5.1-1.612" transform="translate(-10.869 -20.295)" fill="#89c515"/>
        <g id="Group_2000" data-name="Group 2000" transform="translate(5.511 10.332)" opacity="0.4" style="mix-blend-mode: multiply;isolation: isolate">
          <g id="Group_1999" data-name="Group 1999">
            <g id="Group_1998" data-name="Group 1998" clip-path="url(#clip-path-26)">
              <path id="Path_1414" data-name="Path 1414" d="M29.194,35.151c-5.968-.356-11.284-2.905-11.933-4.343-3.207.634,3.407,4.77,11.145,5.233,5.376.321,7.324-.445,6.954-1.245a17.914,17.914,0,0,1-6.166.355" transform="translate(-16.433 -30.808)" fill="#89c515"/>
            </g>
          </g>
        </g>
        <g id="Group_2003" data-name="Group 2003" transform="translate(12.534 10.909)" opacity="0.2" style="mix-blend-mode: multiply;isolation: isolate">
          <g id="Group_2002" data-name="Group 2002">
            <g id="Group_2001" data-name="Group 2001" clip-path="url(#clip-path-27)">
              <path id="Path_1415" data-name="Path 1415" d="M39.905,32.558c-5.041-.4-1.916,3.414,3.777,3.413s5,2.48,11.1,2.594,3.928-2.23-.23-3S50.7,34.516,47.344,33.6a31.585,31.585,0,0,0-7.439-1.045" transform="translate(-37.373 -32.528)" fill="#d62929"/>
            </g>
          </g>
        </g>
        <path id="Path_1416" data-name="Path 1416" d="M40.333,30.883c-5.041-.4-1.916,3.414,3.777,3.413s5,2.48,11.1,2.594,3.93-2.23-.229-3-3.853-1.045-7.209-1.959a31.638,31.638,0,0,0-7.439-1.045" transform="translate(-25.123 -20.505)" fill="#d62929"/>
        <path id="Path_1417" data-name="Path 1417" d="M135.655,33.432c-7.2.328-8.063,2.178-13.633,1.91s-3.891,2.966.878,2.685,10.375-.482,12.932-2.289,3.918-2.494-.177-2.307" transform="translate(-78.775 -22.2)" fill="#89c515"/>
        <path id="Path_1418" data-name="Path 1418" d="M129.767,25.6c-5.563,2.984-7.1,2.6-10.223,2.408s-4.194,1.775.973,1.976,9.669-.129,11.423-1.985,1.183-4.2-2.174-2.4" transform="translate(-77.706 -16.584)" fill="#f77b18"/>
        <path id="Path_1419" data-name="Path 1419" d="M89.611,42.029c-11.787.724-16.554.293-17.065.518-.4.175-.771,1.589,4.653,2.14l.246.024a56.641,56.641,0,0,0,5.834.19c11.711-.125,12.291-1.08,11.734-1.728s-5.4-1.145-5.4-1.145" transform="translate(-48.079 -27.933)" fill="#fdfa59"/>
        <g id="Group_2006" data-name="Group 2006" transform="translate(24.262 14.54)" opacity="0.3" style="mix-blend-mode: multiply;isolation: isolate">
          <g id="Group_2005" data-name="Group 2005">
            <g id="Group_2004" data-name="Group 2004" clip-path="url(#clip-path-28)">
              <path id="Path_1420" data-name="Path 1420" d="M94.232,43.7a62.716,62.716,0,0,1-10.356.647,57.028,57.028,0,0,1-5.834-.19l-.246-.024a13.481,13.481,0,0,1-3.7-.775,6.974,6.974,0,0,0-1.553.074c-.4.175-.771,1.589,4.653,2.14l.246.024a56.551,56.551,0,0,0,5.834.19c11.711-.125,12.292-1.08,11.735-1.728a1.961,1.961,0,0,0-.781-.358" transform="translate(-72.341 -43.353)" fill="#fdfa59"/>
            </g>
          </g>
        </g>
        <path id="Path_1421" data-name="Path 1421" d="M51.122,44.205c-2.593-1,5.364-1.35,9.041-.951s5.258,2.134,2.594,2.14-9.017-.178-11.635-1.189" transform="translate(-33.638 -28.64)" fill="#d62929"/>
        <path id="Path_1422" data-name="Path 1422" d="M166.346,26.7c-5.533,2.185-8.008,4.639-2.529,3.876s6.851-3.912,6.8-4.83-.508-.534-4.272.953" transform="translate(-106.834 -16.783)" fill="#d62929"/>
        <g id="Group_2009" data-name="Group 2009" transform="translate(39.695 3.981)" opacity="0.3" style="mix-blend-mode: multiply;isolation: isolate">
          <g id="Group_2008" data-name="Group 2008">
            <g id="Group_2007" data-name="Group 2007" clip-path="url(#clip-path-29)">
              <path id="Path_1423" data-name="Path 1423" d="M118.383,13.163c.68-1.665,3.353-1.729,9.433-.152s7.864,3.828,1.886,3.109-11.777-1.838-11.318-2.957" transform="translate(-118.358 -11.87)" fill="#d62929"/>
            </g>
          </g>
        </g>
        <path id="Path_1424" data-name="Path 1424" d="M119.764,11.689c.68-1.665,3.354-1.73,9.433-.153s7.864,3.829,1.886,3.11-11.777-1.838-11.318-2.957" transform="translate(-79.581 -6.909)" fill="#d62929"/>
        <g id="Group_2012" data-name="Group 2012" transform="translate(40.158 3.828)" opacity="0.2">
          <g id="Group_2011" data-name="Group 2011">
            <g id="Group_2010" data-name="Group 2010" clip-path="url(#clip-path-30)">
              <path id="Path_1425" data-name="Path 1425" d="M131.872,14.575c-5.978-.719-11.776-1.838-11.318-2.957a1.726,1.726,0,0,1,.131-.206,1.778,1.778,0,0,0-.921.952c-.458,1.119,5.34,2.238,11.318,2.957,2.946.354,4-.014,3.591-.666a11.52,11.52,0,0,1-2.8-.08" transform="translate(-119.739 -11.413)" fill="#490e0e"/>
            </g>
          </g>
        </g>
        <g id="Group_2015" data-name="Group 2015" transform="translate(44.509 6.471)" opacity="0.3" style="mix-blend-mode: multiply;isolation: isolate">
          <g id="Group_2014" data-name="Group 2014">
            <g id="Group_2013" data-name="Group 2013" clip-path="url(#clip-path-31)">
              <path id="Path_1426" data-name="Path 1426" d="M142.626,20.02c-7.051-.994-8.66-1.054-9.65.381s.829,2.087,5.087,1.75,7.544.788,8.438.3-1.436-2.087-3.876-2.431" transform="translate(-132.712 -19.296)" fill="#d62929"/>
            </g>
          </g>
        </g>
        <path id="Path_1427" data-name="Path 1427" d="M142.628,18.165c-7.05-.994-8.659-1.054-9.649.381s.829,2.087,5.087,1.749,7.544.788,8.438.3-1.436-2.087-3.876-2.431" transform="translate(-88.205 -11.592)" fill="#f77b18"/>
        <g id="Group_2018" data-name="Group 2018" transform="translate(44.51 5.912)" opacity="0.2" style="mix-blend-mode: multiply;isolation: isolate">
          <g id="Group_2017" data-name="Group 2017">
            <g id="Group_2016" data-name="Group 2016" clip-path="url(#clip-path-32)">
              <path id="Path_1428" data-name="Path 1428" d="M146.287,19.807a30.492,30.492,0,0,0-6.389-.317c-4.258.338-6.078-.315-5.088-1.75.031-.042.068-.072.1-.112a2.448,2.448,0,0,0-1.928,1.042c-.991,1.435.829,2.087,5.087,1.749s7.544.788,8.438.3c.341-.185.208-.535-.218-.914" transform="translate(-132.715 -17.629)" fill="#d62929"/>
            </g>
          </g>
        </g>
        <g id="Group_2021" data-name="Group 2021" transform="translate(32.474 8.596)" opacity="0.3">
          <g id="Group_2020" data-name="Group 2020">
            <g id="Group_2019" data-name="Group 2019" clip-path="url(#clip-path-33)">
              <path id="Path_1429" data-name="Path 1429" d="M96.868,27.087c-.7,1.084,7.687,1.036,10.6.236s2.7-2.2-.422-1.509-4.174,1.546-6.529,1.243a10.622,10.622,0,0,0-3.647.03" transform="translate(-96.827 -25.63)" fill="#fccaca"/>
            </g>
          </g>
        </g>
        <g id="Group_2024" data-name="Group 2024" transform="translate(41.446 11.42)" opacity="0.4">
          <g id="Group_2023" data-name="Group 2023">
            <g id="Group_2022" data-name="Group 2022" clip-path="url(#clip-path-34)">
              <path id="Path_1430" data-name="Path 1430" d="M124.727,34.452c-1.352-.027-2.308.746,1.914.566s6.877-1.022,5.052-.965-3.09.414-4.832.4-1.378.015-2.134,0" transform="translate(-123.579 -34.05)" fill="#fdc37a"/>
            </g>
          </g>
        </g>
        <g id="Group_2027" data-name="Group 2027" transform="translate(30.545 14.392)" opacity="0.3">
          <g id="Group_2026" data-name="Group 2026">
            <g id="Group_2025" data-name="Group 2025" clip-path="url(#clip-path-35)">
              <path id="Path_1431" data-name="Path 1431" d="M103,43.134a40.91,40.91,0,0,0-11.316.409c-.919.154-1.57.575,4.079.384s9.479-.4,8.962-.5S103,43.134,103,43.134" transform="translate(-91.076 -42.913)" fill="#ffffe9"/>
            </g>
          </g>
        </g>
        <g id="Group_2030" data-name="Group 2030" transform="translate(19.196 14.659)" opacity="0.2">
          <g id="Group_2029" data-name="Group 2029">
            <g id="Group_2028" data-name="Group 2028" clip-path="url(#clip-path-36)">
              <path id="Path_1432" data-name="Path 1432" d="M57.341,43.785c-.842.344,3.561.641,7.027.8s4.348-.16,1.149-.611a53.969,53.969,0,0,0-8.176-.188" transform="translate(-57.236 -43.709)" fill="#ffffe9"/>
            </g>
          </g>
        </g>
        <g id="Group_2033" data-name="Group 2033" transform="translate(16.08 11.288)" opacity="0.1">
          <g id="Group_2032" data-name="Group 2032">
            <g id="Group_2031" data-name="Group 2031" clip-path="url(#clip-path-37)">
              <path id="Path_1433" data-name="Path 1433" d="M48.236,33.658c-.727.287-.172.973,2.585.975s5.744,1.116,6.2,1.1-.441-.977-3.1-1.548a29.787,29.787,0,0,0-5.687-.532" transform="translate(-47.945 -33.657)" fill="#ffffe9"/>
            </g>
          </g>
        </g>
        <g id="Group_2036" data-name="Group 2036" transform="translate(6.604 10.837)" opacity="0.2">
          <g id="Group_2035" data-name="Group 2035">
            <g id="Group_2034" data-name="Group 2034" clip-path="url(#clip-path-38)">
              <path id="Path_1434" data-name="Path 1434" d="M22.164,32.477c-1.839-.249-4.494-.371,0,.819s6.281,1.759,6.281,1.759-3.542-1.812-4.155-1.985l-2.126-.593" transform="translate(-19.692 -32.313)" fill="#ffffe9"/>
            </g>
          </g>
        </g>
        <g id="Group_2039" data-name="Group 2039" transform="translate(20.475 7.623)" opacity="0.4">
          <g id="Group_2038" data-name="Group 2038">
            <g id="Group_2037" data-name="Group 2037" clip-path="url(#clip-path-39)">
              <path id="Path_1435" data-name="Path 1435" d="M61.81,22.921c-1.736.357-.356.536,2.737.505a28.209,28.209,0,0,1,6.066.686s1.9-.2-.732-.833a24.135,24.135,0,0,0-8.072-.359" transform="translate(-61.05 -22.729)" fill="#ffffe9"/>
            </g>
          </g>
        </g>
        <g id="Group_2042" data-name="Group 2042" transform="translate(17.675 4.164)" opacity="0.3">
          <g id="Group_2041" data-name="Group 2041">
            <g id="Group_2040" data-name="Group 2040" clip-path="url(#clip-path-40)">
              <path id="Path_1436" data-name="Path 1436" d="M54.366,12.666c-2.005.437-2.657,1.964.675,1.133a10.209,10.209,0,0,1,6.161.246c.129.129,1.292-.589-1.8-1.221s-3.921-.4-5.04-.158" transform="translate(-52.702 -12.417)" fill="#ffffe9"/>
            </g>
          </g>
        </g>
        <g id="Group_2045" data-name="Group 2045" transform="translate(28.738 4.21)" opacity="0.4">
          <g id="Group_2044" data-name="Group 2044">
            <g id="Group_2043" data-name="Group 2043" clip-path="url(#clip-path-41)">
              <path id="Path_1437" data-name="Path 1437" d="M85.964,12.56c-.876.689.276.833,4.138.933s8.773.109,5.383-.462a69.757,69.757,0,0,0-9.521-.471" transform="translate(-85.686 -12.554)" fill="#fdc37a"/>
            </g>
          </g>
        </g>
        <g id="Group_2048" data-name="Group 2048" transform="translate(40.632 3.797)" opacity="0.3">
          <g id="Group_2047" data-name="Group 2047">
            <g id="Group_2046" data-name="Group 2046" clip-path="url(#clip-path-42)">
              <path id="Path_1438" data-name="Path 1438" d="M122.865,11.322c-2.532.278-2.211.992.661.761a33.319,33.319,0,0,1,6.836.468,15.632,15.632,0,0,0-3.134-.815,22.042,22.042,0,0,0-4.277-.385Z" transform="translate(-121.152 -11.322)" fill="#fdc37a"/>
            </g>
          </g>
        </g>
      </g>
    </g>
  </g>
</svg>
