<svg xmlns="http://www.w3.org/2000/svg" width="100" height="100" viewBox="0 0 100 100">
  <g id="Group_414" data-name="Group 414" transform="translate(-6712 -8861)">
    <g id="Path_54" data-name="Path 54" transform="translate(6712 8861)" fill="#e25b5b">
      <path d="M 50 97.5 C 43.58644485473633 97.5 37.36604690551758 96.24446105957031 31.51163101196289 93.76824951171875 C 25.85566139221191 91.37596893310547 20.77555465698242 87.95069122314453 16.41243171691895 83.58757019042969 C 12.04930782318115 79.22444915771484 8.624031066894531 74.14434051513672 6.231753826141357 68.48837280273438 C 3.755538463592529 62.63395309448242 2.5 56.41355514526367 2.5 50 C 2.5 43.58644485473633 3.755538463592529 37.36604690551758 6.231753826141357 31.51163101196289 C 8.624031066894531 25.85566139221191 12.04930782318115 20.77555465698242 16.41243171691895 16.41243171691895 C 20.77555465698242 12.04930782318115 25.85566139221191 8.624031066894531 31.51163101196289 6.231753826141357 C 37.36604690551758 3.755538463592529 43.58644485473633 2.5 50 2.5 C 56.41355514526367 2.5 62.63395309448242 3.755538463592529 68.48837280273438 6.231753826141357 C 74.14434051513672 8.624031066894531 79.22444915771484 12.04930782318115 83.58757019042969 16.41243171691895 C 87.95069122314453 20.77555465698242 91.37596893310547 25.85566139221191 93.76824951171875 31.51163101196289 C 96.24446105957031 37.36604690551758 97.5 43.58644485473633 97.5 50 C 97.5 56.41355514526367 96.24446105957031 62.63395309448242 93.76824951171875 68.48837280273438 C 91.37596893310547 74.14434051513672 87.95069122314453 79.22444915771484 83.58757019042969 83.58757019042969 C 79.22444915771484 87.95069122314453 74.14434051513672 91.37596893310547 68.48837280273438 93.76824951171875 C 62.63395309448242 96.24446105957031 56.41355514526367 97.5 50 97.5 Z" stroke="none"/>
      <path d="M 50 5 C 43.92283630371094 5 38.03010940551758 6.189109802246094 32.48551177978516 8.534271240234375 C 27.12752532958984 10.80050659179688 22.31452941894531 14.04585266113281 18.18019866943359 18.18019866943359 C 14.04585266113281 22.31452941894531 10.80050659179688 27.12752532958984 8.534271240234375 32.48551177978516 C 6.189109802246094 38.03010940551758 5 43.92283630371094 5 50 C 5 56.07716369628906 6.189109802246094 61.96989059448242 8.534271240234375 67.51449584960938 C 10.80050659179688 72.87247467041016 14.04585266113281 77.68547058105469 18.18019866943359 81.81980133056641 C 22.31452941894531 85.95414733886719 27.12752532958984 89.19949340820312 32.48551177978516 91.46572875976562 C 38.03010940551758 93.81089019775391 43.92283630371094 95 50 95 C 56.07716369628906 95 61.96989059448242 93.81089019775391 67.51449584960938 91.46572875976562 C 72.87247467041016 89.19949340820312 77.68547058105469 85.95414733886719 81.81980133056641 81.81980133056641 C 85.95414733886719 77.68547058105469 89.19949340820312 72.87247467041016 91.46572875976562 67.51449584960938 C 93.81089019775391 61.96989059448242 95 56.07716369628906 95 50 C 95 43.92283630371094 93.81089019775391 38.03010940551758 91.46572875976562 32.48551177978516 C 89.19949340820312 27.12752532958984 85.95414733886719 22.31452941894531 81.81980133056641 18.18019866943359 C 77.68547058105469 14.04585266113281 72.87247467041016 10.80050659179688 67.51449584960938 8.534271240234375 C 61.96989059448242 6.189109802246094 56.07716369628906 5 50 5 M 50 0 C 77.61423492431641 0 100 22.38576507568359 100 50 C 100 77.61423492431641 77.61423492431641 100 50 100 C 22.38576507568359 100 0 77.61423492431641 0 50 C 0 22.38576507568359 22.38576507568359 0 50 0 Z" stroke="none" fill="#1d2027"/>
    </g>
    <g id="Group_412" data-name="Group 412" transform="translate(-9 -9)">
      <line id="Line_271" data-name="Line 271" x2="31" y2="31" transform="translate(6756 8905)" fill="none" stroke="#fff" stroke-linecap="round" stroke-width="8"/>
      <line id="Line_272" data-name="Line 272" x1="31" y2="31" transform="translate(6756 8905)" fill="none" stroke="#fff" stroke-linecap="round" stroke-width="8"/>
    </g>
  </g>
</svg>
