<svg id="Component_10_3" data-name="Component 10 – 3" xmlns="http://www.w3.org/2000/svg" width="113" height="98" viewBox="0 0 113 98">
  <g id="Polygon_23" data-name="Polygon 23" fill="#ffff70">
    <path d="M 97.42261505126953 95.5 L 15.57740020751953 95.5 C 13.22835350036621 95.5 11.12436962127686 94.28569030761719 9.949231147766113 92.25173950195312 C 8.774076461791992 90.2177734375 8.772969245910645 87.78850555419922 9.946230888366699 85.75346374511719 L 50.86883163452148 14.7726469039917 C 52.04335403442383 12.73544692993164 54.14846038818359 11.51920032501221 56.5 11.51920032501221 C 58.85153961181641 11.51920032501221 60.95664596557617 12.73544692993164 62.13116836547852 14.77266216278076 L 103.0537872314453 85.75346374511719 C 104.2270431518555 87.78850555419922 104.2259216308594 90.2177734375 103.0507659912109 92.25173950195312 C 101.8756332397461 94.28569030761719 99.77164459228516 95.5 97.42261505126953 95.5 Z" stroke="none"/>
    <path d="M 56.5 14.01920318603516 C 55.80514526367188 14.01920318603516 54.07647323608398 14.21429443359375 53.03467178344727 16.02134704589844 L 12.11205291748047 87.00214385986328 C 11.07136535644531 88.8072509765625 11.76665496826172 90.40003967285156 12.11390686035156 91.00105285644531 C 12.46116638183594 91.60208892822266 13.49376678466797 93 15.57738494873047 93 L 97.42261505126953 93 C 99.50623321533203 93 100.5388565063477 91.60208892822266 100.8860931396484 91.00105285644531 C 101.2333450317383 90.40003967285156 101.9286575317383 88.80723571777344 100.8879623413086 87.00214385986328 L 59.96532821655273 16.02132415771484 C 58.92352676391602 14.21429443359375 57.19485473632812 14.01920318603516 56.5 14.01920318603516 M 56.5 9.019203186035156 C 59.53278350830078 9.019203186035156 62.5655632019043 10.52079772949219 64.2969970703125 13.52400207519531 L 105.2196197509766 84.50479888916016 C 108.6787796020508 90.50478363037109 104.3483428955078 98 97.42261505126953 98 L 15.57738494873047 98 C 8.651657104492188 98 4.321220397949219 90.50478363037109 7.780403137207031 84.50479888916016 L 48.7030029296875 13.52400207519531 C 50.4344367980957 10.52079772949219 53.46721649169922 9.019203186035156 56.5 9.019203186035156 Z" stroke="none" fill="#1d2027"/>
  </g>
  <line id="Line_40" data-name="Line 40" y2="35.32" transform="translate(56.5 35.34)" fill="none" stroke="#1d2027" stroke-linecap="round" stroke-width="5"/>
  <line id="Line_41" data-name="Line 41" transform="translate(56.5 82.5)" fill="none" stroke="#1d2027" stroke-linecap="round" stroke-width="6"/>
</svg>
